<?xml version="1.0" encoding="UTF-8"?>
<svg xmlns="http://www.w3.org/2000/svg" viewBox="300 0 1448 2048">
  <defs>
    <style>
      .muscle {
        fill: #fff;
        stroke: #666;
        stroke-width: 3;
        stroke-miterlimit: 10;
        transition: all 0.2s ease;
        cursor: pointer;
      }
      .muscle:hover:not(.selected) { 
        fill: #00FF00 !important; 
        stroke: #ffffff;
        stroke-width: 5;
      }
      .muscle.selected { 
        fill: #FF0000 !important; 
        stroke: #990000 !important;
        stroke-width: 5;
      }
      .detail-line {
        fill: none;
        stroke: #000;
        stroke-width: 2;
        stroke-miterlimit: 10;
        pointer-events: none;
        stroke-opacity: 0.3;
      }
    </style>
    <mask id="finger-mask">
      <rect x="0" y="0" width="2048" height="2048" fill="white" />
      <path d="M556.46,1376.37s82.47-50.65,105.85-100.65c0,0,48.05-85.72,44.81-100.65,0,0-36.36,26.62-59.09-29.87,0,0-92.21-180.52-112.34-200.65,0,0-86.36-100-131.17-92.86,0,0-48.05-5.19-66.23,35.07,0,0-6.49,20.78,7.14,39.61l45.46,69.48s36.36,91.56,35.07,100.65c0,0,38.31,65.59,44.16,71.43l37.01,77.92s12.34,63.64,26.62,92.86,22.73,37.66,22.73,37.66Z" fill="black" /> <path d="M898.14,755.15c-70.48,75.6-166.58,33.32-166.58,33.32,0,0-19.39-125.91-23.8-127.17,0,0-8.82-100.18-5.67-134.83l-9.45-81.27s-8.08-109.91-1.43-127.89c0,0,1.56-63.72,57.07-73.1,0,0,37.98-11.79,61.79,27.13,0,0,26.16,45.57,28.9,101.86l11.34,126.26,22.48,95.19,18.09,103.52,7.27,56.97Z" fill="black" /> <path d="M983.83,744.62s88.39,33.9,161.04-7.27l10.9-165.89s-21.8-210.69-13.32-210.69l7.96-158.6s-3.27-75.64-72.92-70.75c0,0-65.3-2.72-73.47,89.79,0,0-13.24,86.83-8.16,154.9l-2.54,61.7-12.72,106.86s-6.36,46.44,0,124.68l3.23,75.25Z" fill="black" /> <path d="M1208.99,760.01s59.23,83.69,149.36,47.64l27.39-119.88s10.52-171.9,22.8-210.49l17.54-132.14s11.11-59.64-39.17-84.78c0,0-57.89-28.07-87.7,35.08l-18.71,117.52-12.28,85.95-22.22,89.46-21.63,82.44-15.38,89.19Z" fill="black" /> <path d="M1401.56,921.84s32.08,58.32,122.47,72.9c0,0,59.71-128.12,67.5-148.16,0,0,23.38-93.5,40.07-116.88,0,0,38.96-114.65,23.38-154.72,0,0-17.29-47-71.74-26.97,0,0-30.82,11.81-59.07,98.1l-23.59,79.01-31.55,70.22-32.56,54.95-34.91,71.54Z" fill="black" />
    </mask>
  </defs>
  <g >
    <g id="Layer_2_Interactive" data-name="dorsum" >
    <g>
      <path id="dorsum" class="muscle"  d="M834.59,1930.59s11.13-253.24-73.75-293.59c0,0-50.09-44.53-89.05-105.75,0,0-104.36-146.1-119.66-151.67,0,0-35.45-85.66-36.23-98.11,0,0-49.03-133.08-79.38-160.31,0,0-31.91-81.71-42.02-120.62l-59.92-92.61s2.33-70.04,86.38-55.25c0,0,112.84,54.48,139.3,132.3l100.39,181.33s36.58,39.69,49.81-10.12c0,0,35.02-88.72,30.35-180.55,0,0-2.33-80.16,0-104.28,0,0-28.79-225.68-35.02-231.13l-3.89-130.74s-29.57-147.86,1.56-235.8c0,0,57.59-69.26,106.62-2.33,0,0,30.35,36.58,33.46,168.1,0,0,7.78,94.16,24.9,131.52,0,0,26.46,90.27,21.01,114.4l22.57,115.95s43.58,70.82,66.93,1.56l2.52-166.39s-12.16-72.94,8.1-174.25c0,0,9.12-99.28,5.07-115.49,0,0,3.04-155.01,24.31-184.39,0,0,39.13-50.63,91.54-27.01,0,0,39.74,14.97,39.16,69.69l-5.76,207.92,2.3,67.39s14.4,120.95.58,176.24l.23,140.55s-1.6,38.34,21.56,45.52c0,0,21.56,15.17,30.35-31.15l15.17-83.86s21.56-112.61,30.35-134.18c0,0,33.54-130.18,32.75-164.53,0,0,13.58-123.8,22.36-132.58,0,0,31.95-73.48,102.23-27.95,0,0,35.94,31.95,22.36,83.86l-19.97,150.95-15.17,113.41-4.79,79.87-32.75,131.78-11.98,89.45s-8.79,25.56,19.17,40.73c0,0,26.36,15.17,44.73-33.54l34.06-75.41s62.13-108.86,69.32-143.78c0,0,32.86-132.48,72.91-156.1,0,0,65.73-26.7,74.97,42.11,0,0,1.54,66.75-21.57,131.45l-27.21,68.29-27.73,89.86-59.05,131.97s-22.29,48.46-24.67,95.96c0,0-24.54,79.95-22.96,94.99l-21.37,142.49s-17.42,127.45-53.04,211.36c0,0-49.87,100.53-43.54,121.12,0,0-11.08,53.04,6.33,91.83,0,0,4.75,51.45-8.71,76.79l-3.17,79.16-513.38,3.61Z" mask="url(#finger-mask)"/>
      <path class="detail-line"  d="M844.49,795.51s19.33,94.48,37.58,106.29c0,0,16.11,22.55,27.92,46.17"/>
      <path class="detail-line"  d="M894.23,957.26s23.97,31.41,14.05,76.05"/>
      <path class="detail-line"  d="M803.3,861.37s9.09,66.96.83,92.59c0,0-11.57,47.12,22.32,95.89,0,0,32.24,45.47,49.6,112.43,0,0,48.77,162.85,42.99,174.43,0,0,18.19,95.07,2.48,161.2"/>
      <path class="detail-line"  d="M796.46,1352.49s24.53,70.09,14.02,115.66c0,0-12.46,32.67,13.28,70.16"/>
      <path class="detail-line"  d="M581.33,1338.89s29.95,25.9,63.14,36.43c0,0,22.67,31.57,22.67,42.09,0,0,20.38,22.77,33.22,26.65s30.46,32.56,30.46,32.56c0,0,37.69,56.16,56.56,59.53,0,0,47.23,6.54,60.98,20.56,0,0,18.42,3.02,36.02,65.99"/>
      <path class="detail-line"  d="M776.1,1591.09s78,23.4,100.75,126.1l7.8,48.75s11.7,22.1,22.1,39l1.3,27.95"/>
      <polyline class="detail-line"  points="983.45 1580.69 1019.2 1680.79 1021.8 1765.94 1028.95 1840.69 1027 1917.4"/>
      <path class="detail-line"  d="M828.34,1017.8s-2.25-9,23.62-19.12"/>
      <path class="detail-line"  d="M900.33,1048.18s-6.75,27.56,18.56,109.12"/>
      <path class="detail-line"  d="M977.95,1093.74s-11.25,41.06-20.81,51.75c0,0-28.68,45-20.81,80.43l27,105.74,37.12,92.8,6.19,20.25"/>
      <path class="detail-line"  d="M1009.45,1458.2s13.5,93.93,28.12,107.43"/>
      <path class="detail-line"  d="M1034.47,1540.38s-17.18-49.16,10.66-134.45c0,0,17.18-83.51,9.48-113.12l-6.52-180.05"/>
      <path class="detail-line"  d="M1039.21,1073.66s-33.17-94.76-14.21-122.01"/>
      <path class="detail-line"  d="M1011.97,962.91s15.99-68.7,21.32-75.22c0,0,14.81-71.07,4.74-73.44"/>
      <path class="detail-line"  d="M1092.58,753.34s-2,115.9,21.98,163.86c0,0,23.98,74.93-4,118.9,0,0-12.99,54.95-9.99,82.93l-5.99,172.85s6.99,94.92,14.99,118.9c0,0,16.99,73.93,13.99,81.93"/>
      <path class="detail-line"  d="M1141.53,1158.98s14.99,56.95,34.97,72.94c0,0,22.98,31.97,11.99,75.93,0,0-5.99,65.94-14.99,69.94"/>
      <path class="detail-line"  d="M1233.45,972.14s-27.98,53.95-20.98,93.92c0,0,8.99,53.95,3,89.92,0,0-14.99,76.93-19.98,76.93"/>
      <path class="detail-line"  d="M1289.4,1059.07s-5,33.97-29.97,71.94l-30.97,128.89s-27.98,175.85-20.98,202.82"/>
      <path class="detail-line"  d="M1310.38,831.27s-26.98,106.91-16.99,150.87l1,45.96s-5.99,25.98-21.98,46.96"/>
      <path class="detail-line"  d="M1336.36,949.16s5.99,62.94,14.99,68.94"/>
      <path class="detail-line"  d="M1432.28,976.14s-9.99,60.95-64.94,92.92"/>
      <path class="detail-line"  d="M1471.24,1009.11s-25.98,72.94-22.98,103.91c0,0-12.99,53.95-57.95,121.89,0,0-65.94,141.88-62.94,150.87l-29.97,99.91"/>
      <path class="detail-line"  d="M1374.41,1094.57s-26.95,29.95-19.07,95.39l-30.97,107.91s-38.97,118.9-64.94,149.87"/>
      <path class="detail-line"  d="M1351.21,1124.04s12.54-26.96,23.2-29.47"/>
      <line class="detail-line"  x1="1335.45" y1="1585.45" x2="1356.06" y2="1668.99"/>
      <path class="detail-line"  d="M1332.19,1692.86s14.1,66.18,23.87,70.52"/>
      <path class="detail-line"  d="M1262.76,1497.58c-1.08,3.25-53.16,68.35-56.41,68.35"/>
      <path class="detail-line"  d="M1215.03,1513.85s-2.17,86.79-54.24,158.39c0,0-39.06,57.5-24.95,100.89,0,0-18.44,57.5-13.02,65.09l-2.17,68.35"/>
      <path class="detail-line"  d="M1204.44,1696.08s-26.38,36.41-52.24,58.57l-24.27,43.79"/>
    </g>
  </g>
    <g id="Layer_3_Interactive" data-name="thumb" >
    <g>
      <path id="thumb" class="muscle"  d="M556.46,1376.37s82.47-50.65,105.85-100.65c0,0,48.05-85.72,44.81-100.65,0,0-36.36,26.62-59.09-29.87,0,0-92.21-180.52-112.34-200.65,0,0-86.36-100-131.17-92.86,0,0-48.05-5.19-66.23,35.07,0,0-6.49,20.78,7.14,39.61l45.46,69.48s36.36,91.56,35.07,100.65c0,0,38.31,65.59,44.16,71.43l37.01,77.92s12.34,63.64,26.62,92.86,22.73,37.66,22.73,37.66Z"/>
      <line class="detail-line"  x1="583.77" y1="1029.79" x2="560.6" y2="1031.45"/>
      <path class="detail-line"  d="M511.46,1062.57s-5.13,46.8-52.88,71.47"/>
      <path class="detail-line"  d="M440.31,1109.36s34.94-26.28,37.18-34.94"/>
      <line class="detail-line"  x1="489.35" y1="1078.27" x2="481.97" y2="1085.65"/>
      <path class="detail-line"  d="M445.44,1075.71s38.78-41.67,57.69-41.35"/>
      <path class="detail-line"  d="M393.19,996.54s9.94,8.01,30.45-14.42c0,0,25.96-23.72,16.03-41.03,0,0-13.78-34.29-27.88-51.28,0,0-10.9-21.15-35.26-15.06,0,0-23.85.54-36.14,18.98,0,0-6.38,8.28,4.26,24.83l46.1,71.88,2.45,6.11Z"/>
      <path class="detail-line"  d="M394.05,992.08s1.77-41.38,44.69-35.7"/>
    </g>
  </g>
    <g id="Layer_4_Interactive" data-name="index" >
    <g>
      <path id="index" class="muscle"  d="M898.14,755.15c-70.48,75.6-166.58,33.32-166.58,33.32,0,0-19.39-125.91-23.8-127.17,0,0-8.82-100.18-5.67-134.83l-9.45-81.27s-8.08-109.91-1.43-127.89c0,0,1.56-63.72,57.07-73.1,0,0,37.98-11.79,61.79,27.13,0,0,26.16,45.57,28.9,101.86l11.34,126.26,22.48,95.19,18.09,103.52,7.27,56.97Z"/>
      <path class="detail-line"  d="M766.76,698.18s28.69,12.47,61.12-11.85"/>
      <path class="detail-line"  d="M748.43,680.79s54.82,22.94,94.75-21.15"/>
      <path class="detail-line"  d="M775.84,660.53s32.77,1.49,52.74-17.28"/>
      <path class="detail-line"  d="M747.53,650.7s33.37-12.81,40.22-12.81c0,0,14.3-4.47,21.45-8.94"/>
      <path class="detail-line"  d="M739.79,634.61s63.76-62.57,100.11-14.6"/>
      <path class="detail-line"  d="M757.37,595.28s20.56-8.94,32.18-10.13"/>
      <path class="detail-line"  d="M727.07,452.32s31.25-24.51,82.72-12.26"/>
      <path class="detail-line"  d="M754.03,460.9s29.41-1.23,47.8-10.42"/>
      <path class="detail-line"  d="M709.68,286.26s19.85-38.86,63.47-29.36c0,0,26,2.8,29.36,28.52l1.4,48.37s-1.68,30.2-45.3,29.92c0,0-26.56,5.31-36.91-19.01,0,0-16.78-43.9-12.02-58.44Z"/>
      <path class="detail-line"  d="M732.32,356.16s29.92-25.44,64.87-10.07"/>
    </g>
  </g>
    <g id="Layer_5_Interactive" data-name="middle" >
    <g>
      <path id="middle" class="muscle"  d="M983.83,744.62s88.39,33.9,161.04-7.27l10.9-165.89s-21.8-210.69-13.32-210.69l7.96-158.6s-3.27-75.64-72.92-70.75c0,0-65.3-2.72-73.47,89.79,0,0-13.24,86.83-8.16,154.9l-2.54,61.7-12.72,106.86s-6.36,46.44,0,124.68l3.23,75.25Z"/>
      <path class="detail-line"  d="M1013.5,604.81s53.73,48.8,105.49,9.86"/>
      <path class="detail-line"  d="M1041.6,591.5s24.16,8.38,33.52,7.89c0,0,27.11,4.93,38.94-6.9"/>
      <path class="detail-line"  d="M1013.99,585.59s38.94-10.85,65.07-4.93"/>
      <path class="detail-line"  d="M1019.42,555.03s46.83-26.13,98.59,6.9"/>
      <path class="detail-line"  d="M1054.91,362.28s22.18,10.35,49.79,2.96"/>
      <path class="detail-line"  d="M1029.77,344.53s17.25-2.96,49.3,6.41c0,0,16.27,4.93,36.97-2.46"/>
      <path class="detail-line"  d="M1047.52,326.78s31.55-3.45,53.24,6.9"/>
      <path class="detail-line"  d="M1030.83,168.77s51.75-50.73,99.09,1.01c0,0,.68,71.02-12.51,76.43,0,0-32.47,27.06-73.05-1.69,0,0-.57-.81-1.46-2.31-3.35-5.62-11.25-20.94-10.71-39.63l-1.35-33.82Z"/>
      <path class="detail-line"  d="M1115.28,244.67s-35.54-22.44-70.25-3.06"/>
    </g>
  </g>
    <g id="Layer_6_Interactive" data-name="ring" >
    <g>
      <path id="ring" class="muscle"  d="M1208.99,760.01s59.23,83.69,149.36,47.64l27.39-119.88s10.52-171.9,22.8-210.49l17.54-132.14s11.11-59.64-39.17-84.78c0,0-57.89-28.07-87.7,35.08l-18.71,117.52-12.28,85.95-22.22,89.46-21.63,82.44-15.38,89.19Z"/>
      <path class="detail-line"  d="M1254.19,702.39s27.48,35.08,78.93,28.65"/>
      <path class="detail-line"  d="M1256.94,661.41s45.59-19.23,87.95,15.77"/>
      <path class="detail-line"  d="M1264.93,677.61l12.53,1.3s15.77,10.16,25.07,12.32"/>
      <path class="detail-line"  d="M1288.92,696.63s15.77,14.05,53.59,12.75"/>
      <path class="detail-line"  d="M1318.09,469.95s21.18,11.45,46.89,12.1"/>
      <path class="detail-line"  d="M1320.03,357.16s25.71,35.87,65.47,13.4c0,0,19.88-21.18,23.12-71.96,0,0-15.56-29.6-54.45-27.23,0,0-23.77.65-33.06,12.1s-1.08,73.69-1.08,73.69Z"/>
      <path class="detail-line"  d="M1322.84,358.24s34.14-9.29,59.42,11.67"/>
      <path class="detail-line"  d="M1310.53,460.23s39.33-6.91,65.26,11.67"/>
    </g>
  </g>
    <g id="Layer_7_Interactive" data-name="pinky" >
    <g>
      <path id="pinky" class="muscle"  d="M1401.56,921.84s32.08,58.32,122.47,72.9c0,0,59.71-128.12,67.5-148.16,0,0,23.38-93.5,40.07-116.88,0,0,38.96-114.65,23.38-154.72,0,0-17.29-47-71.74-26.97,0,0-30.82,11.81-59.07,98.1l-23.59,79.01-31.55,70.22-32.56,54.95-34.91,71.54Z"/>
      <path class="detail-line"  d="M1473.34,866.29s19.4,45.59,65.96,47.53"/>
      <path class="detail-line"  d="M1488.96,853.47s24.15,25.98,56.72,31.83"/>
      <path class="detail-line"  d="M1497.37,854.93s8.78,16.1,20.49,18.66"/>
      <path class="detail-line"  d="M1486.4,834.07s28.91-9.88,61.84,24.88"/>
      <path class="detail-line"  d="M1545.31,726.86s41.35,16.47,44.64,20.86"/>
      <path class="detail-line"  d="M1564.33,716.62s24.15,10.61,25.25,12.81"/>
      <path class="detail-line"  d="M1573.02,622.44s13.56,34.29,49.97,23.39c0,0,24.98-39.34,25.25-56.35,0,0,1.06-19.67-22.33-27.38,0,0-26.58-9.57-39.34-.27,0,0-15.15,33.22-13.56,60.6Z"/>
      <path class="detail-line"  d="M1576.21,624.3s29.24-2.66,44.12,19.93"/>
    </g>
  </g>
  </g>
  <script>
    <![CDATA[
      const muscles = document.querySelectorAll('.muscle');
      muscles.forEach(m => {
        m.addEventListener('click', (e) => {
          e.stopPropagation();
          m.classList.toggle('selected');
        });
      });
    ]]>
  </script>
</svg>