<?xml version="1.0" encoding="UTF-8"?>
<svg xmlns="http://www.w3.org/2000/svg" viewBox="0 0 1272.91 2748.33">
  <defs>
    <style>
      .muscle {
        fill: #fff;
        stroke: #666;
        stroke-width: 2;
        stroke-miterlimit: 10;
        transition: all 0.2s ease;
        cursor: pointer;
      }
      .muscle:hover:not(.selected) { 
        fill: #00FF00 !important; 
        stroke: #ffffff;
        stroke-width: 3;
      }
      .muscle.selected { 
        fill: #FF0000 !important; 
        stroke: #990000 !important;
        stroke-width: 3;
      }
      .detail-line {
        fill: none;
        stroke: #000;
        stroke-width: 1.5;
        stroke-miterlimit: 10;
        pointer-events: none;
        stroke-opacity: 0.4;
      }
    </style>
    <mask id="finger-mask">
      <rect x="0" y="0" width="1272.91" height="2748.33" fill="white" />
      <path d="M1002.49,1118.87l114.26,97.42s63.42-194.86,72.34-200.96l33.1-113.13s45.97-96.68,44.51-165.63c0,0-3.65-62.38-51.8-52.17,0,0-31.37-1.46-56.18,65.67l-34.29,103.61s-21.89,64.21-62.02,142.28c0,0-33.56,86.1-39.4,106.53,0,0-5.26,13.8-20.5,16.39Z" fill="black" />
      <path d="M839.39,1023.61l31.36,21.42,82.35,28.85,23.6,30.95s0-70.29,7.34-97.56l35.29-158.7s7.53-97.41,6.53-115.49c0,0,15.06-119,17.57-119,0,0,17.07-91.89,10.04-138.08,0,0-19.08-75.32-83.85-46.7,0,0-32.64,13.06-39.17,106.95,0,0-9.04,75.32-9.54,85.36,0,0-25.61,165.7-47.2,209.38,0,0-9.04,73.81-13.56,98.92,0,0-8.4,95.52-20.77,93.7Z" fill="black" />
      <path d="M665.02,1010.27s16.27-1.56,14.1-93.71c0,0-5.42-160.44-2.71-163.69,0,0,8.67-120.87,13.01-120.87,0,0,11.38-149.05,11.38-181.03,0,0,10.3-84.55,21.68-89.97,0,0,21.68-44.45,66.13-33.06,0,0,41.19,4.34,42.28,54.74,0,0,1.63,104.61-6.5,149.6,0,0-3.79,112.74-.54,144.72,0,0,7.05,89.43,2.71,102.98,0,0-2.17,87.26-8.67,132.25,0,0-6.5,69.92-4.34,84.55l8.45,18.95s-17.06-15.01-49.12-9.21c0,0-37.86,2.39-55.94-3.75,0,0-21.15-4.43-34.11.34l-14.84,4.21" fill="black" />
      <path d="M635.42,1003.39l-163.15,58.5s-14.75-223.97-25.41-247.65c0,0,1.78-181.14-10.06-219.03,0,0-.59-108.33,7.1-118.99,0,0,11.84-55.05,55.65-50.32,0,0,44.4-4.14,53.87,65.12l12.43,62.16,5.33,81.1s7.1,101.23,24.86,150.36l20.13,133.19s-.88,17.77,1.09,37.34c1.97,19.58,6.78,40.97,18.17,48.21Z" fill="black" />
      <path d="M354.41,1322.09s-33.24-19.21-50.47-57.98c0,0-44.51-73.98-54.95-82.13,0,0,2.61-49.26-50.57-104.72,0,0-68.29-80.21-114.48-79.56,0,0-46.05-2.09-52.11,35.51,0,0,10.72,46.84,34.68,86.09,0,0,27.02,66.79,28.04,100.94,0,0-7.14,16.82,58.12,99.92l38.24,77.49s27.53,87.69,33.14,94.31c0,0,29.98,44.91,94.12,116.45,0,0-38.36-49.79,34.69-181.29l52.6-56.5s3.9-38.96,9.74-40.91c0,0-43.63,10.08-60.78-7.63Z" fill="black" />
    </mask>
  </defs>
<g id="Layer_2_Interactive" data-name="palm" >
    <g>
      <path id="palm" class="muscle"  d="M950.05,2128.32s-200.56,89.34-443.06,0c0,0-.64-280.85-52.6-345.42-51.96-64.56-151.89-188.46-205.21-260.02,0,0-29.47-19.64-43.5-89.8,0,0-33.68-96.82-101.03-190.83,0,0-10.03-30.68-21.55-78.7,0,0-47.06-104.69-48.98-118.13,0,0-11.81-50.47,54.15-46.83,0,0,58.68-2.73,129.18,104.62,0,0,30.48,40.48,29.11,71.87,0,0,58.22,80.97,76.87,119.63,0,0,58.22,78.24,88.7,4.09,0,0,38.2-59.67,45.89-129.43,0,0,32.31-91.98-6.26-329.12,0,0-7.71-237.78-15.4-255.52,0,0-14-179.2,70.03-159.67,0,0,23.16,3.18,39.06,36.79,0,0,24.98,78.12,22.26,128.99l5.49,90.49,27.02,137.74,21.42,163.49s32.15,70.23,60.08-7.62c0,0-8.71-214.68-1.61-254.45,0,0,20.59-156.92,18.46-188.87,0,0-2.13-174.67,45.44-195.26,0,0,82.36-49.7,88.04,62.48,0,0-14.91,200.94-12.07,208.75,2.84,7.81,3.55,127.8,7.1,139.17,0,0,.71,109.34-13.49,208.04,0,0-3.55,34.08,2.84,51.12,0,0,17.04,46.86,38.34-12.07,0,0,9.23-143.43,24.14-174.67,0,0,43.31-163.31,47.57-244.96,0,0,12.07-144.14,39.76-142.72,0,0,71.71-42.6,90.88,66.74,0,0-14.2,156.21-24.14,187.45,0,0-13.49,150.53-17.04,166.15,0,0-19.17,126.38-41.18,186.74l-.71,44.73s.71,54.67,48.99,18.46c0,0,40.47-118.57,53.25-130.64,0,0,54.67-110.76,49.7-124.25,0,0,43.69-150.05,70.18-155.86,0,0,65.26-34.89,70.43,43.94,0,0-3.88,75.6-38.12,158.95,0,0-62.03,202.24-100.15,282.36,0,0-4.52,34.25-12.92,43.94,0,0-3.96,32.1-8.77,66.85-.34,2.44-.68,4.89-1.02,7.34-4.87,34.65-10.36,69.86-13.47,77,0,0-30.89,237.34-76.16,320.16,0,0-39.73,74.4-54.85,124.8-.49,1.62-.95,3.22-1.38,4.79-1.49,5.4-2.65,10.46-3.4,15.06,0,0-3.85,7.06-8.07,24.11-5.36,21.67-11.32,59.48-10.7,119.44l12.45,148.54Z" mask="url(#finger-mask)"/>
      <path class="detail-line"  d="M1045.76,1237.77s50.24,17.1,61.99,64.13"/>
      <path class="detail-line"  d="M957.28,1821.72s-70.87,49.84-141.35-2.73c0,0-41.72-25-65.88-138.14,0,0-15.25-35.59,40.68-103.6l72.46-90.25s66.74-110.59,73.73-109.96c0,0,27.33-50.21,76.27-47.03,0,0,42.9-2.34,78.97,41.42"/>
      <path class="detail-line"  d="M647.3,1079.34s28.35,69.18,96.4,124.76c0,0,65.78,68.05,256.32,124.76"/>
      <path class="detail-line"  d="M466.97,1192.75s56.71-14.74,172.39,57.84c0,0,122.49,71.45,122.49,74.85s103.21,83.93,100.94,100.94"/>
      <path class="detail-line"  d="M465.83,1172.34s150.84,17.01,241.58,382.21c0,0,54.44,163.32-46.5,225.7,0,0-90.93,58.62-206.52,2.66"/>
      <path class="detail-line"  d="M403.45,1374.22s193.94,35.16,314.16,248.38"/>
      <path class="detail-line"  d="M481.71,1230.18s-52.17,56.71-60.11,56.71"/>
      <line class="detail-line"  x1="520.27" y1="1265.34" x2="403.45" y2="1331.12"/>
      <path class="detail-line"  d="M491.92,1351.53s-39.7-24.95-75.99-18.15"/>
      <path class="detail-line"  d="M763.82,1472.24s-2.45,80.84,0,88.19,4.9,44.1,4.9,44.1"/>
      <path class="detail-line"  d="M940.2,1904.63s-63.69,53.9-167.81,25.72c0,0-86.97-14.7-110.24-6.12"/>
      <path class="detail-line"  d="M493.11,1874s19.6,39.2,149.44,47.77"/>
      <path class="detail-line"  d="M944.65,1863.34s-60.85,38.48-144.85-3.98c0,0-66.46-48-122.77-28.62,0,0-72.93,33.23-153.24,11.08,0,0-25.85-6.46-47.08-19.39"/>
    </g>
  </g>
<g id="Layer_3_Interactive" data-name="pinky" >
    <g>
      <path id="pinky" class="muscle"  d="M1002.49,1118.87l114.26,97.42s63.42-194.86,72.34-200.96l33.1-113.13s45.97-96.68,44.51-165.63c0,0-3.65-62.38-51.8-52.17,0,0-31.37-1.46-56.18,65.67l-34.29,103.61s-21.89,64.21-62.02,142.28c0,0-33.56,86.1-39.4,106.53,0,0-5.26,13.8-20.5,16.39Z"/>
      <path class="detail-line"  d="M1221.63,893.51s-81.77-18.49-95.27-46.22"/>
      <path class="detail-line"  d="M1188.57,868.98s-41.95-18.49-56.52-14.93"/>
      <path class="detail-line"  d="M1083.45,973.04s23.83-.85,71.91,33.19"/>
      <path class="detail-line"  d="M1079.62,979.85s2.13,5.11,17.02,3.83"/>
      <path class="detail-line"  d="M1086,988.36s18.3,31.06,83.4,42.55"/>
      <path class="detail-line"  d="M1070.33,1152.37s-37.27-13.77-44.83-56.17"/>
      <path class="detail-line"  d="M1062.5,1154.26s15.39,21.2,62.11,36.73"/>
      <path class="detail-line"  d="M1137.91,1014.74s22.98,10.64,30.64,10.64"/>
    </g>
  </g>
<g id="Layer_4_Interactive" data-name="ring" >
    <g>
      <path id="ring" class="muscle"  d="M839.39,1023.61l31.36,21.42,82.35,28.85,23.6,30.95s0-70.29,7.34-97.56l35.29-158.7s7.53-97.41,6.53-115.49c0,0,15.06-119,17.57-119,0,0,17.07-91.89,10.04-138.08,0,0-19.08-75.32-83.85-46.7,0,0-32.64,13.06-39.17,106.95,0,0-9.04,75.32-9.54,85.36,0,0-25.61,165.7-47.2,209.38,0,0-9.04,73.81-13.56,98.92,0,0-8.4,95.52-20.77,93.7Z"/>
      <path class="detail-line"  d="M966.92,1049.17s-26.23,0-42.63-13.66c0,0-23.5-10.93-35.52-11.48,0,0-27.87,1.09-34.43-9.84"/>
      <path class="detail-line"  d="M898.06,832.2s34.86,40.39,121.27,16.37"/>
      <line class="detail-line"  x1="992.06" y1="842.04" x2="1010.64" y2="851.87"/>
      <path class="detail-line"  d="M1011.74,859.53s-7.65-2.19-7.1-7.65"/>
      <path class="detail-line"  d="M925.38,828.37s-44.82-7.1-48.09-6.56"/>
      <path class="detail-line"  d="M1004.63,835.48s-46.46-35.52-115.32-20.22"/>
      <path class="detail-line"  d="M1037.97,643.1s-68.51,18.23-117.05-21.49"/>
      <path class="detail-line"  d="M956.54,630.53s42.08,16.4,55.2,16.4"/>
    </g>
  </g>
<g id="Layer_5_Interactive" data-name="middle" >
    <g>
      <path id="middle" class="muscle"  d="M665.02,1010.27s16.27-1.56,14.1-93.71c0,0-5.42-160.44-2.71-163.69,0,0,8.67-120.87,13.01-120.87,0,0,11.38-149.05,11.38-181.03,0,0,10.3-84.55,21.68-89.97,0,0,21.68-44.45,66.13-33.06,0,0,41.19,4.34,42.28,54.74,0,0,1.63,104.61-6.5,149.6,0,0-3.79,112.74-.54,144.72,0,0,7.05,89.43,2.71,102.98,0,0-2.17,87.26-8.67,132.25,0,0-6.5,69.92-4.34,84.55l8.45,18.95s-17.06-15.01-49.12-9.21c0,0-37.86,2.39-55.94-3.75,0,0-21.15-4.43-34.11.34l-14.84,4.21"/>
      <path class="detail-line"  d="M685.33,963.6s13.08,8.62,41.32,5.65c0,0,38.95-5.35,68.97,10.7l8.92-.89"/>
      <path class="detail-line"  d="M684.65,759.73s53.58,31.63,143.98,4.25"/>
      <line class="detail-line"  x1="727.85" y1="755.01" x2="677.34" y2="756.9"/>
      <path class="detail-line"  d="M821.32,759.26s-44.37-9.44-55.7-6.61"/>
      <path class="detail-line"  d="M812.82,735.19s-47.21-28.32-120.85,2.36"/>
      <path class="detail-line"  d="M696.69,528.42s65.14,24.08,127.46,8.03"/>
      <path class="detail-line"  d="M811.4,535.03s-36.35-13.69-84.97-7.55"/>
    </g>
  </g>
<g id="Layer_6_Interactive" data-name="index" >
    <g>
      <path id="index" class="muscle"  d="M635.42,1003.39l-163.15,58.5s-14.75-223.97-25.41-247.65c0,0,1.78-181.14-10.06-219.03,0,0-.59-108.33,7.1-118.99,0,0,11.84-55.05,55.65-50.32,0,0,44.4-4.14,53.87,65.12l12.43,62.16,5.33,81.1s7.1,101.23,24.86,150.36l20.13,133.19s-.88,17.77,1.09,37.34c1.97,19.58,6.78,40.97,18.17,48.21Z"/>
      <path class="detail-line"  d="M479.42,1031.49s30.19,3.55,71.04-20.72c0,0,40.25-30.19,49.73-26.05l17.07-29.55"/>
      <path class="detail-line"  d="M624.74,1003.81s-24.06,4.31-29.09,7.9"/>
      <line class="detail-line"  x1="592.78" y1="1002.02" x2="529.22" y2="1021.05"/>
      <path class="detail-line"  d="M588.71,798.44s-49.96,23.11-78.06,24.36c0,0-51.21-4.37-53.71,0"/>
      <path class="detail-line"  d="M585.59,783.45s-53.71-15.61-113.66,17.49"/>
      <path class="detail-line"  d="M495.66,632.94s-37.47,0-49.34,10.62"/>
      <path class="detail-line"  d="M562.49,622.95s-50.59-16.24-91.18,7.49"/>
    </g>
  </g>
<g id="Layer_7_Interactive" data-name="thumb" >
    <g>
      <path id="thumb" class="muscle"  d="M354.41,1322.09s-33.24-19.21-50.47-57.98c0,0-44.51-73.98-54.95-82.13,0,0,2.61-49.26-50.57-104.72,0,0-68.29-80.21-114.48-79.56,0,0-46.05-2.09-52.11,35.51,0,0,10.72,46.84,34.68,86.09,0,0,27.02,66.79,28.04,100.94,0,0-7.14,16.82,58.12,99.92l38.24,77.49s27.53,87.69,33.14,94.31c0,0,29.98,44.91,94.12,116.45,0,0-38.36-49.79,34.69-181.29l52.6-56.5s3.9-38.96,9.74-40.91c0,0-43.63,10.08-60.78-7.63Z"/>
      <path class="detail-line"  d="M74.18,1132.72s12.83-7.22-4.01-40.09l-17.64-41.7-20.71-17.73"/>
      <path class="detail-line"  d="M248.99,1181.97s-61.74,22.11-62.55,46.97"/>
      <path class="detail-line"  d="M248.19,1195.26s-20.85,44.9-90.61,48.11"/>
      <path class="detail-line"  d="M193.61,1228.52s-15.36,14.61-19.85,14.98"/>
      <path class="detail-line"  d="M264.71,1376.83s28.2-6.07,60.35-80.06"/>
      <path class="detail-line"  d="M354.41,1322.09s7.14,48.62,51.04,48.54"/>
      <path class="detail-line"  d="M352.85,1427.12s12.18-54.13,8.09-86.05"/>
    </g>
  </g>
  <script>
    <![CDATA[
      const muscles = document.querySelectorAll('.muscle');
      muscles.forEach(m => {
        m.addEventListener('click', (e) => {
          e.stopPropagation();
          m.classList.toggle('selected');
        });
      });
    ]]>
  </script>
</svg>