<?xml version='1.0' encoding='UTF-8'?>
<svg xmlns="http://www.w3.org/2000/svg" viewBox="0 0 1168 912">
  <defs>
    <style>
      .muscle {
        fill: #fff; 
        stroke: #000;
        stroke-width: 1;
        stroke-miterlimit: 10;
        transition: all 0.2s ease;
        cursor: pointer;
      }
      .muscle:hover:not(.selected) { 
        fill: #00FF00 !important; 
        stroke: #000;
        stroke-width: 2;
      }
      .muscle.selected { 
        fill: #FF0000 !important; 
        stroke: #500 !important;
        stroke-width: 2;
      }
      
      .detail-line {
        fill: none !important; 
        stroke: #000;
        stroke-width: 1.2; 
        stroke-miterlimit: 10;
        pointer-events: none;
        stroke-opacity: 1;
      }
      .static-part {
        fill: #fff;
        stroke: #000;
        stroke-width: 1;
        stroke-miterlimit: 10;
        pointer-events: none;
      }
</style></defs>
  <g id="Layer_2" data-name="Layer 2">
    <path d="M831.68,744.26c-5.2-25.58-34.91-54.73-34.91-54.73-59.45-56.62-57.09-129.98-57.09-129.98-.94-100.26,17.93-124.56,17.93-124.56,8.96-17.46,31.61-76.9,31.61-76.9,22.65-41.99,21.9-106.74,21.9-106.74-2.35-51.05-18.81-81.27-18.81-81.27-9.07-25.52-27.54-44-27.54-44-9.74-10.75-45.67-36.94-45.67-36.94-36.61-26.87-100.36-39.83-100.36-39.83-42.95-11.17-101.22-8.5-101.22-8.5-78.8,1.2-143.8,46.15-143.8,46.15-58.17,38.87-62.58,57.2-62.58,57.2-7.44,10.48-19.63,54.54-19.63,54.54-12.86,37.87-7.72,61.29-7.72,61.29,3.9,9.98,5.07,29.9,5.07,29.9,5.62,32.48-62.35,103.3-62.35,103.3-20.72,26.69,19.86,38.57,19.86,38.57,18.14,3.45,18.19,8.19,18.19,8.19,8.57,14.1-1.43,41.4-1.43,41.4-7.85,20.52,22.48,26.05,22.48,26.05l-3.57,1.95c-28.17,16.31-1.11,30.77-1.11,30.77,18.54,15.2,5.56,38.92,5.56,38.92-7.78,27.06,16.31,31.88,16.31,31.88,7.41,6.3,81.55,7.25,81.55,7.25,21.43.46,42.87,14.59,42.87,14.59,30.1,27.82,56.09,123.59,56.09,123.59,16.87,56.55-18.24,93.94-18.24,93.94l296.56-1.21s90.9-2.21,70.04-104.84Z" class="static-part" />
  </g>
  <g id="Layer_8" data-name="Layer 8">
    <path d="M332.4,281.7s63.66-.4,63.27,66.03" class="static-part" />
    <path d="M387.75,334.37s17.2,35.31-10.98,52.99c0,0-46.03,27.88-66.17-14.46,0,0-7.27-10.63-6.71-28.16" class="static-part" />
    <path d="M375.7,359.11s-6.53,14.18-25.93,18.09" class="static-part" />
    <path d="M347.45,371.13s-30.66,3.37-21.94-20.25c0,0,13.5,2.25,20.53-1.97l15.47-5.91,2.78.53s-27.89-18.94-41.38-17.64c0,0-1.95-9.6,14.01-8.04,0,0,20.37,5.06,24.39,8.3,0,0,12.32,9.86,12.97,18.42" class="static-part" />
    <path d="M327.67,326.97s-4.96,12.57.55,22.83" class="static-part" />
    <path d="M355.86,303.02s-31.82-13.12-42.43-3.07c0,0-3.35,16.47,5.3,12.56,0,0,3.35-5.02,26.52-6.14" class="static-part" />
    <path d="M248.9,424.2s10.68-1.5,14.43,1.31c0,0,6.18,2.62,8.99,6.56" class="static-part" />
    <path d="M238.6,382.23s5.81,7.12,23.23,7.31c0,0,5.43-1.12,16.86,14.05,0,0,2.44,5.62,11.62,11.62,0,0,8.99,7.12,8.62,16.86,0,0-6,17.8-28.85,7.49" class="static-part" />
    <path d="M263.93,379.72s13.85,13.67,16.19,21.95" class="static-part" />
    <path d="M268.43,371.08s16.37,25.37,17.09,37.61" class="static-part" />
    <path d="M264.65,348.59s19.61,31.85,25.01,55.06l.36,10.08" class="static-part" />
    <path d="M296.32,304.86s-21.23,52.36-24.83,53.44l17.99,40.67,6.84-94.11Z" class="static-part" />
    <path d="M296.52,437.9s-.45,13.19,3.87,17.05" class="static-part" />
    <path d="M268.73,455.53s41.92-4.01,58.1,12.94c0,0,24.06,21.94,27.39,27.54" class="static-part" />
    <path d="M267.56,469.72s30.05-3.29,43.43,10.33" class="static-part" />
    <path d="M263.8,483.1s5.63-1.88,12.44,1.41c0,0,18.07,12.44,38.97,16.9,0,0,16.9,8.22,2.82,18.54,0,0-16.58,7.36-28.21,8.24,0,0-9.4,2.62-13.28,7.76" class="static-part" />
    <path d="M314.47,532.01s-17.22,10.06-30.36,10.49" class="static-part" />
    <path d="M339.75,520.31s-4.62,14.88-38.71,21.09" class="static-part" />
    <path d="M285.61,507.4l28.96,2.78c-9.39-2.52-28.44-2.66-28.44-2.66" class="static-part" />
    <path d="M361.29,519.9s11.2,37.94,25.6,49.82" class="static-part" />
    <path d="M375.23,580.01s2.29,15.31,18.28,22.17" class="static-part" />
    <path d="M409.06,573.61s13.48,14.17,24.45,16.68" class="static-part" />
    <path d="M399.23,519.22s18.97,6.4,26.05,19.65" class="static-part" />
    <path d="M290.7,552.62s63.04-3.23,68.48-34.66c0,0,48.6,1.19,62.87-.51" class="static-part" />
    <path d="M400.49,462.89s-31.91,23.59-37.63,37.32c0,0,3.06,5.01,24.33-1.47,0,0,14.65-5.21,17.75-6.34,0,0,8.06-3.43,10.46-3.15s1.41-.78,1.41-.78l-16.32-25.58Z" class="static-part" />
    <path d="M531.74,416.96s-25.07-.99-20.78,21.77c0,0,8.25,53.76,6.6,61.02" class="static-part" />
    <line x1="532.73" y1="479.3" x2="527.46" y2="520.86" class="static-part" />
    <path d="M507.07,695.38s27.02,67.55,39.03,81.06c0,0,30.02,61.55,28.02,71.05" class="static-part" />
    <path d="M506.07,619.82s32.02,56.04,39.53,75.06c0,0,29.02,56.54,39.53,65.05,0,0,26.02,42.53,34.53,47.54,0,0,20.52,35.03,21.02,39.03" class="static-part" />
    <path d="M508.19,546.66s13.21,35.1,29.51,47.97c0,0,62.86,85.66,69.76,89.8,0,0,31.04,35.87,70.36,75.19,0,0,72.43,83.47,87.61,86.92" class="static-part" />
    <path d="M368.69,289.7s8.99-145.73,193.02-142.19c0,0,97.32,17.11,139.2,106.76l8.26,32.44s0,74.32-25.36,117.38" class="static-part" />
    <path d="M690.86,448.11s-24.22-8.32-37.78,19.81l-55.78,200.68,32.04,37.87s41.06-127.35,42.49-133.33c0,0,14.53-48.07,15.83-64.99,0,0,8.85-50.26,3.21-60.03Z" class="static-part" />
    <path d="M528.78,391.89s8.83,29.35,2.15,47c0,0-8.83,24.34-2.86,32.21,0,0,16.46,21.23,37.46-11.21,0,0,11.93-17.18,21.23-24.57,0,0,11.69-14.31,16.94-41.51,0,0,3.34-33.4-13.12-48.19,0,0-13.84-17.66-38.89-10.02,0,0-14.15,3.26-20.37,26.3" class="static-part" />
    <path d="M540.76,405.04s10.42,12.25,1.82,23.71c0,0-1.56,21.36,8.86,9.12,0,0,.78-10.42,13.81-14.33,0,0,16.15-5.99,5.21-30.74,0,0-3.65-6.25-11.98-9.9" class="static-part" />
    <path d="M556.13,401.92s-21.62-8.34-10.16-42.21c0,0,18.76-31,40.9,1.04,0,0,10.16,9.12-1.04,50.02,0,0-3.13,13.03-10.94,19.02l-10.68,12.77" class="static-part" />
  </g>
  <g id="Layer_3" data-name="Layer 3">
    <g>
      <path d="M807.71,228.9s8.44,38.59-7.54,97.69c0,0-4.82,20.5-15.08,37.08,0,0-39.8,42.21-102.21,46.13,0,0,20.58-62.24,23.6-85.15l2.93-34.24s9.05-31.96,29.55-31.05c0,0,20.8,8.14,29.25-11.46,0,0,1.72-3.87,4.61-7.39,3.03-3.69,7.34-6.98,12.28-4.97,0,0,10.37,20.08,22.61-6.63Z" class="muscle" id="head_muscle_1" />
      <path d="M774.41,240.93s6.02,76.7-5.05,96.12" class="detail-line" />
      <path d="M733.44,261.31s8.93,59.32-.39,84.67" class="detail-line" />
      <path d="M794.41,280.25s-3.11,62.14-18.45,89.71" class="detail-line" />
      <path d="M755.19,314.81s-4.27,55.54-14.37,77.29" class="detail-line" />
      <path d="M718.68,326.66s-2.72,39.81-28.55,80.59" class="detail-line" />
    </g>
  </g>
  <g id="Layer_4" data-name="Layer 4">
    <g>
      <path d="M760.43,426.04s-40.93-35.27-67.05,19.59c0,0,1.15,26.91-2.69,58.43,0,0-12.3,63.04-17.3,74.96,0,0-39.98,117.63-39.98,118.78s-2.31,6.92-1.54,11.15c0,0,121.78,133.56,132.79,134.79l5.13,3.11s83.76-8.05,59.44-105.3c0,0-7.96-26.09-48.12-64.62,0,0-35.2-44.85-41.25-97.1,0,0-3.57-24.52-.27-63.02,0,0,1.86-60.8,15.48-79.38l5.34-11.37Z" class="muscle" id="head_muscle_2" />
      <path d="M749.82,420.08s-22.68,73.31-20.39,113.52" class="detail-line" />
      <path d="M713.74,431.73s4.6,61.65-2.68,69.7" class="detail-line" />
      <path d="M708.37,533.6s-11.87,98.8-37.15,161.99" class="detail-line" />
      <path d="M748.2,619s1.15,61.27-3.06,76.97l-11.87,55.53" class="detail-line" />
    </g>
  </g>
  <g id="Layer_5" data-name="Layer 5">
    <path d="M399.44,463.66s40.36-39.35,45.96-51.29c0,0,6.15-5.59,13.61,7.27,0,0,10.44,30.76,22.75,40.64,0,0,32.44,31.51,38.97,49.59,0,0,12.24,25.01,6.34,41.02l-7.02,16.57s-14.93,15.71-40.65,21.2c0,0-15.61,4.05-23.41-2.6,0,0-22.54-23.41-29.19-56.94,0,0-8.38-41.04-16.18-46.82l-11.17-18.65Z" class="muscle" id="head_muscle_3" />
    <line x1="462.63" y1="460.34" x2="441.25" y2="420.17" class="detail-line" />
    <line x1="448.18" y1="460.05" x2="433.15" y2="433.46" class="detail-line" />
    <line x1="431.71" y1="504.56" x2="407.72" y2="458.89" class="detail-line" />
    <path d="M485.47,486.06s32.37,39.59,36.13,74.28" class="detail-line" />
    <line x1="417.26" y1="447.91" x2="436.04" y2="479.41" class="detail-line" />
    <path d="M427.95,437.8s10.69,14.45,10.98,19.94" class="detail-line" />
  </g>
  <g id="Layer_9" data-name="Layer 9">
    <g>
      <path d="M597.94,421.41s42.91-22.29,69.65,23.4l1.38,2.1s-21.24,10.23-30.68,57.17c0,0-34.09,131.11-34.88,132.95s-6.82,28.32-6.82,28.32l-61.74-78.58s19.86-111.74,22.23-112.63c0,0,3.7.27,12.25-15.58,0,0,4.28-6.47,6.87-9.05s19.87-21.22,21.74-28.1Z" class="muscle" id="head_muscle_4_1" />
      <path d="M660.73,439.73s-20.81,26.82-24.05,44.39l-24.97,86.01" class="detail-line" />
      <path d="M620.35,434.96s-4.19,21.71-5.33,23.23c0,0-21.71,60.56-19.81,64.37" class="muscle" id="head_muscle_4_2" />
      <path d="M614.57,487.93s-39.87,106.27-39.04,110.4l-6.61,32.21" class="detail-line" />
      <line x1="559.43" y1="531.85" x2="577.63" y2="448.97" class="detail-line" />
    </g>
  </g>
  <g id="Layer_10" data-name="Layer 10">
    <g>
      <path d="M605.5,393.86s50.52,1.96,75.61-70.07c0,0,17.15-49.4-50.99-112.11,0,0-42.95-32.09-69.12-34.56,0,0-69.62-7.9-115.53,32.09,0,0-25.67,17.77-37.52,56.29,0,0-4.94,29.62-2.47,35.55,0,0,4.44,19.26,12.84,25.67,0,0,7.41,8.89,7.9,31.6,0,0,3.08,11.04,19.84,13.97,0,0,14.22,9.94,30.97,15.78,0,0,22.6,12.27,49.29,3.51,0,0,2.34-2.14-3.51-15.2,0,0-1.75-6.04,5.65-13.05,0,0,3.7-17.34,13.44-25.52,0,0,13.64-13.05,35.84-3.31,0,0,21.04,6.62,27.27,36.04l.49,23.33Z" class="muscle" id="head_muscle_5" />
      <path d="M450.59,268.72s1.15,90.14,19.56,115.07" class="detail-line" />
      <path d="M505.43,251.84s-14.96,120.44-4.99,140.76" class="detail-line" />
      <path d="M497.76,241.11s.77-56,4.6-58.3" class="detail-line" />
      <path d="M550.31,222.69s-16.11,60.6-28,79.4c0,0-13.81,49.86-11.12,65.59l.38,17.64" class="detail-line" />
      <path d="M609.76,256.06s-35.29,62.9-51.4,74.03" class="detail-line" />
      <path d="M645.43,228.45s-16.49,44.11-49.09,72.11" class="detail-line" />
      <path d="M630.09,280.61s-27.62,33.37-58.3,51.01" class="detail-line" />
      <path d="M658.86,329.71s-34.14,28.77-56,32.99" class="detail-line" />
      <path d="M640.83,364.23s26.08-13.42,34.52-25.7" class="detail-line" />
    </g>
  </g>
  <g id="Layer_11" data-name="Layer 11">
    <g>
      <path d="M381.16,82.41s-56.17,35.43-67.18,56.61c0,0-11.52,20.08-17.3,41.81l-11.53,40.08s-4.88,33.85,3.65,46.5c0,0,8.53,11.28,40.71,11,0,0,15.96,0,25.58,3.58l13.6,7.71s7.92-27.33,12.67-42.18c0,0,18.67-37.77,33.74-51.93,0,0,30.94-23.73,38.43-26.98,0,0,7.74-5.85,7.94-22.19,0,0,.2-4.33-3.54-6.89,0,0,3.15-7.88.79-13.98,0,0-5.91-9.06-31.31-19.49,0,0,.98-11.22-9.45-13.19,0,0-8.07-4.73-22.25-4.92,0,0-8.75-.36-14.55-5.53Z" class="muscle" id="head_muscle_6" />
      <path d="M396.1,132.52s24.29-24.3,31.3-26.47" class="detail-line" />
      <path d="M379.16,169.62s24.6-39.53,58.49-54.86" class="detail-line" />
      <path d="M358.95,218.37s-9.08,34.71-10.71,60.35" class="detail-line" />
      <path d="M368.6,247.58s9.57-34.34,30.87-60.58,41.85-44.42,43.75-45.68" class="detail-line" />
      <path d="M331.59,227.31s2.26-68.48,68.52-116.95" class="detail-line" />
      <path d="M357.38,115.81s-31.27,30.41-37.58,55.93c0,0-9.18,21.8-16.92,94.94" class="detail-line" />
    </g>
  </g>
  <g id="Layer_6" data-name="Layer 6">
    <g>
      <path d="M309.7,372.42s10.66,37.22,3.35,87.16c0,0,8.08,3.69,10.83,6.7,0,0,10.44,8.64,20.75,19.21l4.97,4.88,4.19,4.53s5.5-38.19,15.21-49.94c0,0,5.2-9.94,14.24-23.05,0,0,6.83-13.01,6.83-24.01l-1.52-23.03s-4.46,10.51-30.97,20.38c0,0-22.75,2.3-35.45-6.32l-7.95-8.97-4.48-7.54Z" class="muscle" id="head_muscle_7" />
      <path d="M317.51,433.59s10.15-34.73,7.15-38.81" class="detail-line" />
      <path d="M367.04,394.1s-17.7,35.07-31.66,48.18c0,0-8,6.64-9.19,21.45" class="detail-line" />
      <path d="M363.64,416.23s-12.26,31.32-13.45,72.52" class="detail-line" />
      <path d="M389,396.48s-8.51,14.3-8.51,27.07" class="detail-line" />
    </g>
    <g>
      <path d="M309.7,372.42s10.66,37.22,3.35,87.16c0,0,8.08,3.69,10.83,6.7,0,0,10.44,8.64,20.75,19.21l4.97,4.88,4.19,4.53s5.5-38.19,15.21-49.94c0,0,5.2-9.94,14.24-23.05,0,0,6.83-13.01,6.83-24.01l-1.52-23.03s-4.46,10.51-30.97,20.38c0,0-22.75,2.3-35.45-6.32l-7.95-8.97-4.48-7.54Z" class="detail-line" />
      <path d="M317.51,433.59s10.15-34.73,7.15-38.81" class="detail-line" />
      <path d="M367.04,394.1s-17.7,35.07-31.66,48.18c0,0-8,6.64-9.19,21.45" class="detail-line" />
      <path d="M363.64,416.23s-12.26,31.32-13.45,72.52" class="detail-line" />
      <path d="M389,396.48s-8.51,14.3-8.51,27.07" class="detail-line" />
    </g>
  </g>
  <g id="Layer_7" data-name="Layer 7">
    <path d="M290.7,552.62s36.13-2.93,50.79-12.96c0,0,13.6,15.96,8.2,27.27,0,0-4.37,19.03-15.17,31.11,0,0-5.75,10.68-14.23,16.85,0,0-25.93-2.47-31.33-12.76,0,0-7.09-6.75-1.69-25.52,0,0,5.52-9.07,3.43-24Z" class="muscle" id="head_muscle_8" />
  </g>
<script>
      \n    <![CDATA[\nconst muscles = document.querySelectorAll('.muscle');
      muscles.forEach(m => {
        m.addEventListener('click', (e) => {
          e.stopPropagation();
          m.classList.toggle('selected');
        });
      });\n    ]]>\n
</script></svg>