<?xml version='1.0' encoding='UTF-8'?>
<svg xmlns="http://www.w3.org/2000/svg" viewBox="0 0 280.88 459.42">
  <defs>
    <style>
      .muscle {
        fill: #fff;
        stroke: #010101;
        stroke-miterlimit: 10;
        pointer-events: none;
      }
      .detail-line {
        fill: none;
        stroke: #010101;
        stroke-width: .4px;
        stroke-miterlimit: 10;
        pointer-events: none;
      }
      .outline-detail {
        stroke: #010101;
        stroke-width: .5px;
        fill: #fff;
        stroke-miterlimit: 10;
        cursor: pointer;
        transition: all 0.2s ease;
      }
      .outline-detail:hover:not(.selected) {
        fill: #00FF00 !important;
      }
      .outline-detail.selected {
        fill: #FF0000 !important;
      }
    </style>
  </defs>
  <g id="Layer_2" data-name="Layer 2">
    <path class="muscle" d="M102.98,4.09s-5.49,20.38,1.38,33.26c0,0,10.53,34.93,1.17,94.33,0,0-8.07,64.89-18.4,104.6,0,0-7.42,24.21,5.81,38.42l3.73,3.7s3.55,2.05,6.91,7.84c0,0,7.84,13.44,9.15,19.97l10.83,19.79,2.43,12.51-.07,4.39,4.15,6.61s1.88,1.74-.21,9.85c0,0,.83,7.8,2.63,13.35,0,0,3.9,19.95-13.8,8.7,0,0-10.65-10.05-11.7-22.65l.3-9.75s-4.65-4.65-5.25-6.3c0,0-3.9.45-6-.15,0,0-1.28,7.43-.32,24.07.12,2.07-.22,4.15-1,6.07-.68,1.68-1.61,3.78-2.73,5.7,0,0-1.8,4.8-2.1,6.45l-.45,12.75s.15,13.95-1.35,17.4l-.75,26.85-.45,3.45s-7.5,21.3-14.85,0c0,0-.45-8.4.15-11.7,0,0-1.5-8.1-.6-13.95l-.15-10.05s-1.35-7.05-.3-10.05l.15-7.05s-2.85-11.55-4.95-1.05l-.15,16.95-1.2,5.85-.3,18.3-.6,2.55-.9,14.1s-9,22.95-16.05-1.65c0,0-2.25-13.2-1.35-24.75,0,0,.6-8.4-.15-11.85,0,0,.6-20.1.75-21.9l.3-4.35s-1.5-4.95-3.6-.45l-1.05,16.95s.3,3.75-1.2,6.3l-1.5,13.5-.45,17.1s-.9,4.2-1.65,5.4c0,0-6.6,13.2-13.2.45,0,0-2.25-4.05-2.7-13.2,0,0-.3-12.45,1.35-18.6l.9-33.29s-.15-6.45-3-.9c0,0-.9,5.4-2.85,6.9l.3,9.9s-1.05,6-3.3,9.9v7.5s-2.1,6.6-2.1,6.6c0,0,.45,9.3-4.65,10.35,0,0-4.5,1.8-6.3-2.7l-.9-14.25s-.9-3,.45-9.9l1.65-17.25s0-2.25,1.8-8.4c0,0,1.76-25.49,1.22-37.27,0,0-.71-5.35,3.03-12.13,0,0-5.53-31.57,13.2-54.4,0,0-2.5-10.35-.36-16.41,0,0,.36-5.17,1.61-10.35l-.18-10.52-10.35-89.36s0-74.27,6.57-88.55l-.2-4.23s-5.15-16.06,4.7-27.73c0,0,11.67-17.58,7.73-24.55l71.31,3Z" id="arm_model3_part_1" />
    <path class="outline-detail" d="M101.16,18.75l-14.86-.13,1.42,48.85,21.32-.9s-2.84-25.98-4.65-29.08c0,0-5.04-11.11-3.23-18.74Z" id="arm_model3_part_2" />
    <path class="outline-detail" d="M82.92,18.94s-24.57.92-33.74-2.2c0,0,3.85,27.14-3.48,48.23l34.84,1.65s-3.3-29.71,2.38-40.9c0,0,.92-5.32,0-6.79Z" id="arm_model3_part_3" />
    <path class="outline-detail" d="M44.23,16l-14.49-.37s-5.91,11.23-8.08,13.24c0,0-6.54,8.89-2.35,24.48v4.36s-1.51,3.69-1.51,3.69l21.46,2.18s6.75-19.04,4.97-47.58Z" id="arm_model3_part_4" />
    <path class="outline-detail" d="M109.24,72.53l-20.24.55s.53,114.6-14.44,159.07l11.94,6.17s24.28-98.54,22.74-165.79Z" id="arm_model3_part_5" />
    <path class="outline-detail" d="M81.93,72.95l-36.12-1.82s-14.84,55.74-7.79,111.4l6.31,47.13,25.98,1.86s16.17-115.07,11.63-158.56Z" id="arm_model3_part_6" />
    <path class="outline-detail" d="M38.66,69.89h-21.77s-4.2,33.05-3.93,74.76l10.23,93.12,17.31-7.61s-20.41-89.51-1.84-160.28Z" id="arm_model3_part_7" />
    <path class="outline-detail" d="M14.68,412.12v-7.5c2.25-3.9,3.3-9.9,3.3-9.9l-.3-9.9c1.95-1.5,2.85-6.9,2.85-6.9.91-1.78,1.55-2.32,1.99-2.24l.53-4.37c-7.18-1.84-13.47-3.79-17.76-5.78-.33,6.32-.65,11.04-.65,11.04-1.8,6.15-1.8,8.4-1.8,8.4l-1.65,17.25c-1.35,6.9-.45,9.9-.45,9.9l.9,14.25c1.8,4.5,6.3,2.7,6.3,2.7,5.1-1.05,4.65-10.35,4.65-10.35l2.1-6.6Z" id="arm_model3_part_8" />
    <path class="outline-detail" d="M42.08,401.14l1.05-16.95c.49-1.06.96-1.58,1.37-1.78l.3-6.33c-7.46-1.46-14.99-3.04-21.75-4.77l-.68,4.37c1.19-.4,1.27,3.12,1.27,3.12l-.9,33.29c-1.65,6.15-1.35,18.6-1.35,18.6.45,9.15,2.7,13.2,2.7,13.2,6.6,12.75,13.2-.45,13.2-.45.75-1.2,1.65-5.4,1.65-5.4l.45-17.1,1.5-13.5c1.5-2.55,1.2-6.3,1.2-6.3Z" id="arm_model3_part_9" />
    <path class="outline-detail" d="M90.23,383.76l-5.34-.85s-6.94-.97-16.85-2.59v6.92c1.7-1.27,3.32,5.29,3.32,5.29l-.15,7.05c-1.05,3,.3,10.05.3,10.05l.15,10.05c-.9,5.85.6,13.95.6,13.95-.6,3.3-.15,11.7-.15,11.7,7.35,21.3,14.85,0,14.85,0l.45-3.45.75-26.85c1.5-3.45,1.35-17.4,1.35-17.4l.45-12.75c.05-.29.15-.68.28-1.12Z" id="arm_model3_part_10" />
    <path class="outline-detail" d="M68.07,380.36c-6.64-1.09-14.57-2.57-22.69-4.16l-.27,6.26c1.03.2,1.68,2.31,1.68,2.31l-.3,4.35c-.15,1.8-.75,21.9-.75,21.9.75,3.45.15,11.85.15,11.85-.9,11.55,1.35,24.75,1.35,24.75,7.05,24.6,16.05,1.65,16.05,1.65l.9-14.1.6-2.55.3-18.3,1.2-5.85.15-16.95c.52-2.58,1.08-3.83,1.63-4.24v-6.92Z" id="arm_model3_part_11" />
    <path class="outline-detail" d="M85.14,247.14s-32.95-25.17-62.28,2.08c0,0-1.25,5.19-.99,6.97,0,0-2.12,5.34.25,16.54,0,0-18.31,21.32-13.06,54.54,0,0-3.63,5.92-3.09,12.24l-.13,16.28s37.66,18.83,59.05,16.68c0,0-3.28-74.23,8.98-88.21,0,0,8.63-13.97,15.33-15.07,0,0-5.1-5.08-4.05-22.05Z" id="arm_model3_part_12" />
    <path class="outline-detail" d="M101.84,342.6s-3.9.45-6-.15c0,0-1.28,7.43-.32,24.07.12,2.07-.22,4.15-1,6.07-.36.9-.8,1.92-1.3,2.97-2.03.47-14.21,3.05-23.05-.47,0,0-8.96-95.11,22.58-100.51l3.73,3.7s3.55,2.05,6.91,7.84c0,0,7.84,13.44,9.15,19.97l10.83,19.79,2.43,12.51-.07,4.39,4.15,6.61s1.88,1.74-.21,9.85c0,0,.83,7.8,2.63,13.35,0,0,3.9,19.95-13.8,8.7,0,0-10.65-10.05-11.7-22.65l.3-9.75s-4.65-4.65-5.25-6.3Z" id="arm_model3_part_13" />
    
    <path class="detail-line" d="M55.73,289.94s-.46,32.82,22.14,47.48" />
    <path class="detail-line" d="M51.61,290.4s.76,30.53-33.74,32.21" />
    <path class="detail-line" d="M16.02,335.93s4.49,7.54,20.22,6.99c1.68-.06,3.36.14,4.97.62,5.14,1.54,16.2,5.3,19.67,9.97" />
    <path class="detail-line" d="M95.22,353.14s-15.42,5.71-23.75-3.24c0,0-10.18-21.13-33.32-16.81" />
    <path class="detail-line" d="M130.48,351.83s-7.01-2.44-8.53,1.83" />
    <path class="detail-line" d="M85.01,406.06s-7.3,1.16-10.13,0" />
    <path class="detail-line" d="M85.5,434.17s-7.3,1.16-10.13,0" />
    <path class="detail-line" d="M60.43,406.06s-6.47,3.49-10.96-.83" />
    <path class="detail-line" d="M59.77,432.8s-8.97,1.66-9.96,0" />
    <path class="detail-line" d="M36.03,401.91c-1,0-6.14.17-8.3-2.49" />
    <path class="detail-line" d="M11.22,410.25s-7.97,1.49-9.13-1.66" />
    <path class="detail-line" d="M13.24,393.53c-1,0-6.14.17-8.3-2.49" />
    <path class="detail-line" d="M35.14,423.57s-7.97,1.49-9.13-1.66" />
  </g>
  <g id="Layer_3" data-name="Layer 3" transform="matrix(-1 0 0 1 280.88 0)">
    <path class="muscle" d="M102.98,4.09s-5.49,20.38,1.38,33.26c0,0,10.53,34.93,1.17,94.33,0,0-8.07,64.89-18.4,104.6,0,0-7.42,24.21,5.81,38.42l3.73,3.7s3.55,2.05,6.91,7.84c0,0,7.84,13.44,9.15,19.97l10.83,19.79,2.43,12.51-.07,4.39,4.15,6.61s1.88,1.74-.21,9.85c0,0,.83,7.8,2.63,13.35,0,0,3.9,19.95-13.8,8.7,0,0-10.65-10.05-11.7-22.65l.3-9.75s-4.65-4.65-5.25-6.3c0,0-3.9.45-6-.15,0,0-1.28,7.43-.32,24.07.12,2.07-.22,4.15-1,6.07-.68,1.68-1.61,3.78-2.73,5.7,0,0-1.8,4.8-2.1,6.45l-.45,12.75s.15,13.95-1.35,17.4l-.75,26.85-.45,3.45s-7.5,21.3-14.85,0c0,0-.45-8.4.15-11.7,0,0-1.5-8.1-.6-13.95l-.15-10.05s-1.35-7.05-.3-10.05l.15-7.05s-2.85-11.55-4.95-1.05l-.15,16.95-1.2,5.85-.3,18.3-.6,2.55-.9,14.1s-9,22.95-16.05-1.65c0,0-2.25-13.2-1.35-24.75,0,0,.6-8.4-.15-11.85,0,0,.6-20.1.75-21.9l.3-4.35s-1.5-4.95-3.6-.45l-1.05,16.95s.3,3.75-1.2,6.3l-1.5,13.5-.45,17.1s-.9,4.2-1.65,5.4c0,0-6.6,13.2-13.2.45,0,0-2.25-4.05-2.7-13.2,0,0-.3-12.45,1.35-18.6l.9-33.29s-.15-6.45-3-.9c0,0-.9,5.4-2.85,6.9l.3,9.9s-1.05,6-3.3,9.9v7.5s-2.1,6.6-2.1,6.6c0,0,.45,9.3-4.65,10.35,0,0-4.5,1.8-6.3-2.7l-.9-14.25s-.9-3,.45-9.9l1.65-17.25s0-2.25,1.8-8.4c0,0,1.76-25.49,1.22-37.27,0,0-.71-5.35,3.03-12.13,0,0-5.53-31.57,13.2-54.4,0,0-2.5-10.35-.36-16.41,0,0,.36-5.17,1.61-10.35l-.18-10.52-10.35-89.36s0-74.27,6.57-88.55l-.2-4.23s-5.15-16.06,4.7-27.73c0,0,11.67-17.58,7.73-24.55l71.31,3Z" id="arm_model3_part_14" />
    <path class="outline-detail" d="M101.16,18.75l-14.86-.13,1.42,48.85,21.32-.9s-2.84-25.98-4.65-29.08c0,0-5.04-11.11-3.23-18.74Z" id="arm_model3_part_15" />
    <path class="outline-detail" d="M82.92,18.94s-24.57.92-33.74-2.2c0,0,3.85,27.14-3.48,48.23l34.84,1.65s-3.3-29.71,2.38-40.9c0,0,.92-5.32,0-6.79Z" id="arm_model3_part_16" />
    <path class="outline-detail" d="M44.23,16l-14.49-.37s-5.91,11.23-8.08,13.24c0,0-6.54,8.89-2.35,24.48v4.36s-1.51,3.69-1.51,3.69l21.46,2.18s6.75-19.04,4.97-47.58Z" id="arm_model3_part_17" />
    <path class="outline-detail" d="M109.24,72.53l-20.24.55s.53,114.6-14.44,159.07l11.94,6.17s24.28-98.54,22.74-165.79Z" id="arm_model3_part_18" />
    <path class="outline-detail" d="M81.93,72.95l-36.12-1.82s-14.84,55.74-7.79,111.4l6.31,47.13,25.98,1.86s16.17-115.07,11.63-158.56Z" id="arm_model3_part_19" />
    <path class="outline-detail" d="M38.66,69.89h-21.77s-4.2,33.05-3.93,74.76l10.23,93.12,17.31-7.61s-20.41-89.51-1.84-160.28Z" id="arm_model3_part_20" />
    <path class="outline-detail" d="M14.68,412.12v-7.5c2.25-3.9,3.3-9.9,3.3-9.9l-.3-9.9c1.95-1.5,2.85-6.9,2.85-6.9.91-1.78,1.55-2.32,1.99-2.24l.53-4.37c-7.18-1.84-13.47-3.79-17.76-5.78-.33,6.32-.65,11.04-.65,11.04-1.8,6.15-1.8,8.4-1.8,8.4l-1.65,17.25c-1.35,6.9-.45,9.9-.45,9.9l.9,14.25c1.8,4.5,6.3,2.7,6.3,2.7,5.1-1.05,4.65-10.35,4.65-10.35l2.1-6.6Z" id="arm_model3_part_21" />
    <path class="outline-detail" d="M42.08,401.14l1.05-16.95c.49-1.06.96-1.58,1.37-1.78l.3-6.33c-7.46-1.46-14.99-3.04-21.75-4.77l-.68,4.37c1.19-.4,1.27,3.12,1.27,3.12l-.9,33.29c-1.65,6.15-1.35,18.6-1.35,18.6.45,9.15,2.7,13.2,2.7,13.2,6.6,12.75,13.2-.45,13.2-.45.75-1.2,1.65-5.4,1.65-5.4l.45-17.1,1.5-13.5c1.5-2.55,1.2-6.3,1.2-6.3Z" id="arm_model3_part_22" />
    <path class="outline-detail" d="M90.23,383.76l-5.34-.85s-6.94-.97-16.85-2.59v6.92c1.7-1.27,3.32,5.29,3.32,5.29l-.15,7.05c-1.05,3,.3,10.05.3,10.05l.15,10.05c-.9,5.85.6,13.95.6,13.95-.6,3.3-.15,11.7-.15,11.7,7.35,21.3,14.85,0,14.85,0l.45-3.45.75-26.85c1.5-3.45,1.35-17.4,1.35-17.4l.45-12.75c.05-.29.15-.68.28-1.12Z" id="arm_model3_part_23" />
    <path class="outline-detail" d="M68.07,380.36c-6.64-1.09-14.57-2.57-22.69-4.16l-.27,6.26c1.03.2,1.68,2.31,1.68,2.31l-.3,4.35c-.15,1.8-.75,21.9-.75,21.9.75,3.45.15,11.85.15,11.85-.9,11.55,1.35,24.75,1.35,24.75,7.05,24.6,16.05,1.65,16.05,1.65l.9-14.1.6-2.55.3-18.3,1.2-5.85.15-16.95c.52-2.58,1.08-3.83,1.63-4.24v-6.92Z" id="arm_model3_part_24" />
    <path class="outline-detail" d="M85.14,247.14s-32.95-25.17-62.28,2.08c0,0-1.25,5.19-.99,6.97,0,0-2.12,5.34.25,16.54,0,0-18.31,21.32-13.06,54.54,0,0-3.63,5.92-3.09,12.24l-.13,16.28s37.66,18.83,59.05,16.68c0,0-3.28-74.23,8.98-88.21,0,0,8.63-13.97,15.33-15.07,0,0-5.1-5.08-4.05-22.05Z" id="arm_model3_part_25" />
    <path class="outline-detail" d="M101.84,342.6s-3.9.45-6-.15c0,0-1.28,7.43-.32,24.07.12,2.07-.22,4.15-1,6.07-.36.9-.8,1.92-1.3,2.97-2.03.47-14.21,3.05-23.05-.47,0,0-8.96-95.11,22.58-100.51l3.73,3.7s3.55,2.05,6.91,7.84c0,0,7.84,13.44,9.15,19.97l10.83,19.79,2.43,12.51-.07,4.39,4.15,6.61s1.88,1.74-.21,9.85c0,0,.83,7.8,2.63,13.35,0,0,3.9,19.95-13.8,8.7,0,0-10.65-10.05-11.7-22.65l.3-9.75s-4.65-4.65-5.25-6.3Z" id="arm_model3_part_26" />
    
    <path class="detail-line" d="M55.73,289.94s-.46,32.82,22.14,47.48" />
    <path class="detail-line" d="M51.61,290.4s.76,30.53-33.74,32.21" />
    <path class="detail-line" d="M16.02,335.93s4.49,7.54,20.22,6.99c1.68-.06,3.36.14,4.97.62,5.14,1.54,16.2,5.3,19.67,9.97" />
    <path class="detail-line" d="M95.22,353.14s-15.42,5.71-23.75-3.24c0,0-10.18-21.13-33.32-16.81" />
    <path class="detail-line" d="M130.48,351.83s-7.01-2.44-8.53,1.83" />
    <path class="detail-line" d="M85.01,406.06s-7.3,1.16-10.13,0" />
    <path class="detail-line" d="M85.5,434.17s-7.3,1.16-10.13,0" />
    <path class="detail-line" d="M60.43,406.06s-6.47,3.49-10.96-.83" />
    <path class="detail-line" d="M59.77,432.8s-8.97,1.66-9.96,0" />
    <path class="detail-line" d="M36.03,401.91c-1,0-6.14.17-8.3-2.49" />
    <path class="detail-line" d="M11.22,410.25s-7.97,1.49-9.13-1.66" />
    <path class="detail-line" d="M13.24,393.53c-1,0-6.14.17-8.3-2.49" />
    <path class="detail-line" d="M35.14,423.57s-7.97,1.49-9.13-1.66" />
  </g>
  <script>
    
      const interactives = document.querySelectorAll('.outline-detail');
      interactives.forEach(el =&gt; {
        el.addEventListener('click', (e) =&gt; {
          e.stopPropagation();
          el.classList.toggle('selected');
        });
      });
    
  </script>
</svg>