<?xml version='1.0' encoding='UTF-8'?>
<svg xmlns="http://www.w3.org/2000/svg" viewBox="0 0 212 367">
  <defs>
    <style>
      .cls-1, .cls-2 {
        stroke: #000;
      }

      .cls-1, .cls-2, .cls-3 {
        fill: none;
        stroke-miterlimit: 10;
        stroke-linecap: round;
        stroke-linejoin: round;
      }

      .cls-1, .cls-3 {
        stroke-width: .5px;
      }

      .cls-2 {
        stroke-width: .75px;
      }

      .cls-3 {
        stroke: #0d0d17;
      }

      /* Interactive Muscle Styles */
      .interactive-part { 
        cursor: pointer; 
        pointer-events: all; 
        transition: fill 0.2s; 
        fill: rgba(255,255,255,0.01); /* Transparent fill to catch clicks */
      }
      .interactive-part:hover { 
        fill: #00FF00 !important; 
      }
      .selected { 
        fill: #FF0000 !important; 
      }
    </style>
    <script type="text/javascript">
      function togglePart(elem) {
          elem.classList.toggle('selected');
      }
    </script>
  </defs>
  <g id="Layer_2" data-name="Layer 2">
    <path class="cls-2" d="M105.98,55.72s-14.43-.94-18.89,7.82c0,0-4.79,8.63-.2,16.19,0,0-2.78-1.72-3.58-.7,0,0-1.5,1.18,1.65,3.54,0,0-.43,1.64-.09,2.94,0,0,.48,2.82,2.04,3.08,0,0-.78,3.29,2.82,4.11,0,0-.56,3.16,1.82,5.28l-.04,8.45s-.22,5.07-11.82,8.1l-12.47,4.16s-5.11-.04-7.28,2.04c0,0-8.1-.87-11.61,5.76,0,0-2.77,4.24-3.38,6.28,0,0-3.68,5.63-1.08,12.34l.43,4.33s-.09,1.78-2.38,5.63c0,0-2.43,6.15-3.16,10.7,0,0-1,1.95-.74,11.43,0,0,.3,4.76-1.86,7.15,0,0-7.67,11.35-7.8,16.46l-3.42,14.21s-2.58,17.54-5.85,19.27c0,0-4.18,1.06-6.65,3.72,0,0-2.64,2.19-3.77,2.27,0,0-2.04,1.78-2.34,2.47l-2.86,2.51-.61,2.08s-.77,1.22-1.59,2.31c0,0-1.78,1.63-.14,2.54l3.33.11s3.48-1.9,4.42-4.87c0,0,1.6-1.78,3.2-.39l-.04,1.86s-1.34,1.78-1.86,2.25l-.17,3.59-2.34,3.72-.17,2.34-1.47,1.95-.39,4.11s.69,2.43,2.86.61l2.17-3.68s.65-2.99,1.73-3.42l1.34-3.55,1.65.52s-.65,2.56-2.3,3.72c0,0,.13,2.3-.69,3.51,0,0-1.3,1.08-1.56,3.51l-.04,2.43s1.78,2.43,3.51-.61l1.69-3.16s.91-4.24,2.51-5.15c0,0,.04-2.99.82-3.29l1.43.09-.09,1.39-1.65,2.08s.04,2.9-1.73,4.76c0,0-.43,2.17-.91,3.46,0,0,.52,2.95,2.77.78l2.38-2.86,2.6-5.24s.35-3.42,1.34-4.2l1.34.13s-1.13,3.77-.82,4.94c0,0-.91,3.08-.82,4.2,0,0,.56,3.29,2.56-.22l1.6-2.77.13-2.21,1.08-1.69.13-3.2s2.47-1.73,1.95-6.54c0,0,2.6-2.04,1.82-11.48l1.17-1.43-.04-4.76s3.25-7.8,5.41-10.31c0,0,9.48-15.5,10.26-26.85,0,0,1.52-3.12,2.38-3.59,0,0,.13-1.99-1-3.03l.13-2.77s10.56-24.26,9.4-36.7l2.5-4.42s.99,2.96,1.81,3.51c0,0-1.56,17.91,8.68,38.4l.47,4.45,30.38-.04-.03-136.44Z" />
    <g>
      <path class="cls-1" d="M85.65,81.09c.59.18,1.09.58,1.49,1.05s.7,1.01,1,1.55" />
      <path class="cls-1" d="M87.31,85.18c-.06.52.23,1.01.56,1.42.3.37.63.72,1,1.03" />
      <path class="cls-1" d="M87.73,88.39c.25-.06.49-.2.66-.4" />
      <path class="cls-1" d="M92.76,81.24c1.94-1.71,4.63-2.55,7.2-2.23.91.11,1.86.39,2.46,1.09" />
      <path class="cls-1" d="M102.27,81.08c-.9-.64-1.85-1.3-2.95-1.4-.57-.05-1.15.05-1.7.19-1.11.28-2.21.71-3.1,1.43,1.06.69,2.39.96,3.65.91s2.5-.46,3.57-1.13" />
      <path class="cls-1" d="M97.07,80.17c.06.44.36.82.75,1.03.27.14.58.22.88.17s.58-.22.73-.49c.09-.15.12-.33.15-.5.02-.17.03-.34.03-.52" />
      <path class="cls-1" d="M92.07,78.98c.76-.97,1.84-1.66,3-2.06s2.41-.52,3.64-.47c.55.02,1.1.07,1.62.24,1.55.49,2.65,1.91,3.25,3.41l-1.08,7.16s-2.28,0-1.77,2.28c0,0,.82,1.56,1.73.15,0,0,1-.84,1.55.45,0,0,.31.53,1.1.26" />
      <path class="cls-1" d="M99.77,95.48c.51.15,1.08.14,1.59-.03.59-.2,1.1-.61,1.71-.77.46-.12.96-.08,1.39.11.29.13.55.32.86.39" />
      <path class="cls-1" d="M104.37,91.74c-.1.46-.02.96.23,1.36" />
      <path class="cls-1" d="M102.21,97.04c.36.41.88.69,1.42.76s1.12-.06,1.58-.36" />
      <path class="cls-1" d="M91.89,98.1c2.72,1.8,4.72,3.58,7.34,5.25.35.23,1.97,1.29,2.37,1.41.27.08,2.97.22,3.25.25" />
      <path class="cls-1" d="M66.7,149.28c1.77,1.48,4.21,3.3,6.43,4.5" />
      <path class="cls-1" d="M65.04,145.67c.84.25,1.65.61,2.38,1.09" />
      <path class="cls-1" d="M80.42,123.74c1.43-.31,2.97-.05,4.22.72" />
      <path class="cls-1" d="M89.78,117.08c.02,1.21-.04,2.45-.55,3.55-.13.29-.17.24-.45.39-.49.29-1.1.22-1.65.12-.91-.16-1.8-.38-2.68-.67-.44-.14-.96-.39-1.01-.86-.03-.25.1-.49.22-.71l.67-1.21" />
      <path class="cls-1" d="M95.83,118.69c.06.72.16,1.45.3,2.16.01.07.03.15.07.21.04.07.11.12.19.17.3.17.66.2,1.01.2.38,0-.75-.03,1.13-.08-.04-.23-.05-.46-.03-.69,0-.09.02-.19,0-.28-.02-.08-.06-.16-.1-.23-.28-.48-.63-.91-1.04-1.28" />
      <path class="cls-1" d="M100.38,118.86c-.04,1,.57,1.94,1.39,2.5s1.84.77,2.84.82" />
      <path class="cls-1" d="M93.4,124.82c1.1.54,2.39.67,3.58.36.22.42.55.77.84,1.15.77,1.04,1.04,2.45.7,3.7.27-.03.55-.03.79.08.39.19.57.63.67,1.05.06.22.1.44.11.67.02.88.67,1.72-1.54,1.87-.16,2.12.4,4.3-.3,6.31s.02,3.97.21,5.98c.05.54.11,1.07.24,1.6.1.41.25.81.32,1.22.06.36.06.72.08,1.08.04,1.09.21,2.2.74,3.16.24.44.56.83.82,1.26s.44.93.39,1.43c.42-.14.88.23,1.11.6s.26.84.21,1.28-.16.87-.2,1.31c-.1,1.4.76,2.82,2.05,3.39" />
      <path class="cls-1" d="M101.1,156.01c-.26,2.15-1.52,4.03-2.82,5.76-.82,1.08-1.68,2.16-2.78,2.95-.87,2-1.92,3.71-3.15,5.51-.22.32-.45.65-.72.93-.23.25-.49.47-.74.69-.65.59-1.22,1.27-1.7,2,.14.63-.13,1.13-.38,1.73-.6,1.42-1.31,2.83-2.37,3.95-.33.34-.68.65-1.04.96-.83.72-1.65,1.44-2.48,2.17-.09.08-.18.16-.24.26-.07.12-.1.26-.13.4-.39,1.76-1.79,3.12-3.32,4.07-.95.59-2.55,1.02-3.64.79" />
      <path class="cls-1" d="M8.69,259.45c.81.55,1.85.74,2.81.52" />
      <path class="cls-1" d="M7.32,263.39c.51.52,1.25.81,1.97.76" />
      <path class="cls-1" d="M14.39,261.56c.82.5,1.82.7,2.76.53" />
      <path class="cls-1" d="M12.5,266.16c.69.5,1.61.67,2.44.46" />
      <path class="cls-1" d="M20.3,262.51c.72.48,1.66.62,2.49.39" />
      <path class="cls-1" d="M18.53,267.08c.15,0,.28.1.42.17.43.24.94.33,1.43.26" />
      <path class="cls-1" d="M26.86,265.24c.52.13,1.08.1,1.58-.09" />
      <path class="cls-1" d="M27.37,260.82c.69.24,1.43.32,2.15.22" />
      <path class="cls-1" d="M3.96,245.51c.73-.07,1.49.31,1.88.93" />
      <path class="cls-1" d="M2.43,248c.46.42.46,1.14.34,1.75-.19.9-.59,1.76-1.17,2.48" />
      <path class="cls-1" d="M20.46,235.05c.7.41,1.46.71,2.24.89.3.07.62.12.9-.01.3-.14.47-.45.63-.74.25-.46.51-.92.79-1.36" />
      <path class="cls-1" d="M26.17,235.42c0,.67.51,1.25,1.12,1.52s1.3.29,1.96.25,1.34-.12,1.99-.03" />
      <path class="cls-1" d="M24.6,240.72c.26.77.32,1.6.47,2.4.45,2.35,1.76,4.56,3.74,5.91,1.37.93,3.03,1.43,4.69,1.39" />
      <path class="cls-1" d="M15.84,247.8c1,.15,2.03-.19,2.89-.74s1.56-1.3,2.24-2.05c.62-.68,1.22-1.38,1.81-2.09" />
      <path class="cls-1" d="M12.48,249.03c.96.6,1.95,1.17,3.04,1.47s2.3.3,3.3-.21c.49-.25.91-.6,1.36-.91,1.61-1.07,3.65-1.48,5.54-1.11" />
      <path class="cls-1" d="M16.62,253.23c1.58-.79,2.51-1.13,4.25-1.41s4.24-.24,5.93.23c.51.14.96.48,1.48.57.86.15,1.73-.19,2.58-.4.72-.18,1.46-.27,2.2-.28" />
      <path class="cls-1" d="M39.83,182.18c.13,2.99,1.03,5.95,2.59,8.5" />
      <path class="cls-1" d="M37.15,187.63c.75-.33,1.15.02,1.86.43s1.33,1.33,1.92,1.9,1.73.91,2.49.9c.88-.01,1.73-.02,2.62-.05s1.87.23,2.48.87" />
    </g>
    <path class="cls-2" d="M106.02,55.77s14.43-.94,18.89,7.82c0,0,4.79,8.63.2,16.19,0,0,2.78-1.72,3.58-.7,0,0,1.5,1.18-1.65,3.54,0,0,.43,1.64.09,2.94,0,0-.48,2.82-2.04,3.08,0,0,.78,3.29-2.82,4.11,0,0,.56,3.16-1.82,5.28l.04,8.45s.22,5.07,11.82,8.1l12.47,4.16s5.11-.04,7.28,2.04c0,0,8.1-.87,11.61,5.76,0,0,2.77,4.24,3.38,6.28,0,0,3.68,5.63,1.08,12.34l-.43,4.33s.09,1.78,2.38,5.63c0,0,2.43,6.15,3.16,10.7,0,0,1,1.95.74,11.43,0,0-.3,4.76,1.86,7.15,0,0,7.67,11.35,7.8,16.46l3.42,14.21s2.58,17.54,5.85,19.27c0,0,4.18,1.06,6.65,3.72,0,0,2.64,2.19,3.77,2.27,0,0,2.04,1.78,2.34,2.47l2.86,2.51.61,2.08s.77,1.22,1.59,2.31c0,0,1.78,1.63.14,2.54l-3.33.11s-3.48-1.9-4.42-4.87c0,0-1.6-1.78-3.2-.39l.04,1.86s1.34,1.78,1.86,2.25l.17,3.59,2.34,3.72.17,2.34,1.47,1.95.39,4.11s-.69,2.43-2.86.61l-2.17-3.68s-.65-2.99-1.73-3.42l-1.34-3.55-1.65.52s.65,2.56,2.3,3.72c0,0-.13,2.3.69,3.51,0,0,1.3,1.08,1.56,3.51l.04,2.43s-1.78,2.43-3.51-.61l-1.69-3.16s-.91-4.24-2.51-5.15c0,0-.04-2.99-.82-3.29l-1.43.09.09,1.39,1.65,2.08s-.04,2.9,1.73,4.76c0,0,.43,2.17.91,3.46,0,0-.52,2.95-2.77.78l-2.38-2.86-2.6-5.24s-.35-3.42-1.34-4.2l-1.34.13s1.13,3.77.82,4.94c0,0,.91,3.08.82,4.2,0,0-.56,3.29-2.56-.22l-1.6-2.77-.13-2.21-1.08-1.69-.13-3.2s-2.47-1.73-1.95-6.54c0,0-2.6-2.04-1.82-11.48l-1.17-1.43.04-4.76s-3.25-7.8-5.41-10.31c0,0-9.48-15.5-10.26-26.85,0,0-1.52-3.12-2.38-3.59,0,0-.13-1.99,1-3.03l-.13-2.77s-10.56-24.26-9.4-36.7l-2.5-4.42s-.99,2.96-1.81,3.51c0,0-1.56,17.91-8.68,38.4l-.47,4.45-30.38-.04.03-136.44Z" />
    <g>
      <path class="cls-1" d="M126.35,81.14c-.59.18-1.09.58-1.49,1.05s-.7,1.01-1,1.55" />
      <path class="cls-1" d="M124.7,85.23c.06.52-.23,1.01-.56,1.42-.3.37-.63.72-1,1.03" />
      <path class="cls-1" d="M124.27,88.44c-.25-.06-.49-.2-.66-.4" />
      <path class="cls-1" d="M119.24,81.29c-1.94-1.71-4.63-2.55-7.2-2.23-.91.11-1.86.39-2.46,1.09" />
      <path class="cls-1" d="M109.73,81.13c.9-.64,1.85-1.3,2.95-1.4.57-.05,1.15.05,1.7.19,1.11.28,2.21.71,3.1,1.43-1.06.69-2.39.96-3.65.91s-2.5-.46-3.57-1.13" />
      <path class="cls-1" d="M114.93,80.22c-.06.44-.36.82-.75,1.03-.27.14-.58.22-.88.17s-.58-.22-.73-.49c-.09-.15-.12-.33-.15-.5-.02-.17-.03-.34-.03-.52" />
      <path class="cls-1" d="M119.93,79.03c-.76-.97-1.84-1.66-3-2.06s-2.41-.52-3.64-.47c-.55.02-1.1.07-1.62.24-1.55.49-2.65,1.91-3.25,3.41l1.08,7.16s2.28,0,1.77,2.28c0,0-.82,1.56-1.73.15,0,0-1-.84-1.55.45,0,0-.31.53-1.1.26" />
      <path class="cls-1" d="M112.23,95.53c-.51.15-1.08.14-1.59-.03-.59-.2-1.1-.61-1.71-.77-.46-.12-.96-.08-1.39.11-.29.13-.55.32-.86.39" />
      <path class="cls-1" d="M107.63,91.79c.1.46.02.96-.23,1.36" />
      <path class="cls-1" d="M109.79,97.09c-.36.41-.88.69-1.42.76s-1.12-.06-1.58-.36" />
      <path class="cls-1" d="M120.11,98.15c-2.72,1.8-4.72,3.58-7.34,5.25-.35.23-1.97,1.29-2.37,1.41-.27.08-2.97.22-3.25.25" />
      <path class="cls-1" d="M145.3,149.33c-1.77,1.48-4.21,3.3-6.43,4.5" />
      <path class="cls-1" d="M146.96,145.72c-.84.25-1.65.61-2.38,1.09" />
      <path class="cls-1" d="M131.58,123.8c-1.43-.31-2.97-.05-4.22.72" />
      <path class="cls-1" d="M122.22,117.13c-.02,1.21.04,2.45.55,3.55.13.29.17.24.45.39.49.29,1.1.22,1.65.12.91-.16,1.8-.38,2.68-.67.44-.14.96-.39,1.01-.86.03-.25-.1-.49-.22-.71l-.67-1.21" />
      <path class="cls-1" d="M116.17,118.74c-.06.72-.16,1.45-.3,2.16-.01.07-.03.15-.07.21-.04.07-.11.12-.19.17-.3.17-.66.2-1.01.2-.38,0-.75-.03-1.13-.08.04-.23.05-.46.03-.69,0-.09-.02-.19,0-.28.02-.08.06-.16.1-.23.28-.48.63-.91,1.04-1.28" />
      <path class="cls-1" d="M111.62,118.91c.04,1-.57,1.94-1.39,2.5s-1.84.77-2.84.82" />
      <path class="cls-1" d="M118.6,124.87c-1.1.54-2.39.67-3.58.36-.22.42-.55.77-.84,1.15-.77,1.04-1.04,2.45-.7,3.7-.27-.03-.55-.03-.79.08-.39.19-.57.63-.67,1.05-.06.22-.1.44-.11.67-.02.88.67,1.72,1.54,1.87.16,2.12-.4,4.3.3,6.31s-.02,3.97-.21,5.98c-.05.54-.11,1.07-.24,1.6-.1.41-.25.81-.32,1.22-.06.36-.06.72-.08,1.08-.04,1.09-.21,2.2-.74,3.16-.24.44-.56.83-.82,1.26s-.44.93-.39,1.43c-.42-.14-.88.23-1.11.6s-.26.84-.21,1.28.16.87.2,1.31c.1,1.4-.76,2.82-2.05,3.39" />
      <path class="cls-1" d="M110.9,156.07c.26,2.15,1.52,4.03,2.82,5.76.82,1.08,1.68,2.16,2.78,2.95.87,2,1.92,3.71,3.15,5.51.22.32.45.65.72.93.23.25.49.47.74.69.65.59,1.22,1.27,1.7,2-.14.63.13,1.13.38,1.73.6,1.42,1.31,2.83,2.37,3.95.33.34.68.65,1.04.96.83.72,1.65,1.44,2.48,2.17.09.08.18.16.24.26.07.12.1.26.13.4.39,1.76,1.79,3.12,3.32,4.07.95.59,2.55,1.02,3.64.79" />
      <path class="cls-1" d="M203.31,259.5c-.81.55-1.85.74-2.81.52" />
      <path class="cls-1" d="M204.68,263.44c-.51.52-1.25.81-1.97.76" />
      <path class="cls-1" d="M197.61,261.61c-.82.5-1.82.7-2.76.53" />
      <path class="cls-1" d="M199.5,266.21c-.69.5-1.61.67-2.44.46" />
      <path class="cls-1" d="M191.7,262.57c-.72.48-1.66.62-2.49.39" />
      <path class="cls-1" d="M193.47,267.13c-.15,0-.28.1-.42.17-.43.24-.94.33-1.43.26" />
      <path class="cls-1" d="M185.14,265.29c-.52.13-1.08.1-1.58-.09" />
      <path class="cls-1" d="M184.63,260.87c-.69.24-1.43.32-2.15.22" />
      <path class="cls-1" d="M208.04,245.56c-.73-.07-1.49.31-1.88.93" />
      <path class="cls-1" d="M209.57,248.05c-.46.42-.46,1.14-.34,1.75.19.9.59,1.76,1.17,2.48" />
      <path class="cls-1" d="M191.55,235.1c-.7.41-1.46.71-2.24.89-.3.07-.62.12-.9-.01-.3-.14-.47-.45-.63-.74-.25-.46-.51-.92-.79-1.36" />
      <path class="cls-1" d="M185.83,235.47c0,.67-.51,1.25-1.12,1.52s-1.3.29-1.96.25-1.34-.12-1.99-.03" />
      <path class="cls-1" d="M187.4,240.77c-.26.77-.32,1.6-.47,2.4-.45,2.35-1.76,4.56-3.74,5.91-1.37.93-3.03,1.43-4.69,1.39" />
      <path class="cls-1" d="M196.16,247.86c-1,.15-2.03-.19-2.89-.74s-1.56-1.3-2.24-2.05c-.62-.68-1.22-1.38-1.81-2.09" />
      <path class="cls-1" d="M199.52,249.08c-.96.6-1.95,1.17-3.04,1.47s-2.3.3-3.3-.21c-.49-.25-.91-.6-1.36-.91-1.61-1.07-3.65-1.48-5.54-1.11" />
      <path class="cls-1" d="M195.38,253.28c-1.58-.79-2.51-1.13-4.25-1.41s-4.24-.24-5.93.23c-.51.14-.96.48-1.48.57-.86.15-1.73-.19-2.58-.4-.72-.18-1.46-.27-2.2-.28" />
      <path class="cls-1" d="M172.18,182.23c-.13,2.99-1.03,5.95-2.59,8.5" />
      <path class="cls-1" d="M174.85,187.68c-.75-.33-1.15.02-1.86.43s-1.33,1.33-1.92,1.9-1.73.91-2.49.9c-.88-.01-1.73-.02-2.62-.05s-1.87.23-2.48.87" />
    </g>
    <path class="cls-3 interactive-part" onclick="togglePart(this)" d="M144.88,118.85s5.29-.46,7.36,1.99c0,0,6.5-1.08,10.55,4.32,0,0,3.37,4.67,4.27,7.82,0,0,3.26,4.61,1.41,11.08l-21.09,1.52s-12.43-6.47-11.64-15.35c0,0-1.33-6.78,9.15-11.38Z" id="bizeps2_part_1" />
    <path class="cls-3 interactive-part" onclick="togglePart(this)" d="M167.91,147.18l-18.49,2.14.48.98s-.88,9.87,4.72,24.85c0,0,4.46,11.95,4.73,12.37,0,0,11.47-.72,15.59-4.59,0,0-1.44-2.68-.88-6.96,0,0,.21-7.68-.77-9.9,0,0-1.75-8.56-3.3-10.93,0,0-2.22-4.33-2.32-5.77l.24-2.2Z" id="bizeps2_part_2" />
  </g>
  <g id="Layer_2_copy" transform="translate(212, 0) scale(-1, 1)">
    <path class="cls-3 interactive-part" onclick="togglePart(this)" d="M144.88,118.85s5.29-.46,7.36,1.99c0,0,6.5-1.08,10.55,4.32,0,0,3.37,4.67,4.27,7.82,0,0,3.26,4.61,1.41,11.08l-21.09,1.52s-12.43-6.47-11.64-15.35c0,0-1.33-6.78,9.15-11.38Z" id="bizeps2_part_3" />
    <path class="cls-3 interactive-part" onclick="togglePart(this)" d="M167.91,147.18l-18.49,2.14.48.98s-.88,9.87,4.72,24.85c0,0,4.46,11.95,4.73,12.37,0,0,11.47-.72,15.59-4.59,0,0-1.44-2.68-.88-6.96,0,0,.21-7.68-.77-9.9,0,0-1.75-8.56-3.3-10.93,0,0-2.22-4.33-2.32-5.77l.24-2.2Z" id="bizeps2_part_4" />
  </g>
</svg>