<?xml version='1.0' encoding='UTF-8'?>
<svg xmlns="http://www.w3.org/2000/svg" viewBox="0 0 150 388">
  <defs>
    <style>
      .cls-1 {
        stroke: #7f7f7f;
      }

      .cls-1, .cls-2 {
        stroke-width: .25px;
      }

      .cls-1, .cls-2, .cls-3 {
        fill: none;
        stroke-miterlimit: 10;
      }

      .cls-2, .cls-3 {
        stroke: #221f20;
      }

      .cls-3 {
        stroke-width: .5px;
      }

      /* Interactive Muscle Styles */
      .interactive-part { 
        cursor: pointer; 
        pointer-events: all; 
        transition: fill 0.2s; 
        fill: rgba(255,255,255,0.01); /* Transparent fill to catch clicks */
      }
      .interactive-part:hover { 
        fill: #00FF00 !important; 
      }
      .selected { 
        fill: #FF0000 !important; 
      }
    </style>
    <script type="text/javascript">
      function togglePart(elem) {
          elem.classList.toggle('selected');
      }
    </script>
  </defs>
  <g id="Layer_2" data-name="Layer 2">
    <path class="cls-3" d="M111.56,113.31c2.23,2.76,5.24,7.91,4.01,14.52l-.1,3.86s-.3,1.91,1.23,5.21c0,0,1.31,5.12,1.36,7.28,0,0-.45,10.57.74,13.13,0,0-4.22,5.01-12.39,4.33,0,0-.08-1.89.49-2.5,0,0-4.63-13.01-4.76-15.12,0,0-2.5,14.16-3.41,15.11,0,0-.14,9.72.45,11.75,0,0,.71,6.03.37,7.11,0,0,3.82,9.3,3.74,12.79,0,0,3.68,21.5,2.03,30.11l-1.51,12.34-2.65,14.72s-.74,5.46-.41,10.59l-.28,3.99s2.03,5.06,1.46,10.73l-16.44-.49s-.04-1.79.45-3.79c0,0-3.61-4.72-3.19-13.72,0,0-.08-5.38.92-8.57,0,0,.08-11.85-1.68-19.16l-1.01-5.04s.17-14.51-1.37-15.72l-3.59-2.17.05-98.17s8.43.7,30.96,4.25c1.79.28,3.41,1.22,4.54,2.63Z" />
    <path class="cls-2" d="M88.52,254.57s-1.03,12.54-2.38,14.38" />
    <path class="cls-2" d="M87.68,262.39s3.49-2.48,6.97-1.71" />
    <path class="cls-2" d="M95.67,258.21s-.24,2.76.24,3.19" />
    <path class="cls-2" d="M97.94,260.87s2.03.87,2.41,1.75" />
    <path class="cls-1" d="M109.35,158.7s.91,1.24.59,2.28" />
    <line class="cls-1" x1="114.16" y1="158.18" x2="114.81" y2="159.48" />
    <path class="cls-2" d="M91.6,111.68s-1.24-.64-1.77-.01l-1.41,2.59s-.36.59-.52,2.99l-.43,1.38s-.39.26,0,3.58c0,0,1.76,6.87,1.82,9.19l.08,1.37s.4,1.18,1.24,2.21c0,0,.57.89,2.18,2.18,0,0,1.38,1.41,2.61.03l2.59-2.82" />
    <path class="cls-2" d="M89.61,114.65s-1.21,4.3,1.21,1.69" />
    <path class="cls-2" d="M89.52,125.19l-.13-3.26c-.01-.35.07-.69.24-.99.4-.71,1.21-2.03,1.93-2.52.15-.1.32-.15.5-.16l2.1-.15c.29-.02.56-.11.8-.26,1.26-.8,5.26-3.37,5.77-3.44l1.31-.15" />
    <path class="cls-1" d="M92.59,156.47s2.92,3.75,5.57,2.92" />
    <path class="cls-1" d="M88.4,157.57l4.3,3.14s2.37,1.16,1.76-1.05" />
  </g>
  <g id="Layer_3" data-name="Layer 3">
    <path class="cls-3 interactive-part" onclick="togglePart(this)" d="M77.45,156.42c1.85.47,8.16,2.35,12.09,7,.04.05.09.08.15.11.76.31,6.48,2.7,8.98,5.64.05.06.08.13.1.21.15.8.97,5.46.75,8.28-.02.23-.23.4-.46.38-.76-.08-2.41-.3-3.53-.87-.07-.04-.15-.05-.24-.04-.81.12-5.33.78-6.9.7-.11,0-.2.02-.28.09-.3.25-1.08.88-1.56.96-.11.02-.2.1-.25.19-.57,1-3.53,5.64-8.93,5.41-.22,0-.41-.2-.41-.42,0-3.11-.02-23.65-.03-27.22,0-.28.25-.47.52-.4Z" id="full_middle_back_part_1" />
  </g>
  <g id="Layer_4" data-name="Layer 4">
    <path class="cls-3 interactive-part" onclick="togglePart(this)" d="M81.69,203.03c3.63-3.38,3.53-10.31,3.53-10.31l-4.04-5.94c-2.2,1.13-4.28.71-4.28.71l.03,16.63s.98,2.42,4.75-1.09Z" id="full_middle_back_part_2" />
  </g>
  <g id="Layer_5" data-name="Layer 5">
    <path class="cls-3 interactive-part" onclick="togglePart(this)" d="M100.52,180.55s-9.22-4.65-12.35,1.1c-.04.07-.09.14-.15.21-.49.54-2.97,3.23-4.71,3.94,0,0,.99,2.77,3.48,4.97.5.44.75,1.1.69,1.77-.26,3.03-1.49,11.21-7.13,14.16,0,0,.2,4.25,4.58,6.11,0,0,6.78,3.32,13.68-.07,0,0,4.32-2.59,2.92-10.03,0,0-3.78-9.12.35-11.26l1.39-.72s-.72-5.66-2.76-10.17Z" id="full_middle_back_part_3" />
    <path class="cls-3" d="M40.45,113.37c-2.23,2.76-5.24,7.91-4.01,14.52l.1,3.86s.3,1.91-1.23,5.21c0,0-1.31,5.12-1.36,7.28,0,0,.45,10.57-.74,13.13,0,0,4.22,5.01,12.39,4.33,0,0,.08-1.89-.49-2.5,0,0,4.63-13.01,4.76-15.12,0,0,2.5,14.16,3.41,15.11,0,0,.14,9.72-.45,11.75,0,0-.71,6.03-.37,7.11,0,0-3.82,9.3-3.74,12.79,0,0-3.68,21.5-2.03,30.11l1.51,12.34,2.65,14.72s.74,5.46.41,10.59l.28,3.99s-2.03,5.06-1.46,10.73l16.44-.49s.04-1.79-.45-3.79c0,0,3.61-4.72,3.19-13.72,0,0,.08-5.38-.92-8.57,0,0-.08-11.85,1.68-19.16l1.01-5.04s-.17-14.51,1.37-15.72l3.59-2.17-.05-98.17s-8.43.7-30.96,4.25c-1.79.28-3.41,1.22-4.54,2.63Z" />
    <path class="cls-2" d="M63.49,254.63s1.03,12.54,2.38,14.38" />
    <path class="cls-2" d="M64.33,262.44s-3.49-2.48-6.97-1.71" />
    <path class="cls-2" d="M56.34,258.27s.24,2.76-.24,3.19" />
    <path class="cls-2" d="M54.07,260.93s-2.03.87-2.41,1.75" />
    <path class="cls-1" d="M42.66,158.76s-.91,1.24-.59,2.28" />
    <line class="cls-1" x1="37.85" y1="158.23" x2="37.2" y2="159.54" />
    <path class="cls-2" d="M60.41,111.73s1.24-.64,1.77-.01l1.41,2.59s.36.59.52,2.99l.43,1.38s.39.26,0,3.58c0,0-1.76,6.87-1.82,9.19l-.08,1.37s-.4,1.18-1.24,2.21c0,0-.57.89-2.18,2.18,0,0-1.38,1.41-2.61.03l-2.59-2.82" />
    <path class="cls-2" d="M62.4,114.7s1.21,4.3-1.21,1.69" />
    <path class="cls-2" d="M62.5,125.24l.13-3.26c.01-.35-.07-.69-.24-.99-.4-.71-1.21-2.03-1.93-2.52-.15-.1-.32-.15-.5-.16l-2.1-.15c-.29-.02-.56-.11-.8-.26-1.26-.8-5.26-3.37-5.77-3.44l-1.31-.15" />
    <path class="cls-1" d="M59.43,156.52s-2.92,3.75-5.57,2.92" />
    <path class="cls-1" d="M63.62,157.62l-4.3,3.14s-2.37,1.16-1.76-1.05" />
    <path class="cls-3 interactive-part" onclick="togglePart(this)" d="M74.56,156.47c-1.85.47-8.16,2.35-12.09,7-.04.05-.09.08-.15.11-.76.31-6.48,2.7-8.98,5.64-.05.06-.08.13-.1.21-.15.8-.97,5.46-.75,8.28.02.23.23.4.46.38.76-.08,2.41-.3,3.53-.87.07-.04.15-.05.24-.04.81.12,5.33.78,6.9.7.11,0,.2.02.28.09.3.25,1.08.88,1.56.96.11.02.2.1.25.19.57,1,3.53,5.64,8.93,5.41.22,0,.41-.2.41-.42,0-3.11.02-23.65.03-27.22,0-.28-.25-.47-.52-.4Z" id="full_middle_back_part_4" />
    <path class="cls-3 interactive-part" onclick="togglePart(this)" d="M70.32,203.08c-3.63-3.38-3.53-10.31-3.53-10.31l4.04-5.94c2.2,1.13,4.28.71,4.28.71l-.03,16.63s-.98,2.42-4.75-1.09Z" id="full_middle_back_part_5" />
    <path class="cls-3 interactive-part" onclick="togglePart(this)" d="M51.5,180.61s9.22-4.65,12.35,1.1c.04.07.09.14.15.21.49.54,2.97,3.23,4.71,3.94,0,0-.99,2.77-3.48,4.97-.5.44-.75,1.1-.69,1.77.26,3.03,1.49,11.21,7.13,14.16,0,0-.2,4.25-4.58,6.11,0,0-6.78,3.32-13.68-.07,0,0-4.32-2.59-2.92-10.03,0,0,3.78-9.12-.35-11.26l-1.39-.72s.72-5.66,2.76-10.17Z" id="full_middle_back_part_6" />
  </g>
</svg>