<?xml version='1.0' encoding='UTF-8'?>
<svg xmlns="http://www.w3.org/2000/svg" viewBox="0 0 200 389">
  <defs>
    <style>
      .cls-1 {
        stroke: #7f7f7f;
        stroke-width: .5px;
      }

      .cls-1, .cls-2, .cls-3 {
        fill: none;
        stroke-miterlimit: 10;
      }

      .cls-2 {
        stroke-width: .25px;
      }

      .cls-2, .cls-3 {
        stroke: #221f20;
      }

      .cls-3 {
        stroke-width: .75px;
      }

      /* Interactive Muscle Styles */
      .interactive-part { 
        cursor: pointer; 
        pointer-events: all; 
        transition: fill 0.2s; 
        fill: rgba(255,255,255,0.01); /* Transparent fill to catch clicks */
      }
      .interactive-part:hover { 
        fill: #00FF00 !important; 
      }
      .selected { 
        fill: #FF0000 !important; 
      }
    </style>
    <script type="text/javascript">
      function togglePart(elem) {
          elem.classList.toggle('selected');
      }
    </script>
  </defs>
  <g id="Layer_2" data-name="Layer 2">
    <path class="cls-3" d="M98.67,76.21s16.17-1.59,19.1,16.67c.04.24.06.49.05.74-.03,1.44-.28,6.54-2.57,9.7,0,0,3.9-2.3,3.01,1.02,0,0-1.22,1.92-.83,4.03,0,0-3.33,2.81-4.16,5.63,0,0-1.15.51-2.11-.19l-.19,10.43s0,3.65,2.94,5.18c0,0,15.93,8,19.96,11.39,0,0,2.11,1.22,4.41,1.02,0,0,2.64.94,4.13,2.3,0,0,1.78.77,2.92.7,0,0,8.6,4.87,8.24,13.98,0,0-.75,10.47-1.08,11.31,0,0,3.34,10.64,3.14,12.08,0,0,.51,3.67.57,12.89l.13,6.31s.04,2.1,1.81,3.78c0,0,6.11,7.68,7.25,20.74,0,0,2.2,11.43,2.2,12.73,0,0,2.29,10.53,4.73,11.92,0,0,3.59,1.22,4.82,3.43l4.85,3.54s2.3,2.98,2.8,3.26c0,0,1.54,2.95,2.67,3.63,0,0,.16,1.6-.96,1.79,0,0-4.26.65-5.61-3.65l-1.03-1.22s-2.4-1.13-1.45,1.54c.23.65.89,2.15.89,2.15l.33,3.23,2.15,4.16.7,4.07s.47.56.47,1.59l.23,2.15s-.05,3.23-2.9,1.03c0,0-1.82-5.05-2.24-6.83l-1.73-2.99s-1.17-1.54-.89.37l1.08,3.6.75,2.99s.56,1.22.79,2.67l.07,2.05s-.38,3.44-3.14.57l-3.01-10.56s-1.39-2.87-1.16.37l.88,4.63s.68,1.48.71,3.35l-.09,1.56s-1.16,2.44-2.95-.26c0,0-1.08-1.02-1.19-4.88,0,0-.68-3.75-1.19-4.57l-.54-1.14s-.99-1.14-1.05.34l.28,4.09.06.65s.65.57.62,2.16l-.09,1.31s-.65,2.53-2.53.26c0,0-.6-.62-1.05-3.32l-.28-2.24s-.8-3.1-.74-4.09c0,0-1.31-1.31-1.59-4.94,0,0-3.09-4.19-1.82-11.31,0,0-2.15-1.37-1.9-5.51,0,0-.87-3.71-1.86-4.57l-9.23-17.09s-4.39-9.92-3.64-12.62l.03-.33-.85-.81s-1.12-.45.14-6.62l-.17-4.13-5.47-18.22s-.9-2.69-.72-6.06l-.09-12.29s-1.26,7.72-1.53,9.2c0,0-3.32,11.44-3.59,17.45,0,0-1.5,7.12-2.06,8.46,0,0-1.68,11.34.21,13.95l-28.89-1.06.04-138.65Z" />
    <path class="cls-3" d="M185.28,263.04s-.22,1.54,1.03,2.06" />
    <path class="cls-3" d="M180.21,280.32s1.64-.81,2.66-.33" />
    <path class="cls-3" d="M179.34,278.14s2.24-1.09,3.34-.82" />
    <path class="cls-3" d="M178.32,274.35s1.43-.85,3.41-.65" />
    <path class="cls-3" d="M175.05,282.77s1.5-.78,2.69-.44" />
    <path class="cls-3" d="M174.43,280.42s1.16-1.13,3.04-.58" />
    <path class="cls-3" d="M173.27,276.7s1.71-1.67,3-.85" />
    <path class="cls-3" d="M169.32,282.4s1.57-.61,2.83-.14" />
    <path class="cls-3" d="M168.64,280.42s1.91-1.4,3.24-.75" />
    <path class="cls-3" d="M167.95,276.12s2.49-.61,3.04-.17" />
    <path class="cls-3" d="M163.56,279.97s2.01-.51,2.49-.2" />
    <path class="cls-3" d="M162.94,277.79s2.32-.82,2.86-.03" />
    <path class="cls-3" d="M162.12,274.04s1.81.92,3.07.55" />
    <path class="cls-3" d="M182.83,260.86s-.14,1.03.72,1" />
    <path class="cls-2" d="M144.96,206.48l-.23,5.34c-.04.92.19,1.82.68,2.61,1.19,1.93,3.41,5.58,3.52,6.09" />
    <path class="cls-2" d="M144.78,211.03s2.04-2.34,5.63-1.13" />
    <path class="cls-2" d="M152.02,205.52l-.02.88c-.02,1,.24,1.98.74,2.84.77,1.32,1.86,3.23,1.92,3.59" />
    <path class="cls-1" d="M101.61,198.83s2.57.29,5.89,4.84c0,0,3.55,3.91,6.6,5.19,0,0,1.41.5.96-1.41" />
    <path class="cls-1" d="M112.5,201.26s7.24,6.33,8.28,6.37c0,0,2.23,1.18.86-1.27" />
    <path class="cls-1" d="M121.1,202.86s4.05,2.96,5.42,2.23" />
    <path class="cls-3" d="M101,110.55l.74-.39c.77-.41,1.64-.62,2.52-.6l3.7.09c.2,0,.4-.02.6-.09.81-.27,3.05-1.07,3.6-1.96" />
    <path class="cls-3" d="M113.46,107.61s-2.05,3.7-1.85,5.41" />
    <path class="cls-3" d="M114.09,110.05s-.8,1.35-2.18,1.12" />
  </g>
  <g id="Layer_3" data-name="Layer 3">
    <path class="cls-2 interactive-part" onclick="togglePart(this)" d="M98.6,129.23s10.79.68,13.81-.86c0,0,3.22,2.13,4.41,2.54,0,0,11.63,6.08,13.09,7.26,0,0-4.28,3.93-14.52,4.25l-16.49.47-.3-13.67Z" id="full_upper_back_part_1" />
    <path class="cls-2 interactive-part" onclick="togglePart(this)" d="M98.67,129.2s-10.79.68-13.81-.86c0,0-3.22,2.13-4.41,2.54,0,0-11.63,6.08-13.09,7.26,0,0,4.28,3.93,14.52,4.25l16.49.47.3-13.67Z" id="full_upper_back_part_2" />
  </g>
  <g id="Layer_4" data-name="Layer 4">
    <path class="cls-2 interactive-part" onclick="togglePart(this)" d="M99.04,145.42s16.99-.26,19.34-.96c0,0-.35,21.96,1.74,25.62,0,0,2.09,1.66,8.45,1.83l-2.44,10.2s-22.13.96-27.8.52l.7-37.21Z" id="full_upper_back_part_3" />
    <path class="cls-2 interactive-part" onclick="togglePart(this)" d="M98.22,145.38s-16.99-.26-19.34-.96c0,0,.35,21.96-1.74,25.62,0,0-2.09,1.66-8.45,1.83l2.44,10.2s22.13.96,27.8.52l-.7-37.21Z" id="full_upper_back_part_4" />
  </g>
  <g id="Layer_5" data-name="Layer 5">
    <path class="cls-2 interactive-part" onclick="togglePart(this)" d="M121.55,143.91s6.67-.63,11.38-3.79c0,0,2.27,2,5.38,1.66,0,0,3.15,1.22,3.91,2.27,0,0,1.13.76,3.24.8,0,0,8.6,5,8.06,14.19l-.47,5.5s-17.84.8-18.72.67l-.74,4.7s-9.32-.6-11.14-1.54c0,0-4.01-16.85-.9-24.46Z" id="full_upper_back_part_5" />
    <path class="cls-2 interactive-part" onclick="togglePart(this)" d="M75.72,143.88s-6.67-.63-11.38-3.79c0,0-2.27,2-5.38,1.66,0,0-3.15,1.22-3.91,2.27,0,0-1.13.76-3.24.8,0,0-8.6,5-8.06,14.19l.47,5.5s17.84.8,18.72.67l.74,4.7s9.32-.6,11.14-1.54c0,0,4.01-16.85.9-24.46Z" id="full_upper_back_part_6" />
  </g>
  <g id="Layer_6" data-name="Layer 6">
    <path class="cls-2 interactive-part" onclick="togglePart(this)" d="M137.32,167.91l15.56-.4-.41,2.69s3.17,10.16,3.06,11.04c0,0,.83,9.12.69,15.19,0,0-.2,6.46.86,7.45,0,0-2.57,2.24-16.15,2.83l-.13-3.03-5.6-18.85s-.99-3.3-.53-6.06l1.85-3.23s-.06-5.88.79-7.62Z" id="full_upper_back_part_7" />
    <path class="cls-2 interactive-part" onclick="togglePart(this)" d="M59.94,167.88l-15.56-.4.41,2.69s-3.17,10.16-3.06,11.04c0,0-.83,9.12-.69,15.19,0,0,.2,6.46-.86,7.45,0,0,2.57,2.24,16.15,2.83l.13-3.03,5.6-18.85s.99-3.3.53-6.06l-1.85-3.23s.06-5.88-.79-7.62Z" id="full_upper_back_part_8" />
    <path class="cls-3" d="M98.6,76.17s-16.17-1.59-19.1,16.67c-.04.24-.06.49-.05.74.03,1.44.28,6.54,2.57,9.7,0,0-3.9-2.3-3.01,1.02,0,0,1.22,1.92.83,4.03,0,0,3.33,2.81,4.16,5.63,0,0,1.15.51,2.11-.19l.19,10.43s0,3.65-2.94,5.18c0,0-15.93,8-19.96,11.39,0,0-2.11,1.22-4.41,1.02,0,0-2.64.94-4.13,2.3,0,0-1.78.77-2.92.7,0,0-8.6,4.87-8.24,13.98,0,0,.75,10.47,1.08,11.31,0,0-3.34,10.64-3.14,12.08,0,0-.51,3.67-.57,12.89l-.13,6.31s-.04,2.1-1.81,3.78c0,0-6.11,7.68-7.25,20.74,0,0-2.2,11.43-2.2,12.73,0,0-2.29,10.53-4.73,11.92,0,0-3.59,1.22-4.82,3.43l-4.85,3.54s-2.3,2.98-2.8,3.26c0,0-1.54,2.95-2.67,3.63,0,0-.16,1.6.96,1.79,0,0,4.26.65,5.61-3.65l1.03-1.22s2.4-1.13,1.45,1.54c-.23.65-.89,2.15-.89,2.15l-.33,3.23-2.15,4.16-.7,4.07s-.47.56-.47,1.59l-.23,2.15s.05,3.23,2.9,1.03c0,0,1.82-5.05,2.24-6.83l1.73-2.99s1.17-1.54.89.37l-1.08,3.6-.75,2.99s-.56,1.22-.79,2.67l-.07,2.05s.38,3.44,3.14.57l3.01-10.56s1.39-2.87,1.16.37l-.88,4.63s-.68,1.48-.71,3.35l.09,1.56s1.16,2.44,2.95-.26c0,0,1.08-1.02,1.19-4.88,0,0,.68-3.75,1.19-4.57l.54-1.14s.99-1.14,1.05.34l-.28,4.09-.06.65s-.65.57-.62,2.16l.09,1.31s.65,2.53,2.53.26c0,0,.6-.62,1.05-3.32l.28-2.24s.8-3.1.74-4.09c0,0,1.31-1.31,1.59-4.94,0,0,3.09-4.19,1.82-11.31,0,0,2.15-1.37,1.9-5.51,0,0,.87-3.71,1.86-4.57l9.23-17.09s4.39-9.92,3.64-12.62l-.03-.33.85-.81s1.12-.45-.14-6.62l.17-4.13,5.47-18.22s.9-2.69.72-6.06l.09-12.29s1.26,7.72,1.53,9.2c0,0,3.32,11.44,3.59,17.45,0,0,1.5,7.12,2.06,8.46,0,0,1.68,11.34-.21,13.95l28.89-1.06-.04-138.65Z" />
    <path class="cls-3" d="M11.99,263s.22,1.54-1.03,2.06" />
    <path class="cls-3" d="M17.05,280.29s-1.64-.81-2.66-.33" />
    <path class="cls-3" d="M17.92,278.1s-2.24-1.09-3.34-.82" />
    <path class="cls-3" d="M18.95,274.31s-1.43-.85-3.41-.65" />
    <path class="cls-3" d="M22.22,282.74s-1.5-.78-2.69-.44" />
    <path class="cls-3" d="M22.83,280.38s-1.16-1.13-3.04-.58" />
    <path class="cls-3" d="M23.99,276.67s-1.71-1.67-3-.85" />
    <path class="cls-3" d="M27.95,282.36s-1.57-.61-2.83-.14" />
    <path class="cls-3" d="M28.63,280.38s-1.91-1.4-3.24-.75" />
    <path class="cls-3" d="M29.31,276.09s-2.49-.61-3.04-.17" />
    <path class="cls-3" d="M33.71,279.94s-2.01-.51-2.49-.2" />
    <path class="cls-3" d="M34.33,277.76s-2.32-.82-2.86-.03" />
    <path class="cls-3" d="M35.14,274.01s-1.81.92-3.07.55" />
    <path class="cls-3" d="M14.43,260.82s.14,1.03-.72,1" />
    <path class="cls-2" d="M52.31,206.45l.17,3.96c.08,1.82-.39,3.61-1.33,5.16-1.2,1.96-2.71,4.5-2.81,4.92" />
    <path class="cls-2" d="M52.48,210.99s-2.04-2.34-5.63-1.13" />
    <path class="cls-2" d="M45.25,205.49h0c.03,1.56-.37,3.09-1.14,4.45-.7,1.21-1.45,2.57-1.49,2.86" />
    <path class="cls-1" d="M95.66,198.8s-2.57.29-5.89,4.84c0,0-3.55,3.91-6.6,5.19,0,0-1.41.5-.96-1.41" />
    <path class="cls-1" d="M84.76,201.23s-7.24,6.33-8.28,6.37c0,0-2.23,1.18-.86-1.27" />
    <path class="cls-1" d="M76.16,202.82s-4.05,2.96-5.42,2.23" />
    <path class="cls-3" d="M96.27,110.52l-.74-.39c-.77-.41-1.64-.62-2.52-.6l-3.7.09c-.2,0-.4-.02-.6-.09-.81-.27-3.05-1.07-3.6-1.96" />
    <path class="cls-3" d="M83.8,107.58s2.05,3.7,1.85,5.41" />
    <path class="cls-3" d="M83.17,110.02s.8,1.35,2.18,1.12" />
    <path class="cls-2" d="M98.67,129.2s-10.79.68-13.81-.86c0,0-3.22,2.13-4.41,2.54,0,0-11.63,6.08-13.09,7.26,0,0,4.28,3.93,14.52,4.25l16.49.47.3-13.67Z" />
    <path class="cls-2" d="M98.22,145.38s-16.99-.26-19.34-.96c0,0,.35,21.96-1.74,25.62,0,0-2.09,1.66-8.45,1.83l2.44,10.2s22.13.96,27.8.52l-.7-37.21Z" />
    <path class="cls-2" d="M75.72,143.88s-6.67-.63-11.38-3.79c0,0-2.27,2-5.38,1.66,0,0-3.15,1.22-3.91,2.27,0,0-1.13.76-3.24.8,0,0-8.6,5-8.06,14.19l.47,5.5s17.84.8,18.72.67l.74,4.7s9.32-.6,11.14-1.54c0,0,4.01-16.85.9-24.46Z" />
    <path class="cls-2" d="M59.94,167.88l-15.56-.4.41,2.69s-3.17,10.16-3.06,11.04c0,0-.83,9.12-.69,15.19,0,0,.2,6.46-.86,7.45,0,0,2.57,2.24,16.15,2.83l.13-3.03,5.6-18.85s.99-3.3.53-6.06l-1.85-3.23s.06-5.88-.79-7.62Z" />
  </g>
</svg>