<?xml version='1.0' encoding='UTF-8'?>
<svg xmlns="http://www.w3.org/2000/svg" viewBox="0 0 200 349">
  <defs>
    <style>
      .cls-1 {
        stroke-width: .25px;
      }

      .cls-1, .cls-2, .cls-3 {
        fill: none;
        stroke: #221f20;
        stroke-miterlimit: 10;
      }

      .cls-2 {
        stroke-width: .75px;
      }

      .cls-3 {
        stroke-width: .5px;
      }

      /* Interactive Muscle Styles */
      .interactive-part { 
        cursor: pointer; 
        pointer-events: all; 
        transition: fill 0.2s; 
        fill: rgba(255,255,255,0.01); /* Transparent fill to catch clicks */
      }
      .interactive-part:hover { 
        fill: #00FF00 !important; 
      }
      .selected { 
        fill: #FF0000 !important; 
      }
    </style>
    <script type="text/javascript">
      function togglePart(elem) {
          elem.classList.toggle('selected');
      }
    </script>
  </defs>
  <g id="Layer_2" data-name="Layer 2">
    <path class="cls-2" d="M101.63,253.73l-.19-188.32s15.08-1.54,17.81,16.12c.04.23.05.47.05.71-.02,1.39-.26,6.32-2.4,9.38,0,0,3.64-2.23,2.8.99,0,0-1.13,1.86-.78,3.9,0,0-3.1,2.72-3.88,5.44,0,0-1.07.49-1.97-.19l-.18,10.08s0,3.53,2.74,5.01c0,0,14.86,7.73,18.62,11.01,0,0,1.97,1.18,4.12.99,0,0,2.47.91,3.85,2.23,0,0,1.66.75,2.73.68,0,0,8.02,4.71,7.69,13.51,0,0-.7,10.12-1.01,10.94,0,0,3.12,10.29,2.93,11.68,0,0,.48,3.55.53,12.46l.12,6.1s.04,2.03,1.69,3.66c0,0,5.7,7.43,6.76,20.05,0,0,2.06,11.05,2.06,12.31,0,0,2.13,10.18,4.42,11.52,0,0,3.35,1.18,4.49,3.31l4.52,3.42s2.15,2.88,2.61,3.15c0,0,1.43,2.85,2.49,3.5,0,0,.15,1.55-.89,1.73,0,0-3.97.63-5.23-3.53l-.96-1.18s-2.24-1.09-1.35,1.49c.22.63.83,2.08.83,2.08l.31,3.12,2.01,4.02.65,3.93s.44.54.44,1.54l.22,2.08s-.04,3.12-2.7.99c0,0-1.7-4.88-2.09-6.6l-1.61-2.89s-1.09-1.49-.83.36l1,3.48.7,2.89s.52,1.18.74,2.58l.07,1.98s-.36,3.33-2.93.56l-2.81-10.21s-1.3-2.77-1.09.36l.82,4.48s.64,1.43.66,3.24l-.08,1.51s-1.09,2.36-2.75-.25c0,0-1.01-.99-1.11-4.72,0,0-.64-3.62-1.11-4.42l-.5-1.1s-.93-1.1-.98.33l.26,3.95.05.63s.61.55.58,2.09l-.08,1.26s-.61,2.44-2.36.25c0,0-.56-.6-.98-3.21l-.26-2.17s-.74-2.99-.69-3.95c0,0-1.22-1.26-1.48-4.78,0,0-2.88-4.05-1.7-10.94,0,0-2-1.32-1.77-5.33,0,0-.81-3.59-1.73-4.42l-8.61-16.52s-4.09-9.59-3.4-12.2l.03-.31-.79-.79s-1.04-.43.13-6.4l-.16-4-5.1-17.61s-.84-2.6-.67-5.86l-.08-11.89s-1.17,7.46-1.42,8.89c0,0-1.65,10.9-1.9,16.72,0,0-1.1,7.83-1.62,9.13,0,0-1.73,9.24-1.56,12.7,0,0,.46,14.35.57,15.86,0,0,1.28,12.88,1.04,14.62,0,0,4.06,17.18,2.67,26.69,0,0-1.28,16.83-4.06,22.63l-24.95.35s-1.88-17.35-1.99-26.91Z" />
    <path class="cls-1" d="M182.21,246.04s-.21,1.49.96,1.99" />
    <path class="cls-1" d="M176.4,259.96s2.09-1.06,3.11-.8" />
    <path class="cls-1" d="M175.72,256.97s1.34-.82,3.18-.63" />
    <path class="cls-1" d="M171.74,262.92s1.23-1.29,3.22-.66" />
    <path class="cls-1" d="M170.99,259.25s1.75-1.62,3.08-.82" />
    <path class="cls-1" d="M166.69,262.84s1.78-1.35,3.02-.73" />
    <path class="cls-1" d="M166.05,258.69s2.32-.59,2.83-.16" />
    <path class="cls-1" d="M161.38,260.3s2.16-.79,2.67-.03" />
    <path class="cls-1" d="M160.62,256.68s1.81.84,3.07.5" />
    <path class="cls-1" d="M179.93,243.93s-.13,1,.67.96" />
    <path class="cls-1" d="M144.61,191.36l-.21,5.16c-.04.89.18,1.76.63,2.52,1.11,1.87,3.18,5.4,3.29,5.89" />
    <path class="cls-1" d="M144.44,195.75s1.91-2.27,5.25-1.1" />
    <path class="cls-1" d="M151.19,190.43v.85c-.03.96.21,1.91.67,2.74.72,1.28,1.73,3.12,1.79,3.47" />
    <path class="cls-2" d="M103.61,98.62l.69-.38c.72-.4,1.53-.6,2.35-.58l3.45.09c.19,0,.38-.02.56-.08.76-.26,2.84-1.03,3.36-1.89" />
    <path class="cls-2" d="M115.23,95.77s-1.92,3.57-1.72,5.23" />
    <path class="cls-2" d="M115.82,98.13s-.74,1.31-2.04,1.08" />
    <path class="cls-1" d="M120.04,133.36s-1.72-2.64-3.83,3.04c0,0-2.64,3.56-.26,11.88,0,0,.52,7.95.53,9.64,0,0,4.49,11.35,10.43,0" />
    <path class="cls-1" d="M116.87,137.57s0,3.54,3.54.5" />
    <path class="cls-1" d="M120.66,140.31s-3.99.75-3.69,5.23" />
  </g>
  <g id="Layer_3" data-name="Layer 3">
    <path class="cls-3 interactive-part" onclick="togglePart(this)" d="M125.81,187.9c-2.04-1.57,3.71-25.19,3.71-25.19.74-.28,3.52.74,3.52.74,0,0-1.73,13.84-1.52,15.21,0,0-1.29,8.94-1.73,9.75l-3.97-.51Z" id="full_lower_back_part_1" />
    <path class="cls-3 interactive-part" onclick="togglePart(this)" d="M101.42,168.05s22.53-.32,23.98,0c0,0-3.93,19.49-2.41,20.45s-21.17.48-21.49,0l-.08-20.45Z" id="full_lower_back_part_2" />
    <path class="cls-3 interactive-part" onclick="togglePart(this)" d="M101.49,191.96l27.57-.21s-1.55,13.99,0,22.28l-27.46.31s.21-21.45-.1-22.38Z" id="full_lower_back_part_3" />
    <path class="cls-3 interactive-part" onclick="togglePart(this)" d="M101.49,217.56s26.32-.83,27.57.1c0,0,1.1,11.86,1.05,13.39,0,0,3.09,14.64,2.73,16.69,0,0-16.31,24.32-31.07,5.07l-.26-35.25Z" id="full_lower_back_part_4" />
    <path class="cls-2" d="M101.23,253.79l.19-188.32s-15.08-1.54-17.81,16.12c-.04.23-.05.47-.05.71.02,1.39.26,6.32,2.4,9.38,0,0-3.64-2.23-2.8.99,0,0,1.13,1.86.78,3.9,0,0,3.1,2.72,3.88,5.44,0,0,1.07.49,1.97-.19l.18,10.08s0,3.53-2.74,5.01c0,0-14.86,7.73-18.62,11.01,0,0-1.97,1.18-4.12.99,0,0-2.47.91-3.85,2.23,0,0-1.66.75-2.73.68,0,0-8.02,4.71-7.69,13.51,0,0,.7,10.12,1.01,10.94,0,0-3.12,10.29-2.93,11.68,0,0-.48,3.55-.53,12.46l-.12,6.1s-.04,2.03-1.69,3.66c0,0-5.7,7.43-6.76,20.05,0,0-2.06,11.05-2.06,12.31,0,0-2.13,10.18-4.42,11.52,0,0-3.35,1.18-4.49,3.31l-4.52,3.42s-2.15,2.88-2.61,3.15c0,0-1.43,2.85-2.49,3.5,0,0-.15,1.55.89,1.73,0,0,3.97.63,5.23-3.53l.96-1.18s2.24-1.09,1.35,1.49c-.22.63-.83,2.08-.83,2.08l-.31,3.12-2.01,4.02-.65,3.93s-.44.54-.44,1.54l-.22,2.08s.04,3.12,2.7.99c0,0,1.7-4.88,2.09-6.6l1.61-2.89s1.09-1.49.83.36l-1,3.48-.7,2.89s-.52,1.18-.74,2.58l-.07,1.98s.36,3.33,2.93.56l2.81-10.21s1.3-2.77,1.09.36l-.82,4.48s-.64,1.43-.66,3.24l.08,1.51s1.09,2.36,2.75-.25c0,0,1.01-.99,1.11-4.72,0,0,.64-3.62,1.11-4.42l.5-1.1s.93-1.1.98.33l-.26,3.95-.05.63s-.61.55-.58,2.09l.08,1.26s.61,2.44,2.36.25c0,0,.56-.6.98-3.21l.26-2.17s.74-2.99.69-3.95c0,0,1.22-1.26,1.48-4.78,0,0,2.88-4.05,1.7-10.94,0,0,2-1.32,1.77-5.33,0,0,.81-3.59,1.73-4.42l8.61-16.52s4.09-9.59,3.4-12.2l-.03-.31.79-.79s1.04-.43-.13-6.4l.16-4,5.1-17.61s.84-2.6.67-5.86l.08-11.89s1.17,7.46,1.42,8.89c0,0,1.65,10.9,1.9,16.72,0,0,1.1,7.83,1.62,9.13,0,0,1.73,9.24,1.56,12.7,0,0-.46,14.35-.57,15.86,0,0-1.28,12.88-1.04,14.62,0,0-4.06,17.18-2.67,26.69,0,0,1.28,16.83,4.06,22.63l24.95.35s1.88-17.35,1.99-26.91Z" />
    <path class="cls-1" d="M20.64,246.1s.21,1.49-.96,1.99" />
    <path class="cls-1" d="M26.45,260.02s-2.09-1.06-3.11-.8" />
    <path class="cls-1" d="M27.13,257.04s-1.34-.82-3.18-.63" />
    <path class="cls-1" d="M31.12,262.99s-1.23-1.29-3.22-.66" />
    <path class="cls-1" d="M31.87,259.31s-1.75-1.62-3.08-.82" />
    <path class="cls-1" d="M36.17,262.91s-1.78-1.35-3.02-.73" />
    <path class="cls-1" d="M36.8,258.75s-2.32-.59-2.83-.16" />
    <path class="cls-1" d="M41.48,260.37s-2.16-.79-2.67-.03" />
    <path class="cls-1" d="M42.24,256.74s-1.81.84-3.07.5" />
    <path class="cls-1" d="M22.92,243.99s.13,1-.67.96" />
    <path class="cls-1" d="M58.25,191.43l.21,5.16c.04.89-.18,1.76-.63,2.52-1.11,1.87-3.18,5.4-3.29,5.89" />
    <path class="cls-1" d="M58.41,195.82s-1.91-2.27-5.25-1.1" />
    <path class="cls-1" d="M51.66,190.5v.85c.03.96-.21,1.91-.67,2.74-.72,1.28-1.73,3.12-1.79,3.47" />
    <path class="cls-2" d="M99.24,98.68l-.69-.38c-.72-.4-1.53-.6-2.35-.58l-3.45.09c-.19,0-.38-.02-.56-.08-.76-.26-2.84-1.03-3.36-1.89" />
    <path class="cls-2" d="M87.62,95.84s1.92,3.57,1.72,5.23" />
    <path class="cls-2" d="M87.03,98.2s.74,1.31,2.04,1.08" />
    <path class="cls-1" d="M82.81,133.42s1.72-2.64,3.83,3.04c0,0,2.64,3.56,.26,11.88,0,0-.52,7.95-.53,9.64,0,0-4.49,11.35-10.43,0" />
    <path class="cls-1" d="M85.99,137.63s0,3.54-3.54,.5" />
    <path class="cls-1" d="M82.2,140.37s3.99,.75,3.69,5.23" />
    <path class="cls-3 interactive-part" onclick="togglePart(this)" d="M77.04,187.96c2.04-1.57-3.71-25.19-3.71-25.19-.74-.28-3.52.74-3.52.74,0,0,1.73,13.84,1.52,15.21,0,0,1.29,8.94,1.73,9.75l3.97-.51Z" id="full_lower_back_part_5" />
    <path class="cls-3 interactive-part" onclick="togglePart(this)" d="M101.44,168.12s-22.53-.32-23.98,0c0,0,3.93,19.49,2.41,20.45s21.17.48,21.49,0l.08-20.45Z" id="full_lower_back_part_6" />
    <path class="cls-3 interactive-part" onclick="togglePart(this)" d="M101.37,192.02l-27.57-.21s1.55,13.99,0,22.28l27.46.31s-.21-21.45.1-22.38Z" id="full_lower_back_part_7" />
    <path class="cls-3 interactive-part" onclick="togglePart(this)" d="M101.37,217.62s-26.32-.83-27.57.1c0,0-1.1,11.86-1.05,13.39,0,0-3.09,14.64-2.73,16.69,0,0,16.31,24.32,31.07,5.07l.26-35.25Z" id="full_lower_back_part_8" />
  </g>
</svg>