<?xml version='1.0' encoding='UTF-8'?>
<svg xmlns="http://www.w3.org/2000/svg" viewBox="0 0 475 488">
  <defs>
    <style>
      .muscle {
        fill: #ffffff;
        stroke: #101028;
        stroke-miterlimit: 10;
        transition: all 0.2s ease;
        cursor: pointer;
      }
      .muscle:hover:not(.selected) {
        fill: #00FF00 !important;
        stroke-width: 1.5px;
      }
      .muscle.selected {
        fill: #FF0000 !important;
        stroke-width: 1.5px;
      }
      .detail-line {
        fill: none !important;
        stroke: #101028;
        stroke-width: 0.5px;
        pointer-events: none;
      }
      .static-part {
        fill: none;
        stroke: #101028;
        stroke-width: 0.5px;
        stroke-miterlimit: 10;
        pointer-events: none;
      }
      .cls-eyebrow { fill: #0d0d17; stroke: #0d0d17; stroke-width: 0.8px; stroke-linejoin: round; pointer-events: none; }
      .cls-iris { fill: #0d0d17; pointer-events: none; }
      .no-click { pointer-events: none; }
    </style>
  </defs>

  
  <g id="Interactive_Regions">
    <path id="side_cheeks_lower_face" class="muscle" d="M79.75,205.33s23.84,24.73,50.01,16.01l25.8-18.93,51.04,2.97s-4.36,19.59-3.66,28.02l-15.34,18.52.97,16.58s11.39,10.38,27.64,11.94l2.84.55-.92,16.06-.76,15.03s1.93,15.51-6.17,24.26c0,0-28.37,23.89-82.58,31.7,0,0-19.19,3.09-27.62,2.22,0,0-26.94-4.65-19.03-30.24l1.27-3.63s4.97-4.9,1.05-15.75c0,0,31.47.54,72.71-20.3l-17.99-27.97s-29.51,12.29-65.48,14.15c0,0-.37-1.29,2.36-4.66,0,0,2.71-6.9-3.2-12.71l-1.83-1.45s8.22,1.02,12.58.91c0,0,9.29,1.1,10.89-5.99,0,0,1.6-4-3.78-13.39,0,0-8.06-10.09-26.52-12.64,0,0,4.5-11.09,15.72-31.26Z" />
    <path id="side_top_head" class="muscle" d="M138.37,54.64s7.87,21.6,103.79,16.67c0,0,55.54-5.9,72.78-22.89,0,0-24.98-13.06-48.42-14.67,0,0-20.48-3.22-52.87.54,0,0-34.82,3.48-75.29,20.35Z" />
    <path id="side_front_hair" class="muscle" d="M138.21,54.82s4.9,9.02,26.3,13.15c0,0-27.17,85.74-26.53,87.68,0,0-22.09-19.19-42.9-18.22l-15-.48s9.3-58.49,58.12-82.12Z" />
    <path id="side_back_head" class="muscle" d="M315.02,48.18s-8.25,14.28-72.27,22.98l4.91,104.17s32.88-2.87,46.79,37.36c0,0,7.68,39.37-16.7,56.51,0,0,57.45.24,79.9-11.1l4.37-1.59s40.81-37.31,31.93-91.35c0,0-6.08-55.98-36.85-86.03,0,0-20.66-22.01-42.08-30.94Z" />
    <path id="side_ear" class="muscle" d="M202.77,233.32s0-36.67,16.25-47.43c0,0,38.21-31.44,70.53,14.79,0,0,10.5,15.68,4.12,43.5,0,0-2.2,20.64-31.18,32.94,0,0-19.32,10.54-52.7,1.98,0,0-10.54-1.1-21.3-10.76l-1.1-16.25,15.37-18.77Z" />
    <path id="side_head_upper" class="muscle" d="M163.87,68.04s33.2,6.89,78.82,3.08l4.86,104.33s-34.58,1.88-40.97,29.99l-51.53-2.75s2.75-24.08-17.32-47.52l26.14-87.14Z" />
    <path id="side_head_lower" class="muscle" d="M80.36,136.77l20.25.89s17.32,1.18,37,17.71c0,0,18.89,20.47,17.51,47.43l-25.39,18.5s-23.38,10.01-49.96-16.08l2.46-4.34s1.8-3.97.45-13.27c0,0-6.22-8.9-6.16-20.82l3.84-30.01Z" />
    <path id="side_neck_front" class="muscle" d="M73.77,286.62s34.8-1.91,65.2-14.15l18.17,27.73s-31.85,18.31-73.06,20.51l-1.33-3.78s-11.63-5.39-2.04-15.18c0,0-10-8.11-6.94-15.13Z" />
    <path id="side_neck_mid" class="muscle" d="M102.46,370.35s64.23.32,109.18-34.61c0,0,6.76-6.49,5.76-22.66l1.2-24.15s-.73-2.31,4.04-2.31l22.59-1.13s4.25-.63,4.25,2.61l7.83,182.09s-54.56,3.22-87.82,2.05c0,0,13.11-8.49,4.96-33.83l-18.24-48.03s-4.87-9.46-14.19-11.18c0,0-23.11-1.97-34.72-6.44l-4.84-2.42Z" />
    <path id="side_neck_back" class="muscle" d="M257.04,284.44l19.87-9.66s51.35-3.34,75.03-11.51l1.13,1.71s-13.07,26.61-15.75,68.72c0,0-12.64,79.02,39.96,108.61,0,0-40.34,19.16-111.21,26.37l-9.03-184.24Z" />
  </g>

  
  <g id="Static_Overlay" class="no-click">
    <path class="static-part" d="M169.96,472.03s124.04,6.77,207.09-29.58c0,0-14.85-5.41-31.06-34.21,0,0-12.43-27.13-8.84-68.79,0,0,.45-42.11,16.13-74.81,0,0,24.3-18.25,37.37-53.79,0,0,14.73-37.92-11.06-97.68,0,0-19.24-54.85-91.69-75.32,0,0-54.44-19.24-144.5,14.74,0,0-47.07,14.74-62.22,79.82,0,0-5.91,29.17-4.14,38.56,0,0-1.42,4.43,5.49,16.3,0,0,1.77,10.45-1.06,14.88,0,0-5.64,11.2-8.78,16.96,0,0-7.15,11.52-9.07,18.67l-7.5,12.56s-6.46,14.31,8.38,15.36c0,0,14.31,1.05,11.52,16.05,0,0-7.33,7.85,1.05,16.05l3.66,4.01s-9.77,8.55,1.75,14.83c0,0,6.98,12.22,1.05,19.72,0,0-9.6,19.72,6.28,28.44,0,0,17.97,12.04,48.69,14.13,0,0,14.66-1.05,20.24,18.5,0,0,19.67,44.81,18.47,56.21,0,0,.4,12.23-7.23,18.37Z" />
    <path class="detail-line" d="M105.81,302.36s-21.17.83-25.09-.54" />
    <path class="detail-line" d="M68.08,259.25s6.65.39,9.78,5.28" />
    <path class="detail-line" d="M80.76,268.45s22.8,3.55,9.63-19.11" />
    <path class="detail-line" d="M120.59,217.59s23.28-9.93,12.09-32.85c0,0-13.54-14.62-44.58-16.42" />
    <path class="detail-line" d="M94.55,182.98s2.57,4.36,7.16,5.03c0,0,7.72-1.79,12.98,4.7,0,0,7.38,13.2,12.19,8.17" />
    <path class="detail-line" d="M98.9,186.84s-4.57,5.27.4,7.06c0,0,9.84-.78,16.6,7.06,0,0,3.38,3.81,6.06,1.57" />
    <path class="detail-line" d="M101.39,194.25s-2.89,5.88-.21,9.62c0,0,2.67,2.89,18.07,1.28,0,0,1.33-.52,1.96-2.03" />
    <path class="detail-line" d="M100.11,210.71s-.75-6.39,1.22-6.39" />
    <ellipse class="cls-iris" cx="103.17" cy="200.18" rx="3.4" ry="4.15" />
    <path class="detail-line" d="M225.63,209.91l5.56-3.63,5.56-10.88s17.9-15,34.83,7.98c0,0,7.29,19.01,2.23,37.38-.43,1.58-1.2,3.04-2.23,4.31-3.24,3.98-10.8,13.52-11.37,16.37l-7.26,11.85s-16.69,10.88-18.62-6.77c0,0-3.63-.73-2.42,11.13" />
    <path class="detail-line" d="M266.28,242.85s8.81-32.51-12.8-43.21c0,0-11.33-3.36-15.1,9.02,0,0-.63,19.72-3.15,22.24" />
    <path class="detail-line" d="M239.01,229.84s10.7,4.61.63,13.64l-4.82,2.94s-1.68,6.5,3.99,2.94c0,0,5.45-6.92,7.34-.63,0,0,6.5,6.71,8.6-3.15l.63-10.7s1.89-5.45-2.94-7.76c0,0-7.34-5.03-8.18-5.66s-5.45-5.03-5.45-5.03" />
    <path class="detail-line" d="M241.11,288.31s-54.8,167.64-68.56,180.78" />
    <path class="cls-eyebrow" d="M131.46,186.09c-.27-.12-36.97-8.55-37.46-8.75s-6.78,2.61-9.05-7.37c0,0,.69-3.39,6.69-1.62,0,0,19.57,1.38,35.69,12.29,0,0,3.44,2.11,5.36,4.1,0,0,1.52,2.58-1.23,1.35Z" />
  </g>

  <script>
    
      // Handle clicks on elements with class 'muscle'
      document.addEventListener('click', function(e) {
        const target = e.target;
        if (target.classList.contains('muscle')) {
          e.stopPropagation();
          target.classList.toggle('selected');
        }
      });
    
  </script>
</svg>