<?xml version='1.0' encoding='UTF-8'?>
<svg xmlns="http://www.w3.org/2000/svg" viewBox="0 0 262 340">
  <defs>
    <style>
      .muscle {
        fill: #ffffff;
        stroke: #101028;
        stroke-miterlimit: 10;
        transition: all 0.2s ease;
        cursor: pointer;
      }
      .muscle:hover:not(.selected) {
        fill: #00FF00 !important;
        stroke-width: 1px;
      }
      .muscle.selected {
        fill: #FF0000 !important;
        stroke-width: 1px;
      }
      .detail-line {
        fill: none !important;
        stroke: #101028;
        stroke-width: 0.5px;
        pointer-events: none;
      }
      .static-part {
        fill: none;
        stroke: #101028;
        stroke-width: 0.5px;
        stroke-miterlimit: 10;
        pointer-events: none;
      }
      .cls-iris { fill: #101028; pointer-events: none; }
      .cls-eyebrow { fill: #101028; stroke: #101028; stroke-width: 0.8px; stroke-linejoin: round; pointer-events: none; }
      .cls-white { fill: #fff; pointer-events: none; }
      .cls-pupil { fill: #3f3f3f; pointer-events: none; }
      .no-click { pointer-events: none; }
    </style>
  </defs>

  
  <g id="Interactive_Regions">
    <path id="neck" class="muscle" d="M69.15,243.14s37.22,34.94,60.4,32.83c0,0,24.58,2.02,59.87-36.52,0,0,1.58,29.23-.18,42.23,0,0-.88,4.74,8.43,14.4,0,0-10.71,23.88-61.28,29.15,0,0-36.52,5.97-72.69-24.41l-.42-.49s8.77-7.12,8.34-16.9c0,0-2.44-19.97-2.47-40.29Z" />
    <path id="cheeks_lower_face" class="muscle" d="M200.7,141.53v-3.06l-19.7-.18s-1.47,29.63-36.41,21.33c0,0-5.84-.79-16.27-5.46,0,0-27.39,17.12-44.56,4.46,0,0-8.14-6.31-10.72-16.95l-19.24.4.07,2.25,9.89.1s-.67,21.47,7.6,29.38c0,0,9.85,15.57,5.84,23.96,0,0-1.25,5.27-8.24,8.38l-5.4,2.98,1.96,15.18s.52,8.14,3.38,10.46c0,0,24.49,23.52,41.77,30.87,0,0,20.55,9.94,43.01-3.27,0,0,20.85-11.63,37.57-33.42l3.11-23.76s-22.23.15-12.51-28.08c0,0,8.5-14.59,8.05-17.38l.89-18.33,9.91.16Z" />
    <path id="head_top" class="muscle" d="M78.31,46.3s12.02,9.09,47.47,7.53c0,0,33.26-.14,44.11-9.11,0,0-43.37-22.16-91.58,1.58Z" />
    <path id="hair_left" class="muscle" d="M77.85,46.04s8.1,4.72,14.68,5.45c0,0-25.03,27.62-12.68,61.71,0,0-4.17,7.65-5.22,15.24,0,0-1.25,4.16-1.46,13.2l-19.12.42-.09-4.15s-6.31-14.99-7.63-31.15c0,0-2.81-17.55,3.54-31,0,0,1.26-8.58,13.07-18.83,0,0,7.67-7.17,14.91-10.89Z" />
    <path id="hair_right" class="muscle" d="M158.61,49.78s6.4-1.15,11.56-5.27c0,0,17.96,7.57,23.32,16.26,0,0,11.42,14.28,13.47,32.7,0,0,1.01,11.65-1.71,18.88,0,0-4.7,18.79-4.51,21.8l-.09,4.42-19.55-.29s.27-15.12-7.59-26.57c0,0,2.29-5.86,2.21-19.12,0,0-.58-16.44-5.26-23.42,0,0-7.76-14.65-11.84-19.39Z" />
    <path id="forehead" class="muscle" d="M92.53,51.49s11.83,3.48,35.13,2.26c0,0,18.12-.17,30.95-3.97,0,0,14.18,20.22,15.01,27.29,0,0,4.77,18.02-.12,34.64,0,0-56.25,3.82-93.64,1.49,0,0-6.28-15.1-2.29-31.55,0,0,3.8-15.77,11.3-25.41l3.67-4.75Z" />
    <path id="ear_right" class="muscle" d="M193,141.39l5.8.09c1.11.02,2.01.92,2.01,2.04h0c0,1.93,2.42,2.78,3.63,1.28l2.16-2.69c-.04-.88,13.25-3.84,4.05,14.43-.15.3-.23.64-.22.98l.31,11.39c.03,1.22-.2,2.43-.7,3.55l-4.37,9.91c-.08.17-.13.35-.15.54-.29,2-2.28,14.19-8.04,13.69-1.06-.09-2.02.77-2.12,1.83l-.46,4.59c-.12,1.16-1.18,2-2.33,1.81-4.53-.72-14.58-3.79-13.02-16.83,0,0-.36-6.44,4.85-15.42,0,0,6.04-11.1,5.74-14.73l.66-14.5c.05-1.12,1-1.99,2.13-1.94h.07Z" />
    <path id="ear_left" class="muscle" d="M54.28,144.29l9.47.06s-1.11,18.45,6.55,27.89c0,0,16.09,22.99,1.67,32.31l-8.24,4.43s-1.37-9.14-2.06-9.68c0,0-3.73,3.5-8.63-5.38,0,0-2.73-11.86-4.47-13.22,0,0-4.78-4.72-3.1-12.79l-.31-7.64s-5.59-9.5-4.28-12.05c0,0,3.79-7.2,7.82,0l3.23,3.73,2.48.25-.12-7.91Z" />
    <path id="eye_area" class="muscle" d="M73.05,141.5s.09-16.54,6.73-28.27c0,0,45.08,1.93,93.32-1.57,0,0,7.93,8.49,8.05,26.46,0,0-1.52,38.09-52.92,16.06,0,0-43.69,27.38-55.18-12.68Z" />
    <path id="mouth_area" class="muscle" d="M130.22,243.15c24.99-1.52,41.08-19.1,41.08-19.1,9.03-10.73-3.01-23.29-3.01-23.29l-39.38,18.45-39.51-16.61s-12.67,12.34-1.53,24.85c0,0,25.69,16.72,42.35,15.71Z" />
  </g>

  
  <g id="Static_Overlay" class="no-click">
    <path class="static-part" d="M52.82,67.19s21.41-32.5,70.91-31.85c0,0,31.21-3.23,64.56,19.58,0,0,22.38,20.88,18.29,51.86,0,0-4.95,19.8-6.03,29.05l.38,13.58,6.04-7.54s6.44-2.82,6.94,3.92c0,0,.4,3.92-1.91,8.05l-1.71,2.92.46,12.9c.03.72-.11,1.43-.4,2.08l-4.79,10.87s-1.91,8.95-3.32,10.86c0,0-1.95,4.16-6.49,3.17l-4.15,31.94s-32,40.99-60.57,40.55c0,0-8.86.8-18.55-2.69,0,0-21.06-9.47-43.11-31.22,0,0-3-1.88-3.71-9.64,0,0-1.07-16.61-4.04-26.36,0,0-3.7,3.81-8.71-5.56,0,0-2.24-10.95-4.75-13.33,0,0-4.09-4.36-2.64-12.41l-.4-7.79s-5.08-7.54-4.18-12.13c0,0,3.09-5.79,6.7-1.28,0,0,3.54,5.12,4.74,5.49l1.96.23-.53-14.82s-9.79-22.99-8.36-45.83c0,0,.02-10.16,7.38-24.62Z" />
    <path class="static-part" d="M69.46,243.05s-1.31,42.31,7.1,56.77" />
    <path class="static-part" d="M37.59,309.58s14.43.54,27.13-10.42c0,0,7.38-7.16,6.84-15.84" />
    <path class="static-part" d="M189.74,238.87s1.7,54.41-5.1,58.89" />
    <path class="static-part" d="M223.28,303.94s-28.9,1.7-34.47-23.49" />

    <g id="nose_lines">
      <path class="detail-line" d="M122.68,157.05s-3.51,22.88-6.2,27.02c0,0-5.73,8.56-5.67,9.39,0,0-3,6,6.28,8.89" />
      <path class="detail-line" d="M132.24,155.99s3.78,23.99,6.47,28.13c0,0,5.73,8.56,5.67,9.39,0,0-3,6-6.28,8.89" />
      <path class="detail-line" d="M115.25,199.53s3.65-.29,7.6,4.45c.74.65,4.78,3.48,8.91.15,0,0,5.26-4.82,8.11-4.53" />
    </g>

    <g id="eyes_details">
      <path class="detail-line" d="M132.24,155.99s-4.74-21.42,7.77-24.76c0,0,18.55-6.57,30.67,4.65" />
      <path class="detail-line" d="M122.68,157.05s4.4-21.31-8.11-24.66c0,0-18.55-6.57-30.67,4.65" />
      <path class="detail-line" d="M92.57,146.66s13.39-10.76,27.65.5" />
      <path class="detail-line" d="M162.95,145.54s-13.39-10.76-27.65.5" />
      <path class="detail-line" d="M162.79,149.24s-13.36-14.23-25.15-.87" />
      <path class="detail-line" d="M161.75,148.21s-12.02,9.89-22.96-1.06" />
      <ellipse class="static-part" cx="149.65" cy="147.56" rx="4.89" ry="4.13" />
      <ellipse class="cls-pupil" cx="149.52" cy="147.5" rx="3.24" ry="2.74" />
      <ellipse class="cls-white" cx="148.16" cy="146.52" rx=".7" ry=".65" />
      <path class="detail-line" d="M92.58,150.34s13.36-14.23,25.15-.87" />
      <path class="detail-line" d="M93.62,149.31s12.02,9.89,22.96-1.06" />
      <ellipse class="static-part" cx="105.72" cy="148.66" rx="4.89" ry="4.13" />
      <ellipse class="cls-pupil" cx="105.85" cy="148.59" rx="3.24" ry="2.74" />
      <ellipse class="cls-white" cx="107.21" cy="147.62" rx=".7" ry=".65" />
      <polygon class="cls-iris" points="160.16 149.21 160.3 147.25 161.58 148.26 160.16 149.21" />
      <polygon class="cls-iris" points="140.28 145.77 140.11 148.34 138.91 147.17 140.28 145.77" />
      <polygon class="cls-iris" points="95.21 150.31 95.08 148.35 93.79 149.36 95.21 150.31" />
      <polygon class="cls-iris" points="115.1 146.87 115.26 149.44 116.46 148.27 115.1 146.87" />
    </g>

    <path class="detail-line" d="M211.56,153.04s-1.94-5.87-4.65-2.04l-5.55,9.05s-.75,4.87,3.15,8.37c0,0,2.29,5.18-4.97,9.28l-.4.67s5.64.16,5.43,6.91" />
    <path class="detail-line" d="M200.51,150.19s1.33,15.54-1.6,27.47c0,0-2.95,11.95-3.31,18.35" />
    <path class="detail-line" d="M43.57,155.74s2.02-2.57,2.45-2.57c0,0,4.72.18,8.27,11.27l-3.43,8.94s-.79,3.4,5.64,7.75c0,0-4.81.81-4.46,6.09" />
    <path class="detail-line" d="M54.25,152.7s-.72,14.98,1.95,23.67c0,0,5.14,20.34,5.36,22.29" />
    <path class="detail-line" d="M105.09,228.64s11.53.7,16.63-2.31l7.2,2.73,6.5-3.01s13.56,2.59,17.12,1.19" />
    <path class="detail-line" d="M115.86,234.44s14.54,6.08,26.84-1.47" />

    
    <path class="cls-eyebrow" d="M134.81,138.03s12.28-8.97,37.32-1.53c0,0-3.01-3.38-14.54-6.42,0,0-5.24-1.85-18.13.65,0,0-4.08,2.23-5.48,5.97l-.96,2.33,1.8-1Z" />
    <path class="cls-eyebrow" d="M119.49,138.41s-12.28-8.97-37.32-1.53c0,0,3.01-3.38,14.54-6.42,0,0,5.24-1.85,18.13.65,0,0,4.08,2.23,5.48,5.97l.96,2.33-1.8-1Z" />
  </g>

  <script>
    
      const muscles = document.querySelectorAll('.muscle');
      muscles.forEach(m =&gt; {
        m.addEventListener('click', (e) =&gt; {
          e.stopPropagation();
          m.classList.toggle('selected');
        });
      });
    
  </script>
</svg>