<?xml version='1.0' encoding='UTF-8'?>
<svg xmlns="http://www.w3.org/2000/svg" viewBox="0 0 148 378">
  <defs>
    <style>
      .cls-1 {
        stroke-width: .25px;
      }

      .cls-1, .cls-2, .cls-3 {
        fill: none;
        stroke: #221f20;
        stroke-miterlimit: 10;
      }

      .cls-2 {
        stroke-width: .5px;
      }

      /* Interactive Muscle Styles */
      .interactive-part { 
        cursor: pointer; 
        pointer-events: all; 
        transition: fill 0.2s; 
        fill: rgba(255,255,255,0.01); /* Transparent fill to catch clicks */
      }
      .interactive-part:hover { 
        fill: #00FF00 !important; 
      }
      .selected { 
        fill: #FF0000 !important; 
      }
    </style>
    <script type="text/javascript">
      function togglePart(elem) {
          elem.classList.toggle('selected');
      }
    </script>
  </defs>
  <g id="Layer_2" data-name="Layer 2">
    <path class="cls-3" d="M71.61,82.23s.86,11.75-6.83,23.22c0,0,7.91,5.69-.03,25.53,0,0-3.71,6.66,1.92,15.87,0,0,6.43,15.72,3.48,38.33,0,0-.56,8.14-3.23,20.08l-.14,18.96s1.21,9.23,2.85,12.91c.39.89.44,1.89.17,2.82l-1.34,4.63s4.35,8.43-.98,14.18c0,0-11.23,8.71-8.14,19.1,0,0,2.16,9.52-2.91,17.77,0,0-4.26,11.6-13.14,7.88,0,0-2.65-1.65,1.09-6.67l.14-1.66s.24-1.92,3.55-4.91c0,0-4.11.61-4.27,1.31s-2.04,3.14-2.04,3.14c0,0-.11,2.9-.63,3.42,0,0-5.53,6.55-6.76-.87,0,0-3.48.51-3.64-2.92,0,0-3.69-1.43-2.71-4.61,0,0-3.38-1.87-2-5.68l2.77-4.07s1.43-1.95,1.49-3.43c0,0-.2-1.38,2.71-4.56,0,0-.24-6.3,4.21-13.97,0,0,3.55-9.48,4.78-12.62,0,0-2.97-8.08.91-13.03,0,0,.91-8.58-.74-13.69,0,0-15.66-32.69-13.37-65.23,0,0,.95-15.53,5.27-24.04,0,0,2.43-3.38.54-8.1,0,0-1.62-13.5-1.08-22.69,0,0-4.59-8.78-5.13-15.39l43.23-1.01Z" />
    <path class="cls-1" d="M36.71,102.03s-2.72-2.7-3.5-3.91" />
    <path class="cls-1" d="M61.93,109.86s3.81-5.85,4.79-7.63" />
    <path class="cls-1" d="M59.98,117.93s.44,13.74-4.17,13.48c0,0-3.28.89-4.7,2.39" />
    <path class="cls-1" d="M56.87,136.99s-.54-4.57,0-5.81" />
    <path class="cls-1" d="M44,115.87s-2.45,6.54-.58,10.04" />
    <path class="cls-1" d="M42.31,114.46s.06,3.45.83,4.16" />
  </g>
  <g id="Layer_3" data-name="Layer 3">
    <path class="cls-2 interactive-part" onclick="togglePart(this)" d="M30.66,140.01l5.92,3.95s-1.69,27.9,7.19,51.58c0,0,4.51,22.41,3.66,28.75,0,0-3.8,1.97-4.37.99,0,0,.28-4.4-2.06-9.61,0,0-8.79-18.8-11.73-42.71,0,0-2.31-15.86,1.38-32.94Z" id="lower_leg_front_part_1" />
    <path class="cls-2 interactive-part" onclick="togglePart(this)" d="M38.79,144.41s18.16,8.16,26.82.33c0,0,10.99,16.91,1.33,59.97,0,0-1.25,11.5-.28,20.35,0,0-11.57-3.46-15.4-2.12,0,0-2.9-25.42-6.3-31.66,0,0-7.38-24.81-6.17-46.87Z" id="lower_leg_front_part_2" />
    <path class="cls-2 interactive-part" onclick="togglePart(this)" d="M43.04,228.39l4.16-1.21-.15,17.1-5.45,10.97-3.33-.3,3.78-9.61s-3.25-7.34.91-13.09l.08-3.86Z" id="lower_leg_front_part_3" />
    <path class="cls-2 interactive-part" onclick="togglePart(this)" d="M50.61,227.1s8.1-1.29,10.37.53l1.21,16.57s-2.42,18.08-3.33,19.07c0,0-8.1-8.25-13.01-7.19,0,0,1.36-6.28,3.71-10.06l1.06-18.92Z" id="lower_leg_front_part_4" />
    <path class="cls-2 interactive-part" onclick="togglePart(this)" d="M63.85,227.94l3.86,1.74s.63,4.64,1.77,7.32c.41.98.51,2.06.22,3.08l-1.3,4.5s4.77,8.55-1.44,14.45c0,0-5.3,5.22-5.22,6.13,0,0,2.42-14.53,2.27-16.65l-.15-20.58Z" id="lower_leg_front_part_5" />
    <path class="cls-2 interactive-part" onclick="togglePart(this)" d="M37.44,257.67s16.5,1.51,23.08,9.38c0,0-2.88,3.86-1.14,11.96,0,0,1.45,5.61-.76,11.12,0,0-5.75-5.37-12.94-1.89,0,0-9.91-2.65-15.74-10.14,0,0-.45-2.27,2.88-5.98,0,0-.08-5.86,4.62-14.45Z" id="lower_leg_front_part_6" />
    <path class="cls-2 interactive-part" onclick="togglePart(this)" d="M47.63,290.16s6.57-2.44,10.2,2.44c0,0-4.82,15.14-14.51,10.95,0,0-2.63-2.13,1.06-6.57,0,0-.38-1.25.75-3.19l2.5-3.63Z" id="lower_leg_front_part_7" />
    <path class="cls-2 interactive-part" onclick="togglePart(this)" d="M43.94,291.48s-1.88,2.56-2.19,3.19c0,0-.06,2.75-.5,3.44,0,0-5.88,6.82-6.82-.94,0,0,3.07-5.51,5.32-7.63,0,0,3.07.5,4.19,1.94Z" id="lower_leg_front_part_8" />
    <path class="cls-2 interactive-part" onclick="togglePart(this)" d="M35.99,287.27l3.76,2.27s-3.36,3.86-5.32,7.63c0,0-3.86.45-3.74-2.94,0,0-.06-1.72,5.3-6.96Z" id="lower_leg_front_part_9" />
    <path class="cls-2 interactive-part" onclick="togglePart(this)" d="M32.24,284.56l3.76,2.71s-4.62,4.13-5.3,6.96c0,0-3.33-1.29-2.65-4.74,0,0,1.54-2.28,4.19-4.93Z" id="lower_leg_front_part_10" />
    <path class="cls-2 interactive-part" onclick="togglePart(this)" d="M28.54,280.38l3.69,4.19s-3.69,3.94-4.19,4.93c0,0-3.02-.83-2.03-5.36l2.52-3.76Z" id="lower_leg_front_part_11" />
    <ellipse class="cls-2" cx="27.96" cy="285.64" rx=".67" ry="1.04" transform="translate(-193.79 103.43) rotate(-45)" />
    <ellipse class="cls-2" cx="30.71" cy="290.22" rx=".88" ry="1.29" transform="translate(-196.22 106.72) rotate(-45)" />
    <ellipse class="cls-2" cx="33.99" cy="293.14" rx="1.23" ry="1.62" transform="translate(-197.32 109.89) rotate(-45)" />
    <ellipse class="cls-2" cx="37.85" cy="297.06" rx="1.44" ry="1.75" transform="translate(-198.97 113.77) rotate(-45)" />
    <path class="cls-2 interactive-part" onclick="togglePart(this)" d="M45.72,298.2c.08-.11.19-.18.32-.21.83-.21,3.96-.88,3.96,1.03,0,.32-.09,1.51-.14,2.15-.02.21-.23.35-.43.28-1.17-.38-4.55-1.46-5.21-1.26-.02,0-.03-.01-.02-.03l1.52-1.96Z" id="lower_leg_front_part_12" />
    <path class="cls-3" d="M83.11,82.23s-.86,11.75,6.83,23.22c0,0-7.91,5.69.03,25.53,0,0,3.71,6.66-1.92,15.87,0,0-6.43,15.72-3.48,38.33,0,0,.56,8.14,3.23,20.08l.14,18.96s-1.21,9.23-2.85,12.91c-.39.89-.44,1.89-.17,2.82l1.34,4.63s-4.35,8.43.98,14.18c0,0,11.23,8.71,8.14,19.1,0,0-2.16,9.52,2.91,17.77,0,0,4.26,11.6,13.14,7.88,0,0,2.65-1.65-1.09-6.67l-.14-1.66s-.38-1.95-3.69-4.94c0,0,4.25.64,4.4,1.34s2.04,3.14,2.04,3.14c0,0,.11,2.9.63,3.42,0,0,5.53,6.55,6.76-.87,0,0,3.48.51,3.64-2.92,0,0,3.69-1.43,2.71-4.61,0,0,3.38-1.87,2-5.68l-2.77-4.07s-1.43-1.95-1.49-3.43c0,0,.2-1.38-2.71-4.56,0,0,.24-6.3-4.21-13.97,0,0-3.55-9.48-4.78-12.62,0,0,2.97-8.08-.91-13.03,0,0-.91-8.58.74-13.69,0,0,15.66-32.69,13.37-65.23,0,0-.95-15.53-5.27-24.04,0,0-2.43-3.38-.54-8.1,0,0,1.62-13.5,1.08-22.69,0,0,4.59-8.78,5.13-15.39l-43.23-1.01Z" />
    <path class="cls-1" d="M118.02,102.03s2.72-2.7,3.5-3.91" />
    <path class="cls-1" d="M92.8,109.86s-3.81-5.85-4.79-7.63" />
    <path class="cls-1" d="M94.75,117.93s-.44,13.74,4.17,13.48c0,0,3.28.89,4.7,2.39" />
    <path class="cls-1" d="M97.85,137s.54-4.57,0-5.81" />
    <path class="cls-1" d="M110.73,115.88s2.45,6.54.58,10.04" />
    <path class="cls-1" d="M112.42,114.46s-.06,3.45-.83,4.16" />
    <path class="cls-2 interactive-part" onclick="togglePart(this)" d="M124.07,140.01l-5.92,3.95s1.69,27.9-7.19,51.58c0,0-4.51,22.41-3.66,28.75,0,0,3.8,1.97,4.37.99,0,0-.28-4.4,2.06-9.61,0,0,8.79-18.8,11.73-42.71,0,0,2.31-15.86-1.38-32.94Z" id="lower_leg_front_part_13" />
    <path class="cls-2 interactive-part" onclick="togglePart(this)" d="M115.93,144.42s-18.16,8.16-26.82.33c0,0-10.99,16.91-1.33,59.97,0,0,1.25,11.5.28,20.35,0,0,11.57-3.46,15.4-2.12,0,0,2.9-25.42,6.3-31.66,0,0,7.38-24.81,6.17-46.87Z" id="lower_leg_front_part_14" />
    <path class="cls-2 interactive-part" onclick="togglePart(this)" d="M111.68,228.39l-4.16-1.21.15,17.1,5.45,10.97,3.33-.3-3.78-9.61s3.25-7.34-.91-13.09l-.08-3.86Z" id="lower_leg_front_part_15" />
    <path class="cls-2 interactive-part" onclick="togglePart(this)" d="M104.12,227.11s-8.1-1.29-10.37.53l-1.21,16.57s2.42,18.08,3.33,19.07c0,0,8.1-8.25,13.01-7.19,0,0-1.36-6.28-3.71-10.06l-1.06-18.92Z" id="lower_leg_front_part_16" />
    <path class="cls-2 interactive-part" onclick="togglePart(this)" d="M90.87,227.94l-3.86,1.74s-.63,4.64-1.77,7.32c-.41.98-.51,2.06-.22,3.08l1.3,4.5s-4.77,8.55,1.44,14.45c0,0,5.3,5.22,5.22,6.13,0,0-2.42-14.53-2.27-16.65l.15-20.58Z" id="lower_leg_front_part_17" />
    <path class="cls-2 interactive-part" onclick="togglePart(this)" d="M117.28,257.68s-16.5,1.51-23.08,9.38c0,0,2.88,3.86,1.14,11.96,0,0-1.45,5.61.76,11.12,0,0,5.75-5.37,12.94-1.89,0,0,9.91-2.65,15.74-10.14,0,0,.45-2.27-2.88-5.98,0,0,.08-5.86-4.62-14.45Z" id="lower_leg_front_part_18" />
    <path class="cls-2 interactive-part" onclick="togglePart(this)" d="M107.09,290.17s-6.57-2.44-10.2,2.44c0,0,4.82,15.14,14.51,10.95,0,0,2.63-2.13-1.06-6.57,0,0,.38-1.25-.75-3.19l-2.5-3.63Z" id="lower_leg_front_part_19" />
    <path class="cls-2 interactive-part" onclick="togglePart(this)" d="M110.78,291.48s1.88,2.56,2.19,3.19c0,0,.06,2.75.5,3.44,0,0,5.88,6.82,6.82-.94,0,0-3.07-5.51-5.32-7.63,0,0-3.07.5-4.19,1.94Z" id="lower_leg_front_part_20" />
    <path class="cls-2 interactive-part" onclick="togglePart(this)" d="M118.73,287.28l-3.76,2.27s3.36,3.86,5.32,7.63c0,0,3.86.45,3.74-2.94,0,0,.06-1.72-5.3-6.96Z" id="lower_leg_front_part_21" />
    <path class="cls-2 interactive-part" onclick="togglePart(this)" d="M122.49,284.57l-3.76,2.71s4.62,4.13,5.3,6.96c0,0,3.33-1.29,2.65-4.74,0,0-1.54-2.28-4.19-4.93Z" id="lower_leg_front_part_22" />
    <path class="cls-2 interactive-part" onclick="togglePart(this)" d="M126.19,280.38l-3.69,4.19s3.69,3.94,4.19,4.93c0,0,3.02-.83,2.03-5.36l-2.52-3.76Z" id="lower_leg_front_part_23" />
    <ellipse class="cls-2" cx="126.77" cy="285.65" rx="1.04" ry=".67" transform="translate(-164.85 173.3) rotate(-45)" />
    <ellipse class="cls-2" cx="124.02" cy="290.22" rx="1.29" ry=".88" transform="translate(-168.89 172.7) rotate(-45)" />
    <ellipse class="cls-2" cx="120.74" cy="293.14" rx="1.62" ry="1.23" transform="translate(-171.92 171.23) rotate(-45)" />
    <ellipse class="cls-2" cx="116.88" cy="297.06" rx="1.75" ry="1.44" transform="translate(-175.82 169.65) rotate(-45)" />
    <path class="cls-2 interactive-part" onclick="togglePart(this)" d="M109.01,298.21c-.08-.11-.19-.18-.32-.21-.83-.21-3.96-.88-3.96,1.03,0,.32.09,1.51.14,2.15.02.21.23.35.43.28,1.17-.38,4.55-1.46,5.21-1.26.02,0,.03-.01.02-.03l-1.52-1.96Z" id="lower_leg_front_part_24" />
  </g>
</svg>