<?xml version='1.0' encoding='UTF-8'?>
<svg xmlns="http://www.w3.org/2000/svg" viewBox="0 0 123 374">
  <defs>
    <style>
      .cls-1 {
        stroke-width: .25px;
      }

      .cls-1, .cls-2, .cls-3 {
        fill: none;
        stroke: #221f20;
        stroke-miterlimit: 10;
      }

      .cls-2 {
        stroke-width: .5px;
      }

      /* Interactive Muscle Styles */
      .interactive-part { 
        cursor: pointer; 
        pointer-events: all; 
        transition: fill 0.2s; 
        fill: rgba(255,255,255,0.01); /* Transparent fill to catch clicks */
      }
      .interactive-part:hover { 
        fill: #00FF00 !important; 
      }
      .selected { 
        fill: #FF0000 !important; 
      }
    </style>
    <script type="text/javascript">
      function togglePart(elem) {
          elem.classList.toggle('selected');
      }
    </script>
  </defs>
  <g id="Layer_2" data-name="Layer 2">
    <path class="cls-3" d="M102.99,91.35s2.78,39.44,5.75,54.29c0,0,1.35,21.7-4.91,38.07,0,0-5.54,22.39-2.89,35.39,0,0,3.35,6.54.91,12.01l1.61,4.16s.68,1.93.58,3l-.68,14.21s3.87,13.53,3.48,16.04c0,0,.1,1.64-.68,4.74,0,0,.92,4.47.26,6.22,0,0-.7,2.56-2.71,2.31,0,0,.45,4.32-3.31,3.16,0,0,.45,4.22-3.82,3.11,0,0-1.36,5.78-5.07,1.26,0,0-.06-.13.09-4.9,0,0-1.83-4.13-3.6-2.36l.06,1.94s1.59,5.31.73,7.31c0,0-1.64,5.18-5.13.68,0,0-4.59-5.04-2.41-8.36,0,0-1.78-4.41-2.42-9.92,0,0-1.06-7.48,2.38-15.95,0,0,4.34-10.64-1.59-15.9,0,0-13-8.15-3.77-18.39,0,0-2.56-1.82.74-11.32,0,0,4.73-23.29.31-32.14,0,0-10.76-20.99-1.85-50.47l2.4-7.37s-8.23-3.51-5.14-30.86l30.66.04Z" />
    <path class="cls-1" d="M82.17,102.49s-2.81,17.27-4.5,19.66" />
    <path class="cls-1" d="M80.07,113.67s12.34-6.5,16.03-2.2" />
    <line class="cls-1" x1="96.01" y1="107.36" x2="96.15" y2="113.06" />
    <path class="cls-1" d="M99.33,111.61s3.51-.7,5.42,4.63" />
    <path class="cls-1" d="M75.41,176.46s1.97,4.78,4.47,4.94" />
  </g>
  <g id="Layer_3" data-name="Layer 3">
    <path class="cls-2 interactive-part" onclick="togglePart(this)" d="M75.06,129.37s5.23,7.22,19.53,6.28c0,0,6.65,39.62-1.82,59.91,0,0-12.34.17-14.02.32,0,0,1.18-11.27-2.33-16.67,0,0-9.98-18.97-1.36-49.84Z" id="lower_leg_back_part_1" />
    <path class="cls-2 interactive-part" onclick="togglePart(this)" d="M98.47,135.69s5.41-.25,8.24-3.32c0,0,1.85,11.69,2.21,14.64,0,0,.74,21.78-5.04,36.29,0,0-2.91,15.16-3.05,16.62,0,0-4.92-1.47-5.68-2.54,0,0,10.14-41.82,3.32-61.69Z" id="lower_leg_back_part_2" />
    <path class="cls-2 interactive-part" onclick="togglePart(this)" d="M78.29,198.83s11.64-.19,13.5,1.02c0,0-2.24,14.62-2.79,16.95l-.28,6.24s-10.97-3.37-13.76-2.95c0,0-.12-2.96,1.65-7.81,0,0,2.04-10.12,1.68-13.45Z" id="lower_leg_back_part_3" />
    <path class="cls-2 interactive-part" onclick="togglePart(this)" d="M94.4,200.51l6.11,2.68s-.99,12.34.45,15.85c0,0,3.42,6.75.81,12.16l1.89,4.92s.75,1.12.19,4.96l-.33,10.63c0,.17-.23.23-.31.08l-6.83-12.25c-.09-.16-.15-.34-.17-.52-.09-.65-.29-2.3-.28-3.21,0-.28-.06-.56-.18-.82-.77-1.75-3.57-8.1-4.43-10.07-.17-.39-.24-.8-.19-1.22.28-2.85,1.48-14.57,2.82-22.94.04-.22.27-.34.47-.25Z" id="lower_leg_back_part_4" />
    <path class="cls-2 interactive-part" onclick="togglePart(this)" d="M74.25,225.59c.89-1.43,2.41-2.35,4.08-2.5,2.03-.19,5.01.12,7.96,2.52,0,0,7.51,5.27,7.75,12.36,0,0-.61,8.3-14.11,4.12,0,0-8.84-5.21-7.09-13.39,0,0,.38-1.47,1.4-3.11Z" id="lower_leg_back_part_5" />
    <path class="cls-2 interactive-part" onclick="togglePart(this)" d="M82.33,245.15c1.52.87,5.44,2.24,11.73-1.49.1-.06.24-.04.3.06.97,1.48,7.76,11.88,8.09,14.85,0,.07-.02.13-.06.18-.59.6-4.8,4.48-13.49,3.8l-8.97-.18c-.16,0-.27-.17-.2-.32.83-1.79,4.83-10.93,2.29-16.61-.09-.2.12-.4.31-.29Z" id="lower_leg_back_part_6" />
    <path class="cls-2 interactive-part" onclick="togglePart(this)" d="M79.37,264.14c.66.16,16.13,3.75,25.92-3.13.01,0,.03,0,.03,0,.13.35,1.58,4.38,1.44,7.61,0,0,0,0,0,0-.06.07-4.13,4.96-8.87,7.13-.24.11-2.96,1.19-3.18,1.34-.89.63-3.07,2.07-5.55,2.79h0s-2.25.25-4.91-1.97c-.35-.29-.77-.47-1.21-.56-1.2-.22-3.67-1.21-4.32-5.6h0s0-5.62.62-7.62c0-.01.02-.02.03-.02Z" id="lower_leg_back_part_7" />
    <path class="cls-2 interactive-part" onclick="togglePart(this)" d="M80.8,282.02s-2.38-7.33-1.75-8.55c0,0,.95,3.63,4.47,3.95,0,0,2.47,2.15,4.05,2.32,0,0,.58,1.95.47,4.42,0,0,1.74,5.53.58,7.63,0,0-1.63,4.37-5.05.37,0,0-4.42-5.32-2.37-8.53l-.41-1.61Z" id="lower_leg_back_part_8" />
    <path class="cls-2 interactive-part" onclick="togglePart(this)" d="M91.62,284.42s-.7,4.09,0,5c0,0,3.18,4.39,4.89-1.31,0,0-.14-1.83-.81-3.32l-.94-7.67s-3.31,1.97-4.44,2.51c0,0,1.25,4.37,1.3,4.79Z" id="lower_leg_back_part_9" />
    <path class="cls-1" d="M83.5,283.64s3.15-.35,4.56.52" />
    <path class="cls-1" d="M88.59,266.37s4.02,3.04,8.13-.49" />
    <path class="cls-2 interactive-part" onclick="togglePart(this)" d="M96.17,283.08s-.27,3.84.57,4.56c0,0,2.69,1.91,3.51-1.86,0,0,.15-1.9-.68-3.1l-.79-7.16s-3.08,1.08-4.03,1.58c0,0,1.32,4.54,1.41,5.97Z" id="lower_leg_back_part_10" />
    <path class="cls-2 interactive-part" onclick="togglePart(this)" d="M99.98,280.61s-.11,3.64.61,4.25c0,0,3,1.08,3-2.28,0,0-.08-1.97-.79-2.99l-.87-6.33s-1.62,1.3-2.89,1.95c0,0,.86,4.18.94,5.4Z" id="lower_leg_back_part_11" />
    <path class="cls-2 interactive-part" onclick="togglePart(this)" d="M103.16,278.43s-.16,2.36.54,3.15c0,0,2.32.93,3.02-3.09,0,0,.14-3.52-.48-4.42l-.82-3.91s-2.32,2.25-3.24,2.92c0,0,.91,4.28.98,5.35Z" id="lower_leg_back_part_12" />
    <path class="cls-1" d="M103.16,278.43s.94-1.42,2.35-.55" />
    <path class="cls-1" d="M99.98,280.61s1.35-1.83,2.75-.96" />
    <path class="cls-1" d="M96.12,283.17c-.07.11,1.35-1.4,3.45-.48" />
    <path class="cls-1" d="M91.72,284.52s1.95-1.42,3.86.21" />
    <path class="cls-3" d="M23.44,92.34s-2.78,39.44-5.75,54.29c0,0-1.35,21.7,4.91,38.07,0,0,5.54,22.39,2.89,35.39,0,0-3.35,6.54-.91,12.01l-1.61,4.16s-.68,1.93-.58,3l.68,14.21s-3.87,13.53-3.48,16.04c0,0-.1,1.64.68,4.74,0,0-.92,4.47-.26,6.22,0,0,.7,2.56,2.71,2.31,0,0-.45,4.32,3.31,3.16,0,0-.45,4.22,3.82,3.11,0,0,1.36,5.78,5.07,1.26,0,0,.06-.13-.09-4.9,0,0,1.83-4.13,3.6-2.36l-.06,1.94s-1.59,5.31-.73,7.31c0,0,1.64,5.18,5.13.68,0,0,4.59-5.04,2.41-8.36,0,0,1.78-4.41,2.42-9.92,0,0,1.06-7.48-2.38-15.95,0,0-4.34-10.64,1.59-15.9,0,0,13-8.15,3.77-18.39,0,0,2.56-1.82-.74-11.32,0,0-4.73-23.29-.31-32.14,0,0,10.76-20.99,1.85-50.47l-2.4-7.37s8.23-3.51,5.14-30.86l-30.66.04Z" />
    <path class="cls-1" d="M44.25,103.48s2.81,17.27,4.5,19.66" />
    <path class="cls-1" d="M46.36,114.66s-12.34-6.5-16.03-2.2" />
    <line class="cls-1" x1="30.42" y1="108.35" x2="30.28" y2="114.05" />
    <path class="cls-1" d="M27.1,112.6s-3.51-.7-5.42,4.63" />
    <path class="cls-1" d="M51.02,177.45s-1.97,4.78-4.47,4.94" />
    <path class="cls-2 interactive-part" onclick="togglePart(this)" d="M51.37,130.35s-5.23,7.22-19.53,6.28c0,0-6.65,39.62,1.82,59.91,0,0,12.34.17,14.02.32,0,0-1.18-11.27,2.33-16.67,0,0,9.98-18.97,1.36-49.84Z" id="lower_leg_back_part_13" />
    <path class="cls-2 interactive-part" onclick="togglePart(this)" d="M27.96,136.68s-5.41-.25-8.24-3.32c0,0-1.85,11.69-2.21,14.64,0,0-.74,21.78,5.04,36.29,0,0,2.91,15.16,3.05,16.62,0,0,4.92-1.47,5.68-2.54,0,0-10.14-41.82-3.32-61.69Z" id="lower_leg_back_part_14" />
    <path class="cls-2 interactive-part" onclick="togglePart(this)" d="M48.14,199.81s-11.64-.19-13.5,1.02c0,0,2.24,14.62,2.79,16.95l.28,6.24s10.97-3.37,13.76-2.95c0,0,.12-2.96-1.65-7.81,0,0-2.04-10.12-1.68-13.45Z" id="lower_leg_back_part_15" />
    <path class="cls-2 interactive-part" onclick="togglePart(this)" d="M32.03,201.49l-6.11,2.68s.99,12.34-.45,15.85c0,0-3.42,6.75-.81,12.16l-1.89,4.92s-.75,1.12-.19,4.96l.33,10.63c0,.17.23.23.31.08l6.83-12.25c.09-.16.15-.34.17-.52.09-.65.29-2.3.28-3.21,0-.28.06-.56.18-.82.77-1.75,3.57-8.1,4.43-10.07.17-.39.24-.8.19-1.22-.28-2.85-1.48-14.57-2.82-22.94-.04-.22-.27-.34-.47-.25Z" id="lower_leg_back_part_16" />
    <path class="cls-2 interactive-part" onclick="togglePart(this)" d="M52.18,226.57c-.89-1.43-2.41-2.35-4.08-2.5-2.03-.19-5.01.12-7.96,2.52,0,0-7.51,5.27-7.75,12.36,0,0,.61,8.3,14.11,4.12,0,0,8.84-5.21,7.09-13.39,0,0-.38-1.47-1.4-3.11Z" id="lower_leg_back_part_17" />
    <path class="cls-2 interactive-part" onclick="togglePart(this)" d="M44.1,246.14c-1.52.87-5.44,2.24-11.73-1.49-.1-.06-.24-.04-.3.06-.97,1.48-7.76,11.88-8.09,14.85,0,.07.02.13.06.18.59.6,4.8,4.48,13.49,3.8l8.97-.18c.16,0,.27-.17.2-.32-.83-1.79-4.83-10.93-2.29-16.61.09-.2-.12-.4-.31-.29Z" id="lower_leg_back_part_18" />
    <path class="cls-2 interactive-part" onclick="togglePart(this)" d="M47.06,265.13c-.66.16-16.13,3.75-25.92-3.13-.01,0-.03,0-.03,0-.13.35-1.58,4.38-1.44,7.61,0,0,0,0,0,0,.06.07,4.13,4.96,8.87,7.13.24.11,2.96,1.19,3.18,1.34.89.63,3.07,2.07,5.55,2.79h0s2.25.25,4.91-1.97c.35-.29.77-.47,1.21-.56,1.2-.22,3.67-1.21,4.32-5.6h0s0-5.62-.62-7.62c0-.01-.02-.02-.03-.02Z" id="lower_leg_back_part_19" />
    <path class="cls-2 interactive-part" onclick="togglePart(this)" d="M45.63,283.01s2.38-7.33,1.75-8.55c0,0-.95,3.63-4.47,3.95,0,0-2.47,2.15-4.05,2.32,0,0-.58,1.95-.47,4.42,0,0-1.74,5.53-.58,7.63,0,0,1.63,4.37,5.05.37,0,0,4.42-5.32,2.37-8.53l.41-1.61Z" id="lower_leg_back_part_20" />
    <path class="cls-2 interactive-part" onclick="togglePart(this)" d="M34.81,285.4s.7,4.09,0,5c0,0-3.18,4.39-4.89-1.31,0,0,.14-1.83.81-3.32l.94-7.67s3.31,1.97,4.44,2.51c0,0-1.25,4.37-1.3,4.79Z" id="lower_leg_back_part_21" />
    <path class="cls-1" d="M42.93,284.62s-3.15-.35-4.56.52" />
    <path class="cls-1" d="M37.84,267.36s-4.02,3.04-8.13-.49" />
    <path class="cls-2 interactive-part" onclick="togglePart(this)" d="M30.26,284.07s.27,3.84-.57,4.56c0,0-2.69,1.91-3.51-1.86,0,0-.15-1.9.68-3.1l.79-7.16s3.08,1.08,4.03,1.58c0,0-1.32,4.54-1.41,5.97Z" id="lower_leg_back_part_22" />
    <path class="cls-2 interactive-part" onclick="togglePart(this)" d="M26.44,281.6s.11,3.64-.61,4.25c0,0-3,1.08-3-2.28,0,0,.08-1.97.79-2.99l.87-6.33s1.62,1.3,2.89,1.95c0,0-.86,4.18-.94,5.4Z" id="lower_leg_back_part_23" />
    <path class="cls-2 interactive-part" onclick="togglePart(this)" d="M23.27,279.42s.16,2.36-.54,3.15c0,0-2.32.93-3.02-3.09,0,0-.14-3.52.48-4.42l.82-3.91s2.32,2.25,3.24,2.92c0,0-.91,4.28-.98,5.35Z" id="lower_leg_back_part_24" />
    <path class="cls-1" d="M23.27,279.42s-.94-1.42-2.35-.55" />
    <path class="cls-1" d="M26.44,281.6s-1.35-1.83-2.75-.96" />
    <path class="cls-1" d="M30.31,284.15c.07.11-1.35-1.4-3.45-.48" />
    <path class="cls-1" d="M34.71,285.5s-1.95-1.42-3.86.21" />
  </g>
</svg>