<?xml version='1.0' encoding='UTF-8'?>
<svg xmlns="http://www.w3.org/2000/svg" viewBox="0 0 162 407">
  <defs>
    <style>
      .cls-1, .cls-2, .cls-3 {
        stroke: #111118;
      }

      .cls-1, .cls-2, .cls-3, .cls-4 {
        fill: none;
        stroke-miterlimit: 10;
      }

      .cls-1, .cls-4 {
        stroke-width: .5px;
      }

      .cls-2 {
        stroke-width: .25px;
      }

      .cls-3 {
        stroke-width: .75px;
      }

      .cls-4 {
        stroke: #221f20;
      }

      /* Interactive Muscle Styles */
      .interactive-part { 
        cursor: pointer; 
        pointer-events: all; 
        transition: fill 0.2s; 
        fill: rgba(255,255,255,0.01); /* Transparent fill to catch clicks */
      }
      .interactive-part:hover { 
        fill: #00FF00 !important; 
      }
      .selected { 
        fill: #FF0000 !important; 
      }
    </style>
    <script type="text/javascript">
      function togglePart(elem) {
          elem.classList.toggle('selected');
      }
    </script>
  </defs>
  <g id="Layer_2" data-name="Layer 2">
    <path class="cls-3" d="M83.61,224.28c.01,5.05-1.91,10.38-1.91,10.38-5.34,19.43-7.52,37.38-7.52,37.38,1.35,13.43-1.95,20.3-1.95,20.3,3.91,8.09-1.13,23.04-1.13,23.04,1.5,1.37.6,9.23.6,9.23l-22.91-.15c-.8-7.63,1.09-20.26,1.09-20.26l-.64-18.52c-12.15-16.08-5.81-72.5-5.81-72.5.41-15.65,7.83-40.56,7.83-40.56-1.75-2.04-.82-6.81-.82-6.81,1.56-3,.78-11.23.78-11.23-1.25-.79-4.2-15.81-4.2-15.81-1.87-4.74-2.33-24.51-2.33-24.51-.25,11.6-3.27,27.67-3.27,27.67-2.49,3.95-2.65,15.34-2.65,15.34l-19.76-1.26c-.16-1.26,4.2-11.86,4.2-11.86-1.4-10.75,1.09-22.61,1.09-22.61.78-3.64.31-11.7.31-11.7-3.11-12.33,6.69-26.56,6.69-26.56,4.82-7.27,9.03-4.9,9.03-4.9l4.2-2.53s8.85-2.97,15.27-2.1c0,0,16.59,3.5,23.48,3.08l.34,147.46Z" />
    <path class="cls-2" d="M36.99,110.16s2.41-.84,4.54-2.44c1.28-.96,2.45-2.18,2.94-3.66" />
    <path class="cls-2" d="M44.69,114.47c-.3.01-.65-4.3-2.84-7.08" />
    <path class="cls-2" d="M44.46,113.97c1.26,1.61,2.16,2.64,2.74,3.29.78.87,1.7,1.59,2.73,2.14,1.14.6,2.58,1.2,3.71,1.14" />
    <path class="cls-2" d="M53.61,92.15s2.3-2.55,2.48-4.2" />
    <path class="cls-2" d="M69.57,82.84c0,1.66,6.63.44,6.63.44l4.9.33" />
    <path class="cls-2" d="M77.07,123.83s-.76,4.7-6.47,7.62c0,0,1.35,6.26-5.42,9.24,0,0-.19,17.16-13.75,16.27" />
    <path class="cls-2" d="M54.16,297.46s3.24.84,3.24,10c0,0,.28,1.48,2.11,2.32" />
    <path class="cls-2" d="M50.36,304.78s.77,3.66,2.04,4.01" />
    <path class="cls-2" d="M69.51,304.64s-1.01,2.75-2.81,4.27c-.98.82-2.19,1.28-3.6.73" />
    <path class="cls-2" d="M67.11,313.14s-1.02-2.95-.35-4.06" />
    <path class="cls-2" d="M69.19,318.3s1.39-1.77,2-3.31" />
    <path class="cls-2" d="M72.34,291.84s-1.24,3.28-1.6,3.7" />
    <path class="cls-1" d="M80.25,228.67s.38,11.4-1.33,16.72" />
    <ellipse class="cls-2" cx="56.9" cy="116.46" rx="2.53" ry="1.87" />
    <path class="cls-2" d="M70.34,89.1s8.83,7.89,9.46,17.03" />
    <path class="cls-3" d="M83.05,224.33c-.01,5.05,1.91,10.38,1.91,10.38,5.34,19.43,7.52,37.38,7.52,37.38-1.35,13.43,1.95,20.3,1.95,20.3-3.91,8.09,1.13,23.04,1.13,23.04-1.5,1.37-.6,9.23-.6,9.23l22.91-.15c.8-7.63-1.09-20.26-1.09-20.26l.64-18.52c12.15-16.08,5.81-72.5,5.81-72.5-.41-15.65-7.83-40.56-7.83-40.56,1.75-2.04.82-6.81.82-6.81-1.56-3-.78-11.23-.78-11.23,1.25-.79,4.2-15.81,4.2-15.81,1.87-4.74,2.33-24.51,2.33-24.51.25,11.6,3.27,27.67,3.27,27.67,2.49,3.95,2.65,15.34,2.65,15.34l19.76-1.26c.16-1.26-4.2-11.86-4.2-11.86,1.4-10.75-1.09-22.61-1.09-22.61-.78-3.64-.31-11.7-.31-11.7,3.11-12.33-6.69-26.56-6.69-26.56-4.82-7.27-9.03-4.9-9.03-4.9l-4.2-2.53s-8.85-2.97-15.27-2.1c0,0-16.59,3.5-23.48,3.08l-.34,147.46Z" />
    <path class="cls-2" d="M129.44,110.21s-2.41-.84-4.54-2.44c-1.28-.96-2.45-2.18-2.94-3.66" />
    <path class="cls-2" d="M121.74,114.51c.3.01.65-4.3,2.84-7.08" />
    <path class="cls-2" d="M121.97,114.01c-1.26,1.61-2.16,2.64-2.74,3.29-.78.87-1.7,1.59-2.73,2.14-1.14.6-2.58,1.2-3.71,1.14" />
    <path class="cls-2" d="M112.82,92.2s-2.3-2.55-2.48-4.2" />
    <path class="cls-2" d="M96.86,82.89c0,1.66-6.63.44-6.63.44l-4.9.33" />
    <path class="cls-2" d="M89.36,123.87s.76,4.7,6.47,7.62c0,0-1.35,6.26,5.42,9.24,0,0,.19,17.16,13.75,16.27" />
    <path class="cls-2" d="M112.27,297.51s-3.24.84-3.24,10c0,0-.28,1.48-2.11,2.32" />
    <path class="cls-2" d="M116.07,304.83s-.77,3.66-2.04,4.01" />
    <path class="cls-2" d="M96.92,304.69s1.01,2.75,2.81,4.27c.98.82,2.19,1.28,3.6.73" />
    <path class="cls-2" d="M99.32,313.18s1.02-2.95.35-4.06" />
    <path class="cls-2" d="M97.25,318.35s-1.39-1.77-2-3.31" />
    <path class="cls-2" d="M94.1,291.88s1.24,3.28,1.6,3.7" />
    <path class="cls-1" d="M86.18,228.72s-.38,11.4,1.33,16.72" />
    <ellipse class="cls-2" cx="109.54" cy="116.51" rx="2.53" ry="1.87" />
    <path class="cls-2" d="M96.1,89.15s-8.83,7.89-9.46,17.03" />
    <path class="cls-4 interactive-part" onclick="togglePart(this)" d="M118.67,185.92s-8.24,6.65-9.76,10.33c0,0-.82,3.23-.51,5.13,0,0,7.67-1.71,13.25-1.27,0,0-2.66-13.31-2.98-14.2Z" id="middle_front_part_1" />
    <path class="cls-4 interactive-part" onclick="togglePart(this)" d="M82.86,187.63s8.9-.62,13.15,9.9l1.93,4.49s.77,1.86-.85,3.94l-13.85,22.97s-.57-3.26-.42-6.09l.04-35.22Z" id="middle_front_part_2" />
    <path class="cls-4 interactive-part" onclick="togglePart(this)" d="M115.02,172.63s-21.26,4.35-32.11.92l-.19,11.62s4.95-1.71,11.42,3.9c0,0,6.38,8.57,5.9,14l7.14-1.81s-2.57-8.19,3.9-11.52l7.24-5.81s-2.8-11.27-3.3-11.3Z" id="middle_front_part_3" />
  </g>
  <g id="Layer_3" data-name="Layer 3">
    <path class="cls-4 interactive-part" onclick="togglePart(this)" d="M47.76,185.87s8.24,6.65,9.76,10.33c0,0,.82,3.23,.51,5.13,0,0-7.67-1.71-13.25-1.27,0,0,2.66-13.31,2.98-14.2Z" id="middle_front_part_4" />
    <path class="cls-4 interactive-part" onclick="togglePart(this)" d="M83.57,187.59s-8.9-.62-13.15,9.9l-1.93,4.49s-.77,1.86.85,3.94l13.85,22.97s.57-3.26.42-6.09l-.04-35.22Z" id="middle_front_part_5" />
    <path class="cls-4 interactive-part" onclick="togglePart(this)" d="M51.41,172.58s21.26,4.35,32.11.92l.19,11.62s-4.95-1.71-11.42,3.9c0,0-6.38,8.57-5.9,14l-7.14-1.81s2.57-8.19-3.9-11.52l-7.24-5.81s2.8-11.27,3.3-11.3Z" id="middle_front_part_6" />
  </g>
</svg>