<?xml version='1.0' encoding='UTF-8'?>
<svg xmlns="http://www.w3.org/2000/svg" viewBox="0 0 134 251">
  <defs>
    <style>
      .cls-1 {
        stroke-width: .25px;
      }

      .cls-1, .cls-2 {
        fill: none;
        stroke: #221f20;
        stroke-miterlimit: 10;
      }

      .cls-2 {
        stroke-width: .5px;
      }

      /* Interactive Muscle Styles */
      .interactive-part { 
        cursor: pointer; 
        pointer-events: all; 
        transition: fill 0.2s; 
        fill: rgba(255,255,255,0.01); /* Transparent fill to catch clicks */
      }
      .interactive-part:hover { 
        fill: #00FF00 !important; 
      }
      .selected { 
        fill: #FF0000 !important; 
      }
    </style>
    <script type="text/javascript">
      function togglePart(elem) {
          elem.classList.toggle('selected');
      }
    </script>
  </defs>
  <g id="Layer_2" data-name="Layer 2">
    <path class="cls-2" d="M55.97,61.81s-4.61,10.66,2.86,25.13c0,0,7.95,11.77,5.41,31.65,0,0-1.43,13.04-4.93,17.97,0,0-3.7,22.14-.36,27.18,0,0,8.38,12.91-3.79,14.36,0,0-6.58,1-11.07-1.45,0,0-4.04-1.05-12.21,1.84,0,0-1.3.35-2.54-.1,0,0-3.74,2.79-6.18,2.09,0,0-.37-.12-1.49-.25,0,0-1.38,2.63-4.76,2-.19-.04-.58-.09-.86-.22-.14-.06-.27-.12-.33-.12-.12,0-1.87.8-2.83.13-.04-.03-.2-.31-.41-.64-.05-.07-.01-.14-.05-.09-.7.91-1.38.75-2.36-.07-.04-.03,0-.03-.06-.02-1.99.33-2.28-1.28-2.15-1.63,0,0,.04-.97,2.53-2.24,0,0-4.19,1.54-5.74-.01,0,0-1.08-1.86.96-2.57,0,0,1.8-.25,3.44-1.3l2.38-.34s3.59-.62,7.61-2.45c.08-.04.17-.08.25-.12,4.12-1.92,9.69-6.04,9.69-6.04,0,0,5.78-5.45,8.08-6.51,0,0,2.21-4.46,1.15-11.18,0,0-5.44-34.46-2.21-51.93l.98-8.41s-5.41-8.64-4.37-13.84l-2.91-8.43,26.28-2.39Z" />
    <path class="cls-1" d="M48.49,76.39s1.26,2.31.51,4.29" />
    <path class="cls-1" d="M35.4,83.86s1.81,4.99,6.59,3.29" />
    <path class="cls-1" d="M50.09,156.28s.95,8.05,1.16,8.47c0,0-.11,2.01-2.75,2.12" />
  </g>
  <g id="Layer_3" data-name="Layer 3">
    <path class="cls-2 interactive-part" onclick="togglePart(this)" d="M61.04,91.23c-.65.98-5.27,2.79-5.27,2.79,4.55,10.61.36,32.73.36,32.73-1.06,2.83-2.46,22.94-2.46,22.94l4.26-1.2c-.03-.28.69-8.67,1.38-11.94,0,0,3.15-4.53,4.65-15.58,0,0,2.13-13.66-.74-22.98l-2.17-6.76Z" id="side_leg_part_1" />
    <path class="cls-2 interactive-part" onclick="togglePart(this)" d="M41.92,96.64s4.27.83,11.62-1.88c0,0,4.78,12.42,1.09,27.56,0,0-2.46,24.01-2.05,28.11l-7.5.27s-5.05-49.34-3.16-54.06Z" id="side_leg_part_2" />
    <path class="cls-2 interactive-part" onclick="togglePart(this)" d="M36.02,94.74l4.62,1.93s-1.5,24.19.56,34.52l1.72,19.38-4.59-1.49s-4.47-29.98-3.15-46.72l.84-7.62Z" id="side_leg_part_3" />
    <path class="cls-2 interactive-part" onclick="togglePart(this)" d="M54.12,151.96l3.54-1.21s-.58,9.19.84,12.25c0,0,4.38,6.07,3.01,10.35,0,0-4.75-4.12-6.23-7.6,0,0-1.06-2.9-1.16-13.78Z" id="side_leg_part_4" />
    <path class="cls-2 interactive-part" onclick="togglePart(this)" d="M38.47,151.97s3.41-.22,4.75,1.55c0,0,3.6,9.67-8.37,14.33,0,0-2.52-4.23-4.03-4.92,0,0,4.01-3.88,6.3-4.88,0,0,1.42-4.7,1.36-6.08Z" id="side_leg_part_5" />
    <path class="cls-2 interactive-part" onclick="togglePart(this)" d="M45.18,152.44s4.93.33,6.93-.4c0,0,1.2,15.46,2.87,16.66,0,0,.67,2.87-5.73,5.13l-12.73,2.87s.13-4.73-1.2-5.73c0,0,8.13-5.2,9.99-10.06l-.13-8.46Z" id="side_leg_part_6" />
    <path class="cls-2 interactive-part" onclick="togglePart(this)" d="M14.6,172.36s7.86-2.6,14.86-8.13c0,0,5.46,4.66,4.53,13.39,0,0-1.6,1.53-4.8.73,0,0-3.93,2.73-6.06,2,0,0,.6-3.46-4-4.73,0,0-4.8-1.53-4.53-3.26Z" id="side_leg_part_7" />
    <path class="cls-2 interactive-part" onclick="togglePart(this)" d="M44.18,176.62s7.02.14,12.1-5.44c0,0,4.01,3.22,4.44,4.37,0,0-4.37,5.3-16.54,1.07Z" id="side_leg_part_8" />
    <path class="cls-2 interactive-part" onclick="togglePart(this)" d="M21.5,176.87s-4.39,2.37-5.37,3.9c0,0-.32,1.07.04,1.29,0,0,3.7.91,5.34-1.52l.17-.31,1.49.25s.24-2.47-1.66-3.62Z" id="side_leg_part_9" />
    <path class="cls-2 interactive-part" onclick="togglePart(this)" d="M19.13,175.63s-3.01,1.95-3.54,2.74l-1.92.9s-1.56,1.23-.96,2.55c0,0,.71.87,3.23.04l.12-.67c.06-.31.2-.6.42-.83.55-.56,1.9-1.7,5.05-3.49,0,0-.23-.64-2.41-1.25Z" id="side_leg_part_10" />
    <path class="cls-2 interactive-part" onclick="togglePart(this)" d="M17.63,175.02s-3.07,1.84-3.07,2.05c0,0-2.5,1.26-2.73,1.79,0,0-2.57.08-1.68,2.42,0,0,1.5,1.56,2.35-.13,0,0-.14-.55.96-1.67.14-.14.31-.25.48-.34l1.45-.67c.13-.06.25-.14.36-.24.5-.48,2.14-1.98,3.38-2.6l-1.5-.61Z" id="side_leg_part_11" />
    <path class="cls-2 interactive-part" onclick="togglePart(this)" d="M15.87,174.19l-3.12,1.96s-.28-.03-1.67,1.07c0,0-1.58.51-1.97,1.08,0,0-.99.02-1.3,1.56,0,0,.18,1.74,2.26,1.37,0,0-.75-2.31,1.75-2.38,0,0,1.15-1.13,2.59-1.73.09-.04.17-.08.25-.14.42-.32,1.92-1.44,2.96-1.96l-1.75-.82Z" id="side_leg_part_12" />
    <path class="cls-2 interactive-part" onclick="togglePart(this)" d="M14.6,172.36l-5.31,1.03s-2.19,1.22-3.94,1.44c0,0-1.96,1.1-.31,2.79,0,0,.71.59,3.13.3,0,0,1.9-.34,3.47-1.19l4.01-2.67s-1.17-.96-1.04-1.7Z" id="side_leg_part_13" />
    <ellipse class="cls-1" cx="17.22" cy="180.67" rx=".19" ry=".54" transform="translate(-138.43 87.34) rotate(-53.61)" />
    <ellipse class="cls-1" cx="14.8" cy="179.75" rx=".38" ry=".78" transform="translate(-138.67 85.02) rotate(-53.61)" />
    <ellipse class="cls-1" cx="11.8" cy="179.57" rx=".42" ry=".77" transform="translate(-139.75 82.53) rotate(-53.61)" />
    <ellipse class="cls-1" cx="9.32" cy="178.88" rx=".19" ry=".54" transform="translate(-140.21 80.25) rotate(-53.61)" />
    <path class="cls-1 interactive-part" onclick="togglePart(this)" d="M6.82,174.54l1.13,1.22s-.36,1.25-2.27.83c0,0-1.15-.62-.35-1.75l1.48-.3Z" id="side_leg_part_14" />
    <path class="cls-2" d="M80.75,60.76s4.61,10.66-2.86,25.13c0,0-7.95,11.77-5.41,31.65,0,0,1.43,13.04,4.93,17.97,0,0,3.7,22.14.36,27.18,0,0-8.38,12.91,3.79,14.36,0,0,6.58,1,11.07-1.45,0,0,4.04-1.05,12.21,1.84,0,0,1.3.35,2.54-.1,0,0,3.74,2.79,6.18,2.09,0,0,.37-.12,1.49-.25,0,0,1.38,2.63,4.76,2,.19-.04.58-.09.86-.22.14-.06.27-.12.33-.12.12,0,1.87.8,2.83.13.04-.03.2-.31.41-.64.05-.07.01-.14.05-.09.7.91,1.38.75,2.36-.07.04-.03,0-.03.06-.02,1.99.33,2.28-1.28,2.15-1.63,0,0-.04-.97-2.53-2.24,0,0,4.19,1.54,5.74-.01,0,0,1.08-1.86-.96-2.57,0,0-1.8-.25-3.44-1.3l-2.38-.34s-3.59-.62-7.61-2.45c-.08-.04-.17-.08-.25-.12-4.12-1.92-9.69-6.04-9.69-6.04,0,0-5.78-5.45-8.08-6.51,0,0-2.21-4.46-1.15-11.18,0,0,5.44-34.46,2.21-51.93l-.98-8.41s5.41-8.64,4.37-13.84l2.91-8.43-26.28-2.39Z" />
    <path class="cls-1" d="M88.23,75.33s-1.26,2.31-.51,4.29" />
    <path class="cls-1" d="M101.31,82.8s-1.81,4.99-6.59,3.29" />
    <path class="cls-1" d="M86.63,155.23s-.95,8.05-1.16,8.47c0,0,.11,2.01,2.75,2.12" />
    <path class="cls-2 interactive-part" onclick="togglePart(this)" d="M75.67,90.18c.65.98,5.27,2.79,5.27,2.79-4.55,10.61-.36,32.73-.36,32.73,1.06,2.83,2.46,22.94,2.46,22.94l-4.26-1.2c.03-.28-.69-8.67-1.38-11.94,0,0-3.15-4.53-4.65-15.58,0,0-2.13-13.66.74-22.98l2.17-6.76Z" id="side_leg_part_15" />
    <path class="cls-2 interactive-part" onclick="togglePart(this)" d="M94.8,95.59s-4.27.83-11.62-1.88c0,0-4.78,12.42-1.09,27.56,0,0,2.46,24.01,2.05,28.11l7.5.27s5.05-49.34,3.16-54.06Z" id="side_leg_part_16" />
    <path class="cls-2 interactive-part" onclick="togglePart(this)" d="M100.7,93.68l-4.62,1.93s1.5,24.19-.56,34.52l-1.72,19.38,4.59-1.49s4.47-29.98,3.15-46.72l-.84-7.62Z" id="side_leg_part_17" />
    <path class="cls-2 interactive-part" onclick="togglePart(this)" d="M82.59,150.9l-3.54-1.21s.58,9.19-.84,12.25c0,0-4.38,6.07-3.01,10.35,0,0,4.75-4.12,6.23-7.6,0,0,1.06-2.9,1.16-13.78Z" id="side_leg_part_18" />
    <path class="cls-2 interactive-part" onclick="togglePart(this)" d="M98.24,150.91s-3.41-.22-4.75,1.55c0,0-3.6,9.67,8.37,14.33,0,0,2.52-4.23,4.03-4.92,0,0-4.01-3.88-6.3-4.88,0,0-1.42-4.7-1.36-6.08Z" id="side_leg_part_19" />
    <path class="cls-2 interactive-part" onclick="togglePart(this)" d="M91.54,151.39s-4.93.33-6.93-.4c0,0-1.2,15.46-2.87,16.66,0,0-.67,2.87,5.73,5.13l12.73,2.87s-.13-4.73,1.2-5.73c0,0-8.13-5.2-9.99-10.06l.13-8.46Z" id="side_leg_part_20" />
    <path class="cls-2 interactive-part" onclick="togglePart(this)" d="M122.12,171.31s-7.86-2.6-14.86-8.13c0,0-5.46,4.66-4.53,13.39,0,0,1.6,1.53,4.8.73,0,0,3.93,2.73,6.06,2,0,0-.6-3.46,4-4.73,0,0,4.8-1.53,4.53-3.26Z" id="side_leg_part_21" />
    <path class="cls-2 interactive-part" onclick="togglePart(this)" d="M92.54,175.57s-7.02.14-12.1-5.44c0,0-4.01,3.22-4.44,4.37,0,0,4.37,5.3,16.54,1.07Z" id="side_leg_part_22" />
    <path class="cls-2 interactive-part" onclick="togglePart(this)" d="M115.22,175.82s4.39,2.37,5.37,3.9c0,0,.32,1.07-.04,1.29,0,0-3.7.91-5.34-1.52l-.17-.31-1.49.25s-.24-2.47,1.66-3.62Z" id="side_leg_part_23" />
    <path class="cls-2 interactive-part" onclick="togglePart(this)" d="M117.59,174.57s3.01,1.95,3.54,2.74l1.92.9s1.56,1.23.96,2.55c0,0-.71.87-3.23.04l-.12-.67c-.06-.31-.2-.6-.42-.83-.55-.56-1.9-1.7-5.05-3.49,0,0,.23-.64,2.41-1.25Z" id="side_leg_part_24" />
    <path class="cls-2 interactive-part" onclick="togglePart(this)" d="M119.09,173.96s3.07,1.84,3.07,2.05c0,0,2.5,1.26,2.73,1.79,0,0,2.57.08,1.68,2.42,0,0-1.5,1.56-2.35-.13,0,0-.14-.55-.96-1.67-.14-.14-.31-.25-.48-.34l-1.45-.67c-.13-.06-.25-.14-.36-.24-.5-.48-2.14-1.98-3.38-2.6l1.5-.61Z" id="side_leg_part_25" />
    <path class="cls-2 interactive-part" onclick="togglePart(this)" d="M120.85,173.14l3.12,1.96s.28-.03,1.67,1.07c0,0,1.58.51,1.97,1.08,0,0,.99.02,1.3,1.56,0,0-.18,1.74-2.26,1.37,0,0,.75-2.31-1.75-2.38,0,0-1.15-1.13-2.59-1.73-.09-.04-.17-.08-.25-.14-.42-.32-1.92-1.44-2.96-1.96l1.75-.82Z" id="side_leg_part_26" />
    <path class="cls-2 interactive-part" onclick="togglePart(this)" d="M122.12,171.31l5.31,1.03s2.19,1.22,3.94,1.44c0,0,1.96,1.1.31,2.79,0,0-.71.59-3.13.3,0,0-1.9-.34-3.47-1.19l-4.01-2.67s1.17-.96,1.04-1.7Z" id="side_leg_part_27" />
    <ellipse class="cls-1" cx="119.5" cy="179.62" rx=".54" ry=".19" transform="translate(-83.26 105.93) rotate(-36.39)" />
    <ellipse class="cls-1" cx="121.92" cy="178.69" rx=".78" ry=".38" transform="translate(-82.24 107.18) rotate(-36.39)" />
    <ellipse class="cls-1" cx="124.92" cy="178.52" rx=".77" ry=".42" transform="translate(-81.55 108.93) rotate(-36.39)" />
    <ellipse class="cls-1" cx="127.4" cy="177.83" rx=".54" ry=".19" transform="translate(-80.66 110.27) rotate(-36.39)" />
    <path class="cls-1 interactive-part" onclick="togglePart(this)" d="M129.9,173.48l-1.13,1.22s.36,1.25,2.27.83c0,0,1.15-.62.35-1.75l-1.48-.3Z" id="side_leg_part_28" />
  </g>
</svg>