<?xml version='1.0' encoding='UTF-8'?>
<svg xmlns="http://www.w3.org/2000/svg" viewBox="0 0 215 571">
  <defs>
    <style>
      .cls-1 {
        stroke-width: .25px;
      }

      .cls-1, .cls-2, .cls-3 {
        fill: none;
        stroke: #221f20;
        stroke-miterlimit: 10;
      }

      .cls-2 {
        stroke-width: .5px;
      }

      /* Interactive Muscle Styles */
      .interactive-part { 
        cursor: pointer; 
        pointer-events: all; 
        transition: fill 0.2s; 
        fill: rgba(255,255,255,0.01); /* Transparent fill to catch clicks */
      }
      .interactive-part:hover { 
        fill: #00FF00 !important; 
      }
      .selected { 
        fill: #FF0000 !important; 
      }
    </style>
    <script type="text/javascript">
      function togglePart(elem) {
          elem.classList.toggle('selected');
      }
    </script>
  </defs>
  <g id="Layer_2" data-name="Layer 2">
    <path class="cls-3" d="M173.25,131.87s-.45,23.88,7.05,38.89c0,0,4.78,11.15.91,47.76,0,0-4.78,35.48-15.69,61.87,0,0-4.32,11.83,1.14,30.48,0,0,1.98,22.69-1.37,30.17,0,0-10.43,35.21-11.41,38.95,0,0-3.93,18.1.98,25.18,0,0,.79,4.92-1.57,6.49,0,0,3.93,11.8,1.97,20.46,0,0,5.11,8.85,2.36,12.59,0,0,2.64,10.08-2.29,9.96,0,0-.74,3.33-3.46,2.59,0,0-.25,2.84-3.7,1.97,0,0-1.23,3.95-4.2,1.97,0,0-6.29,7.53-9.01-7.41,0,0-.49-3.83-2.84-5.8,0,0-2.47-3.7,1.23-11.6,0,0,1.36-13.21.62-14.69,0,0-2.41-4.65-3-5.24,0,0-5.73-9.33.44-15.43,0,0,.07-2.5,2.06-6.47,0,0,1.62-12.64.22-21.38,0,0-.44-11.68-1.98-13.96,0,0-8.1-27.69,1.71-44.67,0,0,2.51-4.9.5-11.06,0,0-5.53-7.8-4.78-18.48,0,0,.88-34.07.63-35.33,0,0-6.3-35.79-3.52-54.41l3.43-32.33.21-29.12,43.36-1.93Z" />
    <path class="cls-1" d="M129.27,169.23s-3.33,19.74,8.32,24.26c0,0,11.18,6.9,21.17,4.28,0,0,8.56-3.57,9.75-5.71" />
    <path class="cls-1" d="M137.31,362.57s-4.41-.73-5.88-4.55" />
    <path class="cls-3" d="M150.34,427.04s-4.05-7.83-5.12-8.15c0,0,.73-5.94-1.92-11.01,0,0-3.2-6.88-7.2-6.93,0,0-1.44-.27-3.84.16,0,0-.79-.02-1.49.62" />
    <path class="cls-3" d="M138.84,420.68s-1.76,2.58-5.92-1.29" />
    <path class="cls-2" d="M137.67,438.15s6.2,5.23,9.73-.12" />
    <path class="cls-2" d="M136.3,385.96s-.25,8.73-4.68,13.92" />
    <path class="cls-2" d="M141.62,392.79s-1.9,8.6-1.01,10.63" />
    <path class="cls-2" d="M157.52,445.08s-4.81,2.89-6.37,4.93c0,0-2.58,5.11-12.98,1.62" />
    <ellipse class="cls-2" cx="155.95" cy="451.81" rx="1.95" ry="2.39" />
    <path class="cls-2" d="M154.79,454.05c.25,1.33-.62,2.79-1.98,2.86-1.15.05-2.33-.92-2.88-1.95-.64-1.19.64-2.61,1.98-2.86s2.63.62,2.88,1.95Z" />
    <path class="cls-2" d="M151.49,457.05c.39,1.09-.95,2.18-2.12,2.09-1.09-.08-1.93-1.13-2.12-2.09-.23-1.13,1.03-2.52,2.12-2.09.94.37,1.86,1.36,2.12,2.09Z" />
    <path class="cls-2" d="M147.91,458.36c1,1.3-1.06,2.98-2.37,2.98s-2.37-1.33-2.37-2.98,1.09-3.23,2.37-2.98c1.05.2,1.58,1.95,2.37,2.98Z" />
    <path class="cls-2" d="M137.66,454.23s6.67-1.32,5.13,7.98" />
    <path class="cls-1" d="M141.51,276.76s-4.09,31.51-7.06,34.27" />
    <path class="cls-1" d="M153.28,291.29s-11.25-1.75-14.63,4.38" />
    <path class="cls-1" d="M159.77,291.73s3.25,1.56,4.03,2.86" />
    <path class="cls-3" d="M41.78,132.25s.45,23.88-7.05,38.89c0,0-4.78,11.15-.91,47.76,0,0,4.78,35.48,15.69,61.87,0,0,4.32,11.83-1.14,30.48,0,0-1.98,22.69,1.37,30.17,0,0,10.43,35.21,11.41,38.95,0,0,3.93,18.1-.98,25.18,0,0-.79,4.92,1.57,6.49,0,0-3.93,11.8-1.97,20.46,0,0-5.11,8.85-2.36,12.59,0,0-2.64,10.08,2.29,9.96,0,0,.74,3.33,3.46,2.59,0,0,.25,2.84,3.7,1.97,0,0,1.23,3.95,4.2,1.97,0,0,6.29,7.53,9.01-7.41,0,0,.49-3.83,2.84-5.8,0,0,2.47-3.7-1.23-11.6,0,0-1.36-13.21-.62-14.69,0,0,2.41-4.65,3-5.24,0,0,5.73-9.33-.44-15.43,0,0-.07-2.5-2.06-6.47,0,0-1.62-12.64-.22-21.38,0,0,.44-11.68,1.98-13.96,0,0,8.1-27.69-1.71-44.67,0,0-2.51-4.9-.5-11.06,0,0,5.53-7.8,4.78-18.48,0,0-.88-34.07-.63-35.33,0,0,6.3-35.79,3.52-54.41l-3.43-32.33-.21-29.12-43.36-1.93Z" />
    <path class="cls-1" d="M85.76,169.62s3.33,19.74-8.32,24.26c0,0-11.18,6.9-21.17,4.28,0,0-8.56-3.57-9.75-5.71" />
    <path class="cls-1" d="M77.72,362.96s4.41-.73,5.88-4.55" />
    <path class="cls-3" d="M64.69,427.42s4.05-7.83,5.12-8.15c0,0-.73-5.94,1.92-11.01,0,0,3.2-6.88,7.2-6.93,0,0,1.44-.27,3.84.16,0,0,.79-.02,1.49.62" />
    <path class="cls-3" d="M76.2,421.07s1.76,2.58,5.92-1.29" />
    <path class="cls-2" d="M77.36,438.53s-6.2,5.23-9.73-.12" />
    <path class="cls-2" d="M78.73,386.35s.25,8.73,4.68,13.92" />
    <path class="cls-2" d="M73.42,393.18s1.9,8.6,1.01,10.63" />
    <path class="cls-2" d="M57.51,445.46s4.81,2.89,6.37,4.93c0,0,2.58,5.11,12.98,1.62" />
    <ellipse class="cls-2" cx="59.08" cy="452.2" rx="1.95" ry="2.39" />
    <path class="cls-2" d="M60.24,454.44c-.25,1.33.62,2.79,1.98,2.86,1.15.05,2.33-.92,2.88-1.95.64-1.19-.64-2.61-1.98-2.86s-2.63.62-2.88,1.95Z" />
    <path class="cls-2" d="M63.54,457.43c-.39,1.09.95,2.18,2.12,2.09,1.09-.08,1.93-1.13,2.12-2.09.23-1.13-1.03-2.52-2.12-2.09-.94.37-1.86,1.36-2.12,2.09Z" />
    <path class="cls-2" d="M67.12,458.75c-1,1.3,1.06,2.98,2.37,2.98s2.37-1.33,2.37-2.98-1.09-3.23-2.37-2.98c-1.05.2-1.58,1.95-2.37,2.98Z" />
    <path class="cls-2" d="M77.37,454.61s-6.67-1.32-5.13,7.98" />
    <path class="cls-1" d="M73.52,277.15s4.09,31.51,7.06,34.27" />
    <path class="cls-1" d="M61.76,291.67s11.25-1.75,14.63,4.38" />
    <path class="cls-1" d="M55.26,292.11s-3.25,1.56-4.03,2.86" />
    <path class="cls-2 interactive-part" onclick="togglePart(this)" d="M37.06,165.47s-2.1,5.33-2.22,5.5c0,0-3.7,7.8-2.22,32.04,0,0,1.03,31.98,13.56,68.8,0,0,7.37-3.54,8.25-2.95,0,0-9.58-60.84-7.66-68.35,0,0-2.8-1.92-3.54-5.16l-.44-23.57s-5.57-5.13-5.73-6.32Z" id="upper_leg_back_part_1" />
    <path class="cls-2 interactive-part" onclick="togglePart(this)" d="M85.48,191.9s-10.53,17.22-36.5,8.47c0,0,4.24,59.73,7.79,67.25,0,0,14.08-3.01,18.73-1.64,0,0,.55-50.71.82-53.04,0,0,9.43-17.98,9.16-21.05Z" id="upper_leg_back_part_2" />
    <path class="cls-2 interactive-part" onclick="togglePart(this)" d="M89.08,195.96s-4.77.76-9.74,14.7l-.99,55.78,7.12,2.87-.32-18.8s5.94-39.72,3.93-54.54Z" id="upper_leg_back_part_3" />
    <path class="cls-2 interactive-part" onclick="togglePart(this)" d="M47.24,274.83l7.61-3.29s4.31,16.8,2.95,26.57l-3.75,16.35-5.79-1.59.11-1.7s4.2-13.11,2.16-25.83c0,0-.45-3.86-3.29-10.5Z" id="upper_leg_back_part_4" />
    <path class="cls-2 interactive-part" onclick="togglePart(this)" d="M85.73,271.59s-20.89-3.52-27.7-.68c0,0,2.61,20.21,2.04,22.82l-3.75,21.8s10.67,3.18,24.41-3.63c0,0-.91-3.86.34-8.06,0,0,4.31-6.24,4.88-16.01l-.23-16.23Z" id="upper_leg_back_part_5" />
  </g>
  <g id="Layer_3" data-name="Layer 3">
    <path class="cls-2 interactive-part" onclick="togglePart(this)" d="M177.98,165.09s2.1,5.33,2.22,5.5c0,0,3.7,7.8,2.22,32.04,0,0-1.03,31.98-13.56,68.8,0,0-7.37-3.54-8.25-2.95,0,0,9.58-60.84,7.66-68.35,0,0,2.8-1.92,3.54-5.16l.44-23.57s5.57-5.13,5.73-6.32Z" id="upper_leg_back_part_6" />
    <path class="cls-2 interactive-part" onclick="togglePart(this)" d="M129.55,191.51s10.53,17.22,36.5,8.47c0,0-4.24,59.73-7.79,67.25,0,0-14.08-3.01-18.73-1.64,0,0-.55-50.71-.82-53.04,0,0-9.43-17.98-9.16-21.05Z" id="upper_leg_back_part_7" />
    <path class="cls-2 interactive-part" onclick="togglePart(this)" d="M125.96,195.57s4.77.76,9.74,14.7l.99,55.78-7.12,2.87.32-18.8s-5.94-39.72-3.93-54.54Z" id="upper_leg_back_part_8" />
    <path class="cls-2 interactive-part" onclick="togglePart(this)" d="M167.79,274.45l-7.61-3.29s-4.31,16.8-2.95,26.57l3.75,16.35,5.79-1.59-.11-1.7s-4.2-13.11-2.16-25.83c0,0,.45-3.86,3.29-10.5Z" id="upper_leg_back_part_9" />
    <path class="cls-2 interactive-part" onclick="togglePart(this)" d="M129.31,271.21s20.89-3.52,27.7-.68c0,0-2.61,20.21-2.04,22.82l3.75,21.8s-10.67,3.18-24.41-3.63c0,0,.91-3.86-.34-8.06,0,0-4.31-6.24-4.88-16.01l.23-16.23Z" id="upper_leg_back_part_10" />
  </g>
</svg>