<?xml version='1.0' encoding='UTF-8'?>
<svg xmlns="http://www.w3.org/2000/svg" viewBox="0 0 313 601">
  <defs>
    <style>
      .cls-1 {
        stroke-width: .25px;
      }

      .cls-1, .cls-2, .cls-3 {
        fill: none;
        stroke: #221f20;
        stroke-miterlimit: 10;
      }

      .cls-2 {
        stroke-width: .75px;
      }

      .cls-3 {
        stroke-width: .5px;
      }

      /* Interactive Muscle Styles */
      .interactive-part { 
        cursor: pointer; 
        pointer-events: all; 
        transition: fill 0.2s; 
        fill: rgba(255,255,255,0.01); /* Transparent fill to catch clicks */
      }
      .interactive-part:hover { 
        fill: #00FF00 !important; 
      }
      .selected { 
        fill: #FF0000 !important; 
      }
    </style>
    <script type="text/javascript">
      function togglePart(elem) {
          elem.classList.toggle('selected');
      }
    </script>
  </defs>
  <g id="Layer_2" data-name="Layer 2">
    <path class="cls-2" d="M148.03,422.73c-.32,16.5-5.44,35.77-5.6,36.35,0,0-.01.01-.02.01l-38.83-4.76s-.01,0-.02-.02c-5.55-41.85,1.76-64.3,1.76-64.3,3.11-10.04,3.6-21.67,3.6-21.67h0c.88-5.76,2.65-14.05,2.65-14.05h0c3.18-6.31,1.2-33.06,1.2-33.06l-.48-7.52h0c-13.62-28.14-8.67-51.28-8.64-51.43,0,0,0,0,0,0-1.03-.72-2.27-4.4-2.4-4.8,0-.01-.02-.01-.03,0l-3.31,6.05s0,0,0,0c1.54,17.09-12.47,50.37-12.54,50.54h0s-.17,3.81-.17,3.81c0,0,0,0,0,.01,1.48,1.41,1.33,4.08,1.33,4.17,0,0,0,0,0,0-1.15.66-3.16,4.93-3.17,4.94h0c-1.04,15.63-13.69,36.98-13.69,36.98h0c-2.87,3.44-7.18,14.11-7.22,14.2h0s.05,6.55.05,6.55c0,0,0,0,0,.01l-1.55,1.96s0,0,0,.01c1.03,12.86-2.36,15.74-2.43,15.8,0,0,0,0,0,0,.68,6.51-2.49,8.92-2.6,9,0,0,0,0,0,.01l-.17,4.39s0,0,0,0l-1.44,2.32s0,0,0,0l-.17,3.04h0s-2.13,3.82-2.13,3.82c-2.67,4.83-3.41.3-3.42.3h0c-.12-1.54,1.09-5.78,1.09-5.78-.4-1.55.99-6.43,1.09-6.78,0-.01,0-.02-.02-.02l-1.76-.18s-.01,0-.01,0c-1.31,1.08-1.78,5.72-1.78,5.78h0s-3.47,7.22-3.47,7.22h0s-3.17,3.94-3.17,3.94h0c-2.99,2.98-3.69-1.06-3.69-1.07,0,0,0,0,0,0,.64-1.77,1.21-4.75,1.21-4.76,0,0,0,0,0,0,2.33-2.53,2.31-6.45,2.31-6.55,0,0,0,0,0,0l2.19-2.86s0,0,0,0l.12-1.89s0-.02-.02-.02l-1.88-.12s0,0,0,0c-1.03.42-1.09,4.46-1.09,4.53,0,0,0,0,0,0-2.12,1.25-3.34,7.05-3.34,7.09h0s-2.25,4.35-2.25,4.35c-2.28,4.14-4.62.92-4.68.84,0,0,0,0,0,0l.05-3.34h0c.35-3.34,2.08-4.83,2.08-4.84h0c1.02-1.55.94-4.4.92-4.79,0-.03.01-.06.04-.07,2.09-1.55,2.96-4.83,3.03-5.08,0,0,0-.02-.01-.02l-2.17-.71s-.02,0-.02.01l-1.78,4.87s0,0,0,0c-1.43.6-2.29,4.66-2.3,4.71h0s-2.89,5.07-2.89,5.07h0c-2.87,2.49-3.8-.78-3.81-.84h0s.52-5.66.52-5.66c0,0,0,0,0,0l1.96-2.68s0,0,0,0l.23-3.21s0,0,0,0l3.12-5.12s0,0,0,0l.23-4.93s0,0,0-.01c.69-.65,2.43-3.03,2.48-3.09,0,0,0,0,0,0l.05-2.55s0-.01,0-.01c-2.13-1.9-4.25.53-4.26.54h0c-1.24,4.05-5.81,6.66-5.9,6.71,0,0,0,0,0,0l-4.43-.15s0,0,0,0c-2.18-1.25.19-3.49.19-3.5h0c1.09-1.49,2.11-3.16,2.12-3.18h0s.81-2.86.81-2.86c0,0,0,0,0,0l3.81-3.45c.4-.95,3.1-3.38,3.12-3.4,0,0,0,0,0,0,1.51-.11,5.03-3.13,5.03-3.13h0c3.29-3.66,8.86-5.12,8.87-5.12h0c4.36-2.38,7.8-26.51,7.8-26.54,0,0,0,0,0,0l4.56-19.57h0c.17-7.04,10.41-22.67,10.41-22.67,2.88-3.29,2.48-9.85,2.48-9.85-.35-13.04.98-15.73.99-15.74h0c.97-6.27,4.21-14.73,4.22-14.74h0c3.04-5.28,3.17-7.73,3.17-7.75h0s-.57-5.96-.57-5.96h0c-3.47-9.24,1.44-16.99,1.44-17h0c.81-2.81,4.5-8.64,4.51-8.65,0,0,0,0,0,0,4.68-9.13,15.49-7.93,15.49-7.93,2.88-2.85,9.65-2.81,9.71-2.81h0s16.63-5.73,16.63-5.73h0c15.46-4.17,15.77-11.14,15.77-11.16,0,0,0,0,0,0l.05-11.63s0,0,0-.01c-3.1-2.86-2.45-7.08-2.42-7.26,0,0,0,0-.01,0-4.58-1.09-3.83-5.28-3.76-5.63,0-.01,0-.03-.02-.03-2.06-.39-2.69-4.24-2.69-4.24-.45-1.76.1-3.97.12-4.05,0,0,0,0,0,0-4.2-3.25-2.2-4.87-2.2-4.87.99-1.31,4.27.65,4.72.93.01,0,.03,0,.02-.02-6.07-10.4.3-22.24.3-22.24,5.95-12.07,25.08-12.72,25.08-12.72l.13,189.89.14,89.83s0,.01,0,.01l-4.7,3.88c-2.33,1.92-3.73,4.75-3.79,7.77Z" />
    <path class="cls-1" d="M129.25,168.23c.79.25,1.45.8,1.99,1.45s.93,1.39,1.33,2.13" />
    <path class="cls-1" d="M131.47,173.87c-.08.72.31,1.39.75,1.96.4.51.84.99,1.33,1.42" />
    <path class="cls-1" d="M132.03,178.29c.33-.08.65-.28.88-.55" />
    <path class="cls-1" d="M139.4,168.44c2.59-2.36,6.18-3.51,9.61-3.07,1.21.15,2.48.54,3.28,1.5" />
    <path class="cls-1" d="M152.09,168.22c-1.2-.88-2.47-1.79-3.94-1.93-.76-.07-1.53.07-2.27.26-1.48.39-2.95.98-4.14,1.97,1.41.95,3.19,1.32,4.87,1.25s3.34-.63,4.76-1.56" />
    <path class="cls-1" d="M145.15,166.97c.08.61.48,1.13,1,1.42.36.19.77.3,1.17.23s.77-.3.97-.67c.12-.21.16-.45.2-.69.03-.23.04-.47.04-.72" />
    <path class="cls-1" d="M138.48,165.33c1.01-1.34,2.45-2.29,4-2.84s3.22-.72,4.86-.65c.73.03,1.47.1,2.16.33,2.07.67,3.54,2.63,4.34,4.7l-1.44,9.86s-3.04,0-2.36,3.14c0,0,1.09,2.15,2.31.21,0,0,1.33-1.16,2.07.62,0,0,.41.73,1.47.36" />
    <path class="cls-1" d="M148.75,188.05c.68.21,1.44.19,2.12-.04.79-.28,1.47-.84,2.28-1.06.61-.17,1.28-.11,1.85.15.39.18.73.44,1.15.54" />
    <path class="cls-1" d="M154.89,182.9c-.13.63-.03,1.32.31,1.87" />
    <path class="cls-1" d="M152.01,190.2c.48.56,1.17.95,1.89,1.05s1.49-.08,2.11-.5" />
    <path class="cls-1" d="M137.2,191.26c3.71,2.48,7.49,5.34,11.06,7.64.48.32,2.69,1.78,3.24,1.94.37.11,4.05.3,4.44.34" />
    <path class="cls-1" d="M26.59,413.89c1.08.76,2.47,1.02,3.75.72" />
    <path class="cls-1" d="M24.76,419.31c.68.72,1.67,1.12,2.63,1.05" />
    <path class="cls-1" d="M34.19,416.79c1.09.69,2.43.96,3.68.73" />
    <path class="cls-1" d="M31.67,423.13c.92.69,2.15.92,3.26.63" />
    <path class="cls-1" d="M42.07,418.1c.96.66,2.21.85,3.32.54" />
    <path class="cls-1" d="M39.71,424.4c.2,0,.37.14.56.23.57.33,1.25.45,1.91.36" />
    <path class="cls-1" d="M50.83,421.86c.69.18,1.44.14,2.11-.12" />
    <path class="cls-1" d="M51.51,415.77c.92.33,1.91.44,2.87.3" />
    <path class="cls-1" d="M20.28,394.69c.97-.1,1.99.43,2.51,1.28" />
    <path class="cls-1" d="M18.23,398.12c.61.58.61,1.57.45,2.41-.25,1.24-.79,2.42-1.56,3.42" />
    <path class="cls-1" d="M42.29,380.28c.93.56,1.95.98,2.99,1.23.4.1.83.17,1.2-.01.4-.19.63-.62.84-1.02.33-.63.68-1.27,1.05-1.87" />
    <path class="cls-1" d="M49.91,380.79c0,.92.68,1.72,1.49,2.09s1.73.4,2.61.34,1.79-.17,2.65-.04" />
    <path class="cls-1" d="M47.81,388.09c.35,1.06.43,2.2.63,3.31.6,3.24,2.35,6.28,4.99,8.14,1.83,1.28,4.04,1.97,6.26,1.91" />
    <path class="cls-1" d="M36.12,397.84c1.33.21,2.71-.26,3.86-1.02s2.08-1.79,2.99-2.82c.83-.94,1.63-1.9,2.41-2.88" />
    <path class="cls-1" d="M31.64,399.54c1.28.83,2.6,1.61,4.06,2.02,1.45.41,3.07.41,4.4-.29.65-.34,1.21-.83,1.81-1.25,2.15-1.47,4.87-2.04,7.39-1.53" />
    <path class="cls-1" d="M37.17,405.32c2.11-1.09,3.35-1.56,5.67-1.94s5.66-.33,7.91.32c.68.19,1.28.66,1.97.79,1.15.21,2.31-.26,3.44-.55.96-.25,1.95-.37,2.93-.39" />
    <path class="cls-1" d="M68.13,307.46c.17,4.12,1.37,8.19,3.46,11.71" />
    <path class="cls-1" d="M64.55,314.97c1-.45,1.53.03,2.48.59s1.77,1.83,2.56,2.62,2.31,1.25,3.32,1.24c1.17-.01,2.31-.03,3.5-.07s2.49.32,3.31,1.2" />
    <path class="cls-1" d="M93.58,252.29s6.78-1.64,8.41-5.14" />
    <path class="cls-1" d="M97.88,250.7s2.24,4.86,4.81,6.03" />
    <path class="cls-1" d="M135.73,391.57s12.28,12.41,14.11,17.51" />
    <path class="cls-2" d="M164.56,422.92c.32,16.5,5.44,35.77,5.6,36.35,0,0,.01.01.02.01l38.83-4.76s.01,0,.02-.02c5.55-41.85-1.76-64.3-1.76-64.3-3.11-10.04-3.6-21.67-3.6-21.67h0c-.88-5.76-2.65-14.05-2.65-14.05h0c-3.18-6.31-1.2-33.06-1.2-33.06l.48-7.52h0c13.62-28.14,8.67-51.28,8.64-51.43,0,0,0,0,0,0,1.03-.72,2.27-4.4,2.4-4.8,0-.01.02-.01.03,0l3.31,6.05s0,0,0,0c-1.54,17.09,12.47,50.37,12.54,50.54h0s.17,3.81.17,3.81c0,0,0,0,0,.01-1.48,1.41-1.33,4.08-1.33,4.17,0,0,0,0,0,0,1.15.66,3.16,4.93,3.17,4.94h0c1.04,15.63,13.69,36.98,13.69,36.98h0c2.87,3.44,7.18,14.11,7.22,14.2h0s-.05,6.55-.05,6.55c0,0,0,0,0,.01l1.55,1.96s0,0,0,.01c-1.03,12.86,2.36,15.74,2.43,15.8,0,0,0,0,0,0-.68,6.51,2.49,8.92,2.6,9,0,0,0,0,0,.01l.17,4.39s0,0,0,0l1.44,2.32s0,0,0,0l.17,3.04h0s2.13,3.82,2.13,3.82c2.67,4.83,3.41.3,3.42.3h0c.12-1.54-1.09-5.78-1.09-5.78.4-1.55-.99-6.43-1.09-6.78,0-.01,0-.02.02-.02l1.76-.18s.01,0,.01,0c1.31,1.08,1.78,5.72,1.78,5.78h0s3.47,7.22,3.47,7.22h0s3.17,3.94,3.17,3.94h0c2.99,2.98,3.69-1.06,3.69-1.07,0,0,0,0,0,0-.64-1.77-1.21-4.75-1.21-4.76,0,0,0,0,0,0-2.33-2.53-2.31-6.45-2.31-6.55,0,0,0,0,0,0l-2.19-2.86s0,0,0,0l-.12-1.89s0-.02.02-.02l1.88-.12s0,0,0,0c1.03.42,1.09,4.46,1.09,4.53,0,0,0,0,0,0,2.12,1.25,3.34,7.05,3.34,7.09h0s2.25,4.35,2.25,4.35c2.28,4.14,4.62.92,4.68.84,0,0,0,0,0,0l-.05-3.34h0c-.35-3.34-2.08-4.83-2.08-4.84h0c-1.02-1.55-.94-4.4-.92-4.79,0-.03-.01-.06-.04-.07-2.09-1.55-2.96-4.83-3.03-5.08,0,0,0-.02.01-.02l2.17-.71s.02,0,.02.01l1.78,4.87s0,0,0,0c1.43.6,2.29,4.66,2.3,4.71h0s2.89,5.07,2.89,5.07h0c2.87,2.49,3.8-.78,3.81-.84h0s-.52-5.66-.52-5.66c0,0,0,0,0,0l-1.96-2.68s0,0,0,0l-.23-3.21s0,0,0,0l-3.12-5.12s0,0,0,0l-.23-4.93s0,0,0-.01c-.69-.65-2.43-3.03-2.48-3.09,0,0,0,0,0,0l-.05-2.55s0-.01,0-.01c2.13-1.9,4.25.53,4.26.54h0c1.24,4.05,5.81,6.66,5.9,6.71,0,0,0,0,0,0l4.43-.15s0,0,0,0c2.18-1.25-.19-3.49-.19-3.5h0c-1.09-1.49-2.11-3.16-2.12-3.18h0s-.81-2.86-.81-2.86c0,0,0,0,0,0l-3.81-3.45c-.4-.95-3.1-3.38-3.12-3.4,0,0,0,0,0,0-1.51-.11-5.03-3.13-5.03-3.13h0c-3.29-3.66-8.86-5.12-8.87-5.12h0c-4.36-2.38-7.8-26.51-7.8-26.54,0,0,0,0,0,0l-4.56-19.57h0c-.17-7.04-10.41-22.67-10.41-22.67-2.88-3.29-2.48-9.85-2.48-9.85.35-13.04-.98-15.73-.99-15.74h0c-.97-6.27-4.21-14.73-4.22-14.74h0c-3.04-5.28-3.17-7.73-3.17-7.75h0s.57-5.96.57-5.96h0c3.47-9.24-1.44-16.99-1.44-17h0c-.81-2.81-4.5-8.64-4.51-8.65,0,0,0,0,0,0-4.68-9.13-15.49-7.93-15.49-7.93-2.88-2.85-9.65-2.81-9.71-2.81h0s-16.63-5.73-16.63-5.73h0c-15.46-4.17-15.77-11.14-15.77-11.16,0,0,0,0,0,0l-.05-11.63s0,0,0-.01c3.1-2.86,2.45-7.08,2.42-7.26,0,0,0,0,.01,0,4.58-1.09,3.83-5.28,3.76-5.63,0-.01,0-.03.02-.03,2.06-.39,2.69-4.24,2.69-4.24.45-1.76-.1-3.97-.12-4.05,0,0,0,0,0,0,4.2-3.25,2.2-4.87,2.2-4.87-.99-1.31-4.27.65-4.72.93-.01,0-.03,0-.02-.02,6.07-10.4-.3-22.24-.3-22.24-5.95-12.07-25.08-12.72-25.08-12.72l-.13,189.89-.14,89.83s0,.01,0,.01l4.7,3.88c2.33,1.92,3.73,4.75,3.79,7.77Z" />
    <path class="cls-1" d="M183.33,168.42c-.79.25-1.45.8-1.99,1.45s-.93,1.39-1.33,2.13" />
    <path class="cls-1" d="M181.12,174.05c.08.72-.31,1.39-.75,1.96-.4.51-.84.99-1.33,1.42" />
    <path class="cls-1" d="M180.56,178.48c-.33-.08-.65-.28-.88-.55" />
    <path class="cls-1" d="M173.19,168.63c-2.59-2.36-6.18-3.51-9.61-3.07-1.21.15-2.48.54-3.28,1.5" />
    <path class="cls-1" d="M160.5,168.41c1.2-.88,2.47-1.79,3.94-1.93.76-.07,1.53.07,2.27.26,1.48.39,2.95.98,4.14,1.97-1.41.95-3.19,1.32-4.87,1.25s-3.34-.63-4.76-1.56" />
    <path class="cls-1" d="M167.44,167.15c-.08.61-.48,1.13-1,1.42-.36.19-.77.3-1.17.23s-.77-.3-.97-.67c-.12-.21-.16-.45-.2-.69-.03-.23-.04-.47-.04-.72" />
    <path class="cls-1" d="M174.11,165.52c-1.01-1.34-2.45-2.29-4-2.84s-3.22-.72-4.86-.65c-.73.03-1.47.1-2.16.33-2.07.67-3.54,2.63-4.34,4.7l1.44,9.86s3.04,0,2.36,3.14c0,0-1.09,2.15-2.31.21,0,0-1.33-1.16-2.07.62,0,0-.41.73-1.47.36" />
    <path class="cls-1" d="M163.84,188.24c-.68.21-1.44.19-2.12-.04-.79-.28-1.47-.84-2.28-1.06-.61-.17-1.28-.11-1.85.15-.39.18-.73.44-1.15.54" />
    <path class="cls-1" d="M157.7,183.09c.13.63.03,1.32-.31,1.87" />
    <path class="cls-1" d="M160.58,190.39c-.48.56-1.17.95-1.89,1.05s-1.49-.08-2.11-.5" />
    <path class="cls-1" d="M175.39,191.44c-3.71,2.48-7.49,5.34-11.06,7.64-.48.32-2.69,1.78-3.24,1.94-.37.11-4.05.3-4.44.34" />
    <path class="cls-1" d="M286,414.07c-1.08.76-2.47,1.02-3.75.72" />
    <path class="cls-1" d="M287.83,419.5c-.68.72-1.67,1.12-2.63,1.05" />
    <path class="cls-1" d="M278.4,416.98c-1.09.69-2.43.96-3.68.73" />
    <path class="cls-1" d="M280.92,423.32c-.92.69-2.15.92-3.26.63" />
    <path class="cls-1" d="M270.51,418.29c-.96.66-2.21.85-3.32.54" />
    <path class="cls-1" d="M272.88,424.58c-.2,0-.37.14-.56.23-.57.33-1.25.45-1.91.36" />
    <path class="cls-1" d="M261.76,422.05c-.69.18-1.44.14-2.11-.12" />
    <path class="cls-1" d="M261.08,415.96c-.92.33-1.91.44-2.87.3" />
    <path class="cls-1" d="M292.31,394.88c-.97-.1-1.99.43-2.51,1.28" />
    <path class="cls-1" d="M294.35,398.3c-.61.58-.61,1.57-.45,2.41.25,1.24.79,2.42,1.56,3.42" />
    <path class="cls-1" d="M270.3,380.47c-.93.56-1.95.98-2.99,1.23-.4.1-.83.17-1.2-.01-.4-.19-.63-.62-.84-1.02-.33-.63-.68-1.27-1.05-1.87" />
    <path class="cls-1" d="M262.68,380.98c0,.92-.68,1.72-1.49,2.09s-1.73.4-2.61.34-1.79-.17-2.65-.04" />
    <path class="cls-1" d="M264.78,388.28c-.35,1.06-.43,2.2-.63,3.31-.6,3.24-2.35,6.28-4.99,8.14-1.83,1.28-4.04,1.97-6.26,1.91" />
    <path class="cls-1" d="M276.46,398.03c-1.33.21-2.71-.26-3.86-1.02s-2.08-1.79-2.99-2.82c-.83-.94-1.63-1.9-2.41-2.88" />
    <path class="cls-1" d="M280.95,399.72c-1.28.83-2.6,1.61-4.06,2.02-1.45.41-3.07.41-4.4-.29-.65-.34-1.21-.83-1.81-1.25-2.15-1.47-4.87-2.04-7.39-1.53" />
    <path class="cls-1" d="M275.42,405.51c-2.11-1.09-3.35-1.56-5.67-1.94s-5.66-.33-7.91.32c-.68.19-1.28.66-1.97.79-1.15.21-2.31-.26-3.44-.55-.96-.25-1.95-.37-2.93-.39" />
    <path class="cls-1" d="M244.46,307.65c-.17,4.12-1.37,8.19-3.46,11.71" />
    <path class="cls-1" d="M248.04,315.16c-1-.45-1.53.03-2.48.59s-1.77,1.83-2.56,2.62-2.31,1.25-3.32,1.24c-1.17-.01-2.31-.03-3.5-.07s-2.49.32-3.31,1.2" />
    <path class="cls-1" d="M219.01,252.48s-6.78-1.64-8.41-5.14" />
    <path class="cls-1" d="M214.71,250.89s-2.24,4.86-4.81,6.03" />
    <path class="cls-1" d="M176.86,391.76s-12.28,12.41-14.11,17.51" />
    <path class="cls-3 interactive-part" onclick="togglePart(this)" d="M176.39,205.6s-9.59,7.53-15.09,7.06c-.68-.06-1.27.47-1.26,1.15l.23,57.17c0,.83.22,1.64.63,2.37,1.3,2.3,4.59,7.33,9.3,9.15,0,0,2.09,7.27,8.57,12.26,0,0,1,8.77,6.97,13.35,0,0,6.63,13,14.1,12.9,0,0,.15-2.25.46-7.12l1.17-2.41s-9.38-4.1-11.67-15.78c0,0-6.14-19.32,10.56-36.9,0,0-14.32-14.44-9.92-26.75,0,0,.13-3.52,10.05-14.32l-12.96-4.44s-8.8-2.91-11.13-7.7Z" id="upper_front_part_1" />
    <path class="cls-3 interactive-part" onclick="togglePart(this)" d="M192.47,282.95s-.98,11.27,1.97,17.11c0,0,4.94,7.48,8.85,6.9,0,0,9.32-20.67,5.68-44.45,0,0-4.04-3.57-7.19-.42,0,0-8.08,7.39-9.31,20.86Z" id="upper_front_part_2" />
    <path class="cls-3 interactive-part" onclick="togglePart(this)" d="M201.01,354.47c-26.59,37.43-39.85,34.06-39.85,34.06.55-.31.09-106.97.09-106.97,0,0,13.39,16.09,19.57,29.42,0,0,2.65,14.04,18.64,15.28,0,0-.42,15.91-.24,16.51,0,0,.25,7.18,1.04,9.61l.75,2.09Z" id="upper_front_part_3" />
    <path class="cls-3 interactive-part" onclick="togglePart(this)" d="M201.98,359.47s-7.21,11.63-13.2,13.75c0,0-1.88,1.64-1.64,9.57,0,0,4.72,25.18,23.74,30.9,0,0-1.89-19.22-3.88-24.33,0,0-3.53-14.39-3.23-20.55,0,0-1.46-7.8-1.79-9.34Z" id="upper_front_part_4" />
  </g>
  <g id="Layer_3" data-name="Layer 3">
    <path class="cls-3 interactive-part" onclick="togglePart(this)" d="M136.2,205.42s9.59,7.53,15.09,7.06c.68-.06,1.27.47,1.26,1.15l-.23,57.17c0,.83-.22,1.64-.63,2.37-1.3,2.3-4.59,7.33-9.3,9.15,0,0-2.09,7.27-8.57,12.26,0,0-1,8.77-6.97,13.35,0,0-6.63,13-14.1,12.9,0,0-.15-2.25-.46-7.12l-1.17-2.41s9.38-4.1,11.67-15.78c0,0,6.14-19.32-10.56-36.9,0,0,14.32-14.44,9.92-26.75,0,0-.13-3.52-10.05-14.32l12.96-4.44s8.8-2.91,11.13-7.7Z" id="upper_front_part_5" />
  </g>
  <g id="Layer_4" data-name="Layer 4">
    <path class="cls-3 interactive-part" onclick="togglePart(this)" d="M120.12,282.76s.98,11.27-1.97,17.11c0,0-4.94,7.48-8.85,6.9,0,0-9.32-20.67-5.68-44.45,0,0,4.04-3.57,7.19-.42,0,0,8.08,7.39,9.31,20.86Z" id="upper_front_part_6" />
  </g>
  <g id="Layer_5" data-name="Layer 5">
    <path class="cls-3 interactive-part" onclick="togglePart(this)" d="M111.58,354.29c26.59,37.43,39.85,34.06,39.85,34.06-.55-.31-.09-106.97-.09-106.97,0,0-13.39,16.09-19.57,29.42,0,0-2.65,14.04-18.64,15.28,0,0,.42,15.91.24,16.51,0,0-.25,7.18-1.04,9.61l-.75,2.09Z" id="upper_front_part_7" />
    <path class="cls-3 interactive-part" onclick="togglePart(this)" d="M110.61,359.28s7.21,11.63,13.2,13.75c0,0,1.88,1.64,1.64,9.57,0,0-4.72,25.18-23.74,30.9,0,0,1.89-19.22,3.88-24.33,0,0,3.53-14.39,3.23-20.55,0,0,1.46-7.8,1.79-9.34Z" id="upper_front_part_8" />
  </g>
</svg>